<?xml version="1.0" standalone="no"?>
<!DOCTYPE svg PUBLIC "-//W3C//DTD SVG 1.1//EN" "http://www.w3.org/Graphics/SVG/1.1/DTD/svg11.dtd" >
<svg>
<metadata>
Created by FontForge 20110222 at Mon Jan 20 11:16:16 2014
 By Orthosie Webhosting
Copyright (c) 2012 by Alvaro Thomaz. All rights reserved.
</metadata>
<defs>
<font id="Aliquam-Italic" horiz-adv-x="532" >
  <font-face 
    font-family="Aliquam"
    font-weight="400"
    font-style="italic"
    font-stretch="normal"
    units-per-em="1000"
    panose-1="2 0 5 6 0 0 0 9 0 4"
    ascent="800"
    descent="-200"
    x-height="519"
    cap-height="721"
    bbox="-56 -177 1124 928"
    underline-thickness="50"
    underline-position="-75"
    slope="-12"
    unicode-range="U+0020-F001"
  />
<missing-glyph horiz-adv-x="454" 
d="M21 0l169 800h395l-168 -800h-396zM140 98h198q16 79 32 154t31.5 148.5t31.5 148.5t33 154h-197z" />
    <glyph glyph-name=".notdef" horiz-adv-x="454" 
d="M21 0l169 800h395l-168 -800h-396zM140 98h198q16 79 32 154t31.5 148.5t31.5 148.5t33 154h-197z" />
    <glyph glyph-name="NULL" horiz-adv-x="0" 
 />
    <glyph glyph-name="nonmarkingreturn" horiz-adv-x="205" 
 />
    <glyph glyph-name="space" unicode=" " horiz-adv-x="205" 
 />
    <glyph glyph-name="exclam" unicode="!" horiz-adv-x="110" 
d="M109 171h-57l113 536h58zM73 0h-57l26 129h58z" />
    <glyph glyph-name="quotedbl" unicode="&#x22;" horiz-adv-x="212" 
d="M280 459h-57l52 248h57zM176 459h-57l52 248h57z" />
    <glyph glyph-name="numbersign" unicode="#" horiz-adv-x="507" 
d="M572 399h-114q-12 -34 -22.5 -63t-22.5 -66h105l-11 -56h-115q-17 -51 -37 -107t-37 -107h-58l75 214h-121q-17 -51 -37 -107t-37 -107h-58l74 214h-112l10 56h123q12 35 22.5 63.5t22.5 65.5h-113l10 56h125q19 54 38.5 110t37.5 110h57l-76 -220h120q19 54 38.5 110
t37.5 110h58l-76 -220h105zM400 399h-119q-12 -34 -22.5 -63t-23.5 -66h119z" />
    <glyph glyph-name="dollar" unicode="$" horiz-adv-x="568" 
d="M575 179q-9 -47 -39.5 -85.5t-74.5 -64.5q-34 -18 -76.5 -30.5t-83.5 -14.5q-5 -20 -9.5 -42.5t-8.5 -39.5h-57l18 84q-51 5 -90 23t-63 46q-20 23 -30.5 54t-10.5 67q0 18 2.5 38.5t7.5 44.5h58q-6 -29 -9 -50.5t-3 -33.5q0 -60 38 -94t110 -39q8 40 16 76.5t16.5 72.5
t16.5 73t16 78q-92 22 -127 45q-57 37 -57 108q0 9 1 20t3 20q11 46 38 83.5t69 62.5q32 18 71.5 28.5t81.5 12.5q2 11 4.5 22.5t4.5 18.5h59l-11 -43q179 -12 179 -169q0 -13 -2 -30.5t-6 -38.5h-56q3 23 5.5 40t2.5 26q0 106 -135 117q-8 -38 -15 -72t-14.5 -68
t-14.5 -68.5t-15 -72.5q59 -16 91 -27t46 -20q58 -39 58 -110q0 -11 -1 -23t-5 -26zM388 666q-30 -3 -59.5 -11t-53.5 -21q-66 -37 -81 -108q-3 -12 -3 -26q0 -20 9.5 -37.5t29.5 -28.5q11 -8 39.5 -18t60.5 -18zM521 188q1 7 1.5 15t0.5 16q0 47 -40 72q-13 8 -38.5 17.5
t-70.5 21.5q-16 -77 -31 -144.5t-31 -145.5q67 4 121 35v-1q37 20 58 48t29 66h1z" />
    <glyph glyph-name="percent" unicode="%" horiz-adv-x="692" 
d="M445 502q-17 -74 -69 -123q-51 -50 -127 -50q-77 0 -113 54q-19 32 -19 76q0 24 6 50q17 76 64 123q54 54 130 54q78 0 113 -57q20 -32 20 -77q0 -22 -5 -50zM745 707l-622 -739h-70l623 739h69zM685 163q-16 -75 -68 -122q-53 -52 -129 -52q-79 0 -111 56q-20 32 -20 76
q0 11 1 23t5 27l-1 -1q17 74 64 123q53 53 130 53q80 0 114 -55q10 -17 15.5 -35.5t5.5 -41.5q0 -26 -6 -51zM389 509q6 24 6 42q0 29 -12 47q-18 32 -70 32q-56 0 -90 -36q-16 -15 -27 -39.5t-18 -53.5q-2 -11 -3 -20.5t-1 -17.5q0 -29 11 -47q19 -32 67 -32
q52 0 88.5 35.5t48.5 89.5zM629 171q5 22 5 40q0 37 -20 58.5t-62 21.5q-54 0 -90 -37q-15 -16 -26.5 -39.5t-17.5 -52.5q-5 -22 -5 -37q0 -29 12 -48q18 -32 67 -32q51 0 89 36q36 35 48 89v1z" />
    <glyph glyph-name="ampersand" unicode="&#x26;" horiz-adv-x="567" 
d="M555 0h-68l-52 91q-92 -107 -216 -107q-82 0 -134 51q-42 43 -42 101q0 19 4 38l-1 -1q8 35 34 72.5t60 68.5q19 17 51 37t74 44q-10 17 -19.5 33t-17.5 33q-14 30 -18.5 56.5t0.5 49.5q13 62 66 101q24 20 53.5 29.5t61.5 9.5q59 0 94.5 -31t35.5 -85q0 -8 -0.5 -16
t-2.5 -15q-14 -66 -78 -117v1q-10 -9 -35.5 -26t-63.5 -42q14 -26 26 -47t24 -41t24.5 -41.5t27.5 -47.5q13 26 24 61.5t24 83.5h56q-17 -71 -35.5 -120t-38.5 -82zM462 567q8 38 -14 61t-60 23q-42 0 -76.5 -25t-45.5 -64q-2 -15 1.5 -35t13.5 -43q2 -5 8 -16.5t25 -45.5
q30 19 52.5 33.5t33.5 24.5q26 22 42 43.5t20 43.5zM291 348q-43 -23 -71 -41.5t-42 -29.5q-31 -24 -50 -53t-26 -59q-2 -7 -3 -14.5t-1 -12.5q0 -37 28 -65q34 -33 97 -33q108 0 186 103z" />
    <glyph glyph-name="quotesingle" unicode="'" horiz-adv-x="114" 
d="M174 459h-57l52 248h57z" />
    <glyph glyph-name="parenleft" unicode="(" horiz-adv-x="160" 
d="M75 -166q-20 69 -30 135.5t-10 129.5q0 44 5.5 95t13.5 93q24 110 76 221t130 214h65q-85 -113 -138.5 -223.5t-76.5 -219.5q-21 -98 -21 -187q0 -63 10.5 -126.5t33.5 -131.5h-58z" />
    <glyph glyph-name="parenright" unicode=")" horiz-adv-x="161" 
d="M215 270q-47 -222 -206 -436h-65q170 228 215 444q21 97 21 186q0 123 -46 258h59q21 -69 31 -135t10 -130q0 -48 -4.5 -94.5t-14.5 -92.5z" />
    <glyph glyph-name="asterisk" unicode="*" horiz-adv-x="306" 
d="M423 565l-121 -37q13 -23 27 -50t25 -48l-46 -32l-54 99q-22 -22 -49 -48.5t-47 -45.5l-39 40l95 89q-25 9 -54 19t-49 17l26 52l104 -38q6 29 13.5 64t12.5 61h58l-26 -123q31 9 64.5 19.5t59.5 18.5v-57z" />
    <glyph glyph-name="plus" unicode="+" horiz-adv-x="506" 
d="M545 227h-226q-11 -54 -24 -114t-24 -113h-58l49 227h-223l8 57h226q11 55 24 115t24 113h58l-49 -228h225z" />
    <glyph glyph-name="comma" unicode="," horiz-adv-x="80" 
d="M70 15q-20 -91 -108 -146l11 67q16 13 27 39.5t20 68.5q1 5 1.5 12t2.5 15l3 13q2 11 4.5 25.5t3.5 19.5h59z" />
    <glyph glyph-name="hyphen" unicode="-" horiz-adv-x="255" 
d="M272 242h-200l10 56h201z" />
    <glyph glyph-name="hyphen" unicode="&#x2010;" horiz-adv-x="255" 
d="M272 242h-200l10 56h201z" />
    <glyph glyph-name="period" unicode="." horiz-adv-x="114" 
d="M73 0h-58l27 129h58z" />
    <glyph glyph-name="slash" unicode="/" horiz-adv-x="349" 
d="M511 722l-476 -738h-62l475 738h63z" />
    <glyph glyph-name="zero" unicode="0" horiz-adv-x="572" 
d="M602 333q-30 -141 -101 -229q-91 -115 -225 -115q-69 0 -115.5 30.5t-67.5 89.5q-8 23 -13.5 52t-5.5 61q0 55 14 119q15 67 40.5 126t60.5 104q92 115 227 115q138 0 182 -120q18 -50 18 -113q0 -29 -3 -58.5t-11 -61.5zM547 341q14 65 14 110q0 48 -14 88
q-31 91 -135 91q-53 0 -100 -26t-82 -69q-28 -38 -50.5 -90t-35.5 -112q-7 -30 -10 -58t-3 -51q0 -26 3 -48t11 -42q30 -89 134 -89q52 0 98.5 25t82.5 69q28 38 51.5 90.5t35.5 111.5z" />
    <glyph glyph-name="one" unicode="1" horiz-adv-x="243" 
d="M213 0h-58l124 595q-23 -13 -48 -28t-49.5 -30t-48.5 -28.5t-43 -24.5l11 66l206 125h49z" />
    <glyph glyph-name="two" unicode="2" horiz-adv-x="495" 
d="M479 0h-464q23 116 149 203q27 17 54 35t55 35l54 34t54 35l-1 -1q114 80 130 159q4 17 4 32q0 41 -26 66v-1q-36 33 -102 33q-87 0 -139 -51q-52 -46 -73 -150h-57q25 121 94.5 189t178.5 68q90 0 140 -48v1q21 -20 31 -45.5t10 -55.5q0 -11 -1 -22t-5 -25l1 1
q-22 -100 -144 -188q-20 -14 -41 -26.5t-41 -25.5q-32 -20 -64.5 -41t-64.5 -42q-93 -63 -122 -113h401z" />
    <glyph glyph-name="three" unicode="3" horiz-adv-x="536" 
d="M538 191q-20 -92 -104 -149q-75 -53 -168 -53q-111 0 -169 57q-43 44 -43 110q0 14 1.5 29.5t6.5 32.5q1 5 4 17.5t4 17.5h58l-12 -44q-6 -26 -6 -48q0 -46 30 -76v1q44 -41 130 -41q75 0 134 40q64 43 79 114q4 20 4 40q0 50 -39 73q-38 22 -162 22l10 56q108 0 157 20
v-1q69 29 85 105q3 16 3 27q0 38 -30 62q-38 27 -104 27q-86 0 -144 -48.5t-78 -141.5h-58q26 119 100 182.5t183 63.5q88 0 140 -40q47 -38 47 -99q0 -10 -1 -20t-3 -20q-11 -51 -41.5 -89t-75.5 -58q67 -35 67 -123q0 -12 -1.5 -23.5t-3.5 -22.5z" />
    <glyph glyph-name="four" unicode="4" horiz-adv-x="502" 
d="M516 166h-114q-8 -40 -17.5 -84t-17.5 -82h-58l36 166h-319l8 48l421 461h55l-97 -453h114zM357 222q10 50 18 90.5t16 79.5t16.5 80.5t19.5 92.5q-74 -81 -154.5 -168.5t-160.5 -174.5h245z" />
    <glyph glyph-name="five" unicode="5" horiz-adv-x="510" 
d="M536 227q-23 -107 -101 -172q-78 -66 -183 -66q-96 0 -147 47.5t-51 131.5q0 15 2 33t6 40h58q-10 -49 -10 -70q0 -60 38 -93t107 -33q83 0 145 51q28 26 50 61.5t30 76.5q6 25 6 46q0 25 -7 46t-20 38q-37 49 -117 49q-53 0 -100 -22h1q-50 -25 -89 -75h-60l152 359h359
l-12 -56h-312q-12 -30 -21 -51t-17.5 -40.5t-17.5 -41t-22 -54.5q61 38 143 38q106 0 159 -70q17 -23 27 -52.5t10 -62.5q0 -27 -7 -59z" />
    <glyph glyph-name="six" unicode="6" horiz-adv-x="534" 
d="M545 224q-21 -98 -104 -166q-81 -69 -179 -69q-193 0 -193 205q0 29 3.5 62t11.5 67q14 70 40 131t61 108q94 124 229 124q80 0 133 -50v1q51 -49 46 -150h-55q0 68 -34 105.5t-94 37.5q-116 0 -192 -117q-35 -55 -59 -130q11 11 21 19t24 17q73 48 152 48q99 0 155 -73
q40 -52 40 -118q0 -28 -6 -52zM490 232q2 9 3 19t1 20q0 48 -30 87q-39 52 -113 52q-78 0 -142 -54q-64 -56 -83 -133q-2 -10 -3 -19.5t-1 -20.5q0 -47 30 -86q38 -52 114 -52q77 0 141 54q66 57 82 132z" />
    <glyph glyph-name="seven" unicode="7" horiz-adv-x="516" 
d="M638 622q-174 -143 -269 -279q-55 -77 -91.5 -162t-56.5 -181h-57q36 172 132 326.5t254 292.5h-354l11 56h442z" />
    <glyph glyph-name="eight" unicode="8" horiz-adv-x="548" 
d="M551 193q-21 -102 -108 -157q-38 -23 -82.5 -35t-97.5 -12q-103 0 -163 49q-49 43 -49 114q0 11 1 23t4 26q14 63 54 107.5t98 65.5q-27 17 -42.5 43.5t-15.5 61.5q0 16 3 31q20 91 96 136h-1q62 40 156 40q93 0 142 -42v1q44 -36 44 -99q0 -11 -1 -22t-3 -22
q-14 -60 -63 -101q-11 -9 -23 -16.5t-24 -14.5q80 -34 80 -130q0 -11 -1 -22.5t-5 -25.5zM531 510q3 13 3 30q0 20 -7.5 36t-19.5 27q-38 27 -107 27q-70 0 -123 -28q-26 -17 -43.5 -42.5t-24.5 -57.5q-12 -51 29 -80q41 -26 104 -26q65 0 116 27q60 31 72 87h1zM496 201
q2 10 3 18.5t1 15.5q0 48 -36 74q-41 31 -126 31q-89 0 -144 -32q-32 -17 -53 -48.5t-30 -66.5q-2 -11 -3 -20.5t-1 -16.5q0 -24 9 -43.5t25 -33.5q46 -34 126 -34q43 0 79 9.5t66 26.5q66 40 84 120z" />
    <glyph glyph-name="nine" unicode="9" horiz-adv-x="535" 
d="M572 352q-31 -143 -102 -239q-94 -124 -230 -124q-82 0 -133 48q-27 26 -37.5 63t-7.5 88h55q0 -69 33.5 -106t94.5 -37q114 0 191 117q18 29 32.5 60.5t27.5 70.5q-22 -21 -46 -37q-35 -23 -73.5 -35.5t-77.5 -12.5q-100 0 -155 72q-40 52 -40 119q0 28 6 52
q10 47 37 89.5t66 75.5q40 35 86 52.5t94 17.5q194 0 194 -206q0 -58 -15 -128zM528 452q2 9 3 19t1 20q0 48 -30 87q-39 52 -113 52q-38 0 -73.5 -13t-68.5 -41q-66 -56 -83 -133q-2 -10 -3 -20t-1 -21q0 -46 29 -86q39 -52 114 -52q78 0 142 54q32 29 53 61.5t29 71.5z
" />
    <glyph glyph-name="colon" unicode=":" horiz-adv-x="69" 
d="M157 390h-58l27 129h58zM74 0h-57l27 129h57z" />
    <glyph glyph-name="semicolon" unicode=";" horiz-adv-x="77" 
d="M144 390h-57l27 129h57zM65 15q-20 -91 -108 -146l11 67q30 25 46 108q2 5 2.5 12t2.5 15l3 13q2 11 4.5 25.5t3.5 19.5h59z" />
    <glyph glyph-name="less" unicode="&#x3c;" horiz-adv-x="537" 
d="M498 -19l-458 252l7 46l563 252l-10 -62l-479 -215q96 -53 194 -107t193 -107z" />
    <glyph glyph-name="equal" unicode="=" horiz-adv-x="525" 
d="M572 318h-506l9 57h508zM534 136h-506l8 57h508z" />
    <glyph glyph-name="greater" unicode="&#x3e;" horiz-adv-x="537" 
d="M574 232l-562 -251l9 62l479 214q-94 52 -193 107.5t-193 106.5l10 59l458 -252z" />
    <glyph glyph-name="question" unicode="?" horiz-adv-x="432" 
d="M534 545q-17 -77 -81 -135q-27 -23 -53.5 -45t-53.5 -45q-26 -27 -45 -65.5t-29 -83.5h-57q11 58 34 103t56 80l69 58l1 1q10 8 18.5 16t18.5 16q24 23 41.5 51t24.5 56q2 9 3 16t1 12q0 17 -7 32.5t-18 26.5q-16 12 -41 20t-55 8q-82 0 -137 -53q-51 -49 -45 -152h-55
q-6 125 64 191q75 69 177 69q42 0 74.5 -11t57.5 -31q41 -37 41 -96q0 -8 -1 -17.5t-4 -21.5h1zM236 0h-58l27 129h58z" />
    <glyph glyph-name="at" unicode="@" horiz-adv-x="741" 
d="M778 400q-18 -92 -95 -178q-90 -99 -179 -99q-49 0 -61 39q-25 -19 -56.5 -29t-65.5 -10q-66 0 -99 51q-21 30 -21 72q0 8 1 17t4 20l-1 -1q21 101 104 190q90 96 192 96q36 0 67.5 -14t48.5 -40q12 20 19 36h64q-6 -11 -15 -26t-19 -31t-19 -31.5t-15 -25.5
q-14 -20 -27 -41t-25 -42q-78 -131 -84 -159q-3 -14 13 -14q33 0 67.5 21t68.5 59q29 35 49.5 73t28.5 75q6 31 6 57q0 70 -43 119v-1q-60 66 -171 66q-127 0 -233 -88q-53 -43 -86.5 -98.5t-47.5 -116.5q-5 -22 -7 -42t-2 -38q0 -81 42 -139q32 -42 81 -62t116 -20
q75 0 153 39q78 40 140 109h69q-43 -53 -89.5 -92.5t-92.5 -64.5q-45 -23 -91 -35t-93 -12q-160 0 -238 102q-53 71 -53 172q0 44 9 91q34 148 155 249q126 102 271 102q138 0 211 -83q57 -65 57 -153q0 -32 -8 -69zM579 446q0 2 -0.5 2t-0.5 2q1 2 1.5 2.5t1.5 2.5z
M517 338q16 28 30.5 55.5t30.5 56.5q-8 62 -85 62q-74 0 -147 -81v1q-32 -36 -54.5 -77t-31.5 -80q-3 -14 -3 -23q0 -31 19 -51.5t52 -20.5q27 0 54 12.5t52 34.5q20 20 41.5 48t41.5 63z" />
    <glyph glyph-name="A" unicode="A" horiz-adv-x="625" 
d="M610 0h-60l-42 225h-318q-33 -54 -69 -112.5t-68 -112.5h-66l443 721h51zM498 282q-8 46 -15.5 88t-15 83.5t-15 85t-15.5 91.5q-28 -45 -53.5 -87.5t-51 -84.5t-52 -85.5t-55.5 -90.5h273z" />
    <glyph glyph-name="B" unicode="B" horiz-adv-x="600" 
d="M607 201q-10 -49 -37.5 -88.5t-68.5 -66.5q-35 -22 -80 -34t-94 -12h-304l153 721h307q94 0 139 -48q20 -20 29.5 -44t9.5 -54q0 -23 -7 -48l1 1q-14 -69 -70 -118q-11 -10 -24.5 -18.5t-26.5 -15.5q14 -7 26 -18t22 -23q14 -18 22 -41t8 -49q0 -21 -5 -44zM599 535
q2 11 3 20t1 16q0 39 -23 62q-32 31 -101 31h-256q-14 -67 -28 -129t-28 -131h249q65 0 116 34q26 18 43 42.5t24 54.5zM550 207q5 25 5 36q0 44 -29 70q-20 16 -48.5 25t-66.5 9h-256q-17 -77 -31 -144.5t-30 -145.5h245q80 0 135 37q61 40 76 113z" />
    <glyph glyph-name="C" unicode="C" horiz-adv-x="688" 
d="M725 306q-27 -78 -65 -137.5t-85 -98.5q-104 -86 -235 -86q-74 0 -129.5 30.5t-90.5 86.5q-20 34 -30.5 74.5t-10.5 84.5q0 25 2.5 49t8.5 50q17 74 53.5 143.5t87.5 119.5q118 115 273 115q107 0 179 -64q66 -60 66 -142q0 -9 -1.5 -22.5t-3.5 -30.5h-57q12 101 -45 153
q-57 49 -142 49q-132 0 -230 -98q-46 -45 -77 -104t-46 -127q-11 -49 -11 -86q0 -38 8.5 -70t24.5 -60q54 -94 175 -94q111 0 196 71q40 34 72 83.5t54 110.5h59z" />
    <glyph glyph-name="D" unicode="D" horiz-adv-x="622" 
d="M663 357q-34 -160 -139 -257q-111 -100 -269 -100h-231l152 721h253q157 0 216 -110q15 -29 23 -63t8 -75q0 -57 -13 -116zM606 365q7 31 10.5 57t3.5 49q0 65 -25 112q-43 81 -174 81h-197q-17 -80 -33 -154.5l-32 -149t-32.5 -149.5t-32.5 -154h169q66 0 123 22.5
t104 65.5q44 42 73 97t43 123z" />
    <glyph glyph-name="E" unicode="E" horiz-adv-x="517" 
d="M515 0h-492l152 721h488l-10 -57h-431q-14 -67 -27.5 -129t-27.5 -131h403l-11 -57h-405q-17 -77 -31 -144.5t-30 -145.5h434z" />
    <glyph glyph-name="F" unicode="F" horiz-adv-x="479" 
d="M620 664h-398q-14 -67 -28 -129t-28 -131h359l-11 -57h-360q-17 -85 -36.5 -174t-36.5 -173h-59l153 721h456z" />
    <glyph glyph-name="G" unicode="G" horiz-adv-x="697" 
d="M729 315q-14 -62 -34.5 -107t-45.5 -78t-52.5 -56.5t-55.5 -42.5q-88 -47 -190 -47q-78 0 -136.5 30.5t-93.5 84.5q-20 34 -31 75t-11 86q0 51 12 105q35 157 141 259q116 113 271 113q116 0 188 -67q71 -69 62 -200h-57q3 100 -50.5 155t-146.5 55q-131 0 -229 -95
q-94 -91 -122 -228q-12 -51 -12 -93q0 -76 35 -132q54 -91 187 -91q62 0 113.5 19.5t93.5 60.5q36 35 62 79t40 100h-262l11 57h319z" />
    <glyph glyph-name="H" unicode="H" horiz-adv-x="619" 
d="M575 0h-59l73 347h-434q-17 -85 -36.5 -174t-36.5 -173h-59l153 721h59l-69 -317h435q17 78 34.5 159t33.5 158h58z" />
    <glyph glyph-name="I" unicode="I" horiz-adv-x="114" 
d="M83 0h-59l153 721h59z" />
    <glyph glyph-name="J" unicode="J" horiz-adv-x="424" 
d="M473 664h-286l10 57h346l-113 -528q-23 -103 -84 -156t-161 -53q-57 0 -95 20.5t-55 56.5q-11 27 -11 61q0 48 22 127h54q-20 -82 -20 -121q0 -24 6 -40q20 -47 103 -47q84 0 128 43q41 42 60 131z" />
    <glyph glyph-name="K" unicode="K" horiz-adv-x="629" 
d="M619 0h-72l-250 372q-42 -31 -80.5 -60.5t-81.5 -61.5q-13 -60 -26.5 -125.5t-25.5 -124.5h-59l152 721h59l-82 -388q129 96 260.5 194t260.5 194h92l-420 -315z" />
    <glyph glyph-name="L" unicode="L" horiz-adv-x="476" 
d="M474 0h-454l153 721h58l-141 -664h395z" />
    <glyph glyph-name="M" unicode="M" horiz-adv-x="750" 
d="M702 0h-59l121 582q-94 -146 -188.5 -292.5t-187.5 -289.5h-46l-135 588q-31 -146 -61.5 -295.5t-61.5 -292.5h-59l153 721h62l141 -629q102 156 204 314.5t204 314.5h65z" />
    <glyph glyph-name="N" unicode="N" horiz-adv-x="619" 
d="M575 0h-57l-305 620q-32 -154 -65.5 -311t-65.5 -309h-59l153 721h57l304 -621q32 154 66 311.5t66 309.5h58z" />
    <glyph glyph-name="O" unicode="O" horiz-adv-x="714" 
d="M752 357q-33 -155 -137 -259q-116 -114 -269 -114q-157 0 -227 117q-39 70 -39 159q0 26 2.5 52t8.5 53q35 157 137 259q116 113 269 113q156 0 227 -116q20 -35 30 -74.5t10 -84.5q0 -51 -12 -105zM695 365q6 26 8.5 49t2.5 45q0 37 -8 69t-22 60q-27 45 -72.5 68.5
t-109.5 23.5q-131 0 -229 -95q-44 -45 -73.5 -101.5t-43.5 -126.5q-6 -26 -8.5 -49t-2.5 -45q0 -74 31 -129q52 -93 182 -93q132 0 228 96q89 90 117 228z" />
    <glyph glyph-name="P" unicode="P" horiz-adv-x="548" 
d="M650 512q-25 -121 -137 -171h1q-62 -32 -132 -30h-236q-16 -75 -32.5 -156t-32.5 -155h-59l153 721h290q102 0 152 -51q38 -41 38 -102q0 -14 -1.5 -28t-3.5 -28zM593 519q3 14 4 25t1 21q0 99 -137 99h-239q-8 -40 -16 -76t-15.5 -71.5t-15.5 -72t-17 -76.5h231
q75 0 131 38h-1q57 41 74 113z" />
    <glyph glyph-name="Q" unicode="Q" horiz-adv-x="702" 
d="M457 -114q-154 0 -147 100q-67 4 -116.5 33.5t-79.5 81.5q-20 34 -30.5 75.5t-10.5 84.5q0 26 3 52t8 52q35 156 138 259q115 113 269 113q158 0 226 -116q40 -70 40 -159q0 -51 -12 -105q-19 -91 -60.5 -161.5t-104.5 -123.5l-16 -12q-43 -35 -93.5 -53t-101.5 -22
q-1 -23 22.5 -33t71.5 -10q4 0 14 0.5t21 1t21 1.5t15 1l-29 -58q-10 -1 -24.5 -1.5t-23.5 -0.5zM689 365q10 50 10 94q0 73 -30 129q-26 45 -72 68.5t-110 23.5q-131 0 -228 -95q-45 -45 -74.5 -101.5t-43.5 -126.5q-6 -26 -8 -48.5t-2 -44.5q0 -75 31 -130q52 -93 181 -93
q51 0 97.5 15.5t87.5 44.5q3 3 7 6.5t8 6.5q57 44 93 107t53 144z" />
    <glyph glyph-name="R" unicode="R" horiz-adv-x="580" 
d="M477 0l-71 320h-258q-16 -78 -33.5 -160t-33.5 -160h-59l153 721h293q193 0 193 -144q0 -27 -6 -54q-30 -146 -188 -193q17 -79 36.5 -165.5t36.5 -164.5h-63zM600 533q4 19 4 39q0 92 -135 92h-247q-8 -38 -15.5 -73t-15 -69.5t-15 -69.5t-15.5 -74h229q77 0 134 39v-1
q60 43 75 116z" />
    <glyph glyph-name="S" unicode="S" horiz-adv-x="584" 
d="M591 183q-10 -48 -40 -87t-75 -66q-39 -22 -86 -34t-95 -12q-130 0 -194 64q-46 51 -46 130q0 19 2.5 40t7.5 46h59q-5 -29 -8.5 -51t-3.5 -34q0 -138 187 -138q41 0 78 8.5t69 27.5v-1q73 39 88 115q4 17 4 31q0 66 -80 94h2q-54 14 -108.5 28.5t-108.5 28.5
q-102 39 -102 132q0 19 5 41q11 48 39.5 86.5t72.5 63.5q34 17 81 29t94 12q219 0 219 -175q0 -13 -2 -31t-6 -39h-57q3 23 5.5 40.5t2.5 26.5q0 121 -166 121q-83 0 -143 -32q-66 -36 -83 -110q-2 -7 -3 -14t-1 -11q0 -61 82 -90h-1q54 -14 110 -29.5t109 -29.5
q97 -39 97 -138q0 -20 -5 -43z" />
    <glyph glyph-name="T" unicode="T" horiz-adv-x="538" 
d="M676 664h-243q-35 -163 -71 -332t-71 -332h-58l141 664h-243l11 57h546z" />
    <glyph glyph-name="U" unicode="U" horiz-adv-x="595" 
d="M613 270q-14 -66 -41.5 -118.5t-66.5 -88.5q-82 -79 -217 -79t-189 82q-15 24 -23 53.5t-8 65.5q0 41 11 93l93 443h59l-95 -451q-11 -49 -11 -82q0 -147 167 -147q103 0 169.5 63.5t94.5 173.5q11 52 23 108.5t24 113.5t24 113t23 108h59z" />
    <glyph glyph-name="V" unicode="V" horiz-adv-x="600" 
d="M746 721l-425 -721h-47l-127 721h57l112 -622q91 154 184 311.5t184 310.5h62z" />
    <glyph glyph-name="W" unicode="W" horiz-adv-x="940" 
d="M1059 721l-360 -721h-54l-58 609q-77 -152 -156 -305t-154 -304h-55l-58 721h59l49 -608q78 152 155.5 304t154.5 304h56l56 -608q75 152 152 305t151 303h62z" />
    <glyph glyph-name="X" unicode="X" horiz-adv-x="631" 
d="M612 0h-67l-168 322q-76 -80 -154.5 -161.5t-153.5 -160.5h-76l355 373q-21 40 -44.5 85t-47.5 90t-47 89t-44 84h67l160 -303q72 75 145.5 151.5t145.5 151.5h75l-339 -353z" />
    <glyph glyph-name="Y" unicode="Y" horiz-adv-x="618" 
d="M776 721l-383 -422q-15 -72 -31 -149.5t-31 -149.5h-59l64 305q-23 49 -48.5 102t-51.5 106.5t-51.5 106t-48.5 101.5h67l173 -360q78 88 163 180.5t163 179.5h74z" />
    <glyph glyph-name="Z" unicode="Z" horiz-adv-x="536" 
d="M529 0h-536l7 52l583 612h-424l10 57h505l-11 -53l-582 -611h460z" />
    <glyph glyph-name="bracketleft" unicode="[" horiz-adv-x="153" 
d="M127 -166h-144l189 888h143l-11 -55h-87q-42 -200 -82 -389t-82 -388h86z" />
    <glyph glyph-name="backslash" unicode="\" horiz-adv-x="349" 
d="M352 -16h-57l-164 738h57z" />
    <glyph glyph-name="bracketright" unicode="]" horiz-adv-x="156" 
d="M89 -166h-142l11 56h86q43 199 82.5 388t81.5 389h-85l10 55h144z" />
    <glyph glyph-name="asciicircum" unicode="^" horiz-adv-x="510" 
d="M541 213h-58l-112 382q-67 -94 -138 -191.5t-137 -190.5h-64l332 462h42z" />
    <glyph glyph-name="underscore" unicode="_" horiz-adv-x="581" 
d="M502 -117h-504l17 84h503z" />
    <glyph glyph-name="grave" unicode="`" horiz-adv-x="161" 
d="M304 551h-58l-129 171h75z" />
    <glyph glyph-name="a" unicode="a" 
d="M443 74l-2 -2q-81 -83 -190 -83q-54 0 -95 22.5t-65 64.5q-28 50 -28 112q0 20 2 38.5t6 37.5q11 53 36 99.5t62 84.5q84 82 189 82q60 0 104.5 -14t87.5 -31q5 -2 17 -6.5t18 -6.5l-100 -472h-58zM520 434q-35 17 -75 29t-90 11q-85 0 -149 -66q-60 -60 -79 -152
q-3 -17 -5 -32.5t-2 -29.5q0 -23 5.5 -46t14.5 -41q34 -62 115 -62q84 0 150 66q59 62 78 153z" />
    <glyph glyph-name="b" unicode="b" horiz-adv-x="496" 
d="M532 255q-22 -107 -91 -182v1q-76 -85 -184 -85q-78 -1 -133 15.5t-87 51.5l137 651h58l-52 -254q75 77 184 77q54 0 92 -23t61 -67q11 -23 17 -51.5t6 -57.5q0 -19 -1.5 -38t-6.5 -38zM477 263q7 35 7 66q0 23 -3.5 43.5t-12.5 38.5v-1q-30 64 -108 64q-87 0 -150 -65
q-54 -57 -74 -154q-10 -47 -19.5 -88.5t-19.5 -88.5q26 -18 62 -26t73 -8q7 0 14 0.5t14 0.5q84 0 143 66q54 59 74 152z" />
    <glyph glyph-name="c" unicode="c" horiz-adv-x="491" 
d="M503 201q-16 -55 -42 -95t-60 -66q-69 -51 -155 -51q-109 0 -157 82q-30 48 -30 113q0 32 8 69q11 56 37.5 106t61.5 87q42 41 91.5 62.5t106.5 21.5q40 0 72.5 -13.5t54 -39t31 -61.5t5.5 -80h-55q4 65 -26 101.5t-86 36.5q-92 0 -158 -68q-59 -62 -80 -161
q-6 -32 -6 -57q0 -51 20 -85q34 -58 114 -58q65 0 119 39q55 39 76 117h58z" />
    <glyph glyph-name="d" unicode="d" horiz-adv-x="497" 
d="M451 0h-57l13 71q-10 -10 -22.5 -20.5t-24.5 -18.5q-64 -43 -139 -43q-110 0 -154 89q-11 23 -17 50t-6 55q0 41 9 80q11 52 33.5 98.5t57.5 83.5v-1q78 86 184 86q115 0 160 -83q14 64 28 131.5t27 128.5h58zM449 263q9 39 9 69q0 46 -18 81q-31 61 -116 61
q-81 0 -142 -67q-56 -63 -73 -152q-9 -39 -9 -68q0 -47 16 -79q14 -32 42 -47.5t67 -15.5q83 0 146 67q30 32 49 69t29 82z" />
    <glyph glyph-name="e" unicode="e" horiz-adv-x="505" 
d="M122 238q-2 -17 -3.5 -31.5t-1.5 -27.5q0 -46 15 -76q14 -28 43 -43t71 -15q70 0 125.5 42t82.5 117h57q-19 -57 -45.5 -97t-61.5 -66q-70 -52 -160 -52q-118 0 -162 85q-22 44 -22 101q0 21 2.5 43t7.5 46q23 104 95 181q83 85 186 85q59 0 98 -22t62 -66t23 -104
q0 -41 -13 -100h-399zM475 293q2 12 3.5 23.5t1.5 21.5q0 46 -20 80q-32 56 -111 56t-141 -62q-25 -24 -43.5 -53.5t-29.5 -65.5h340z" />
    <glyph glyph-name="f" unicode="f" horiz-adv-x="206" 
d="M352 643q-23 5 -36.5 6.5t-22.5 1.5q-30 0 -45.5 -12.5t-21.5 -41.5q-5 -24 -9 -39t-9 -39h103l-10 -56h-103q-24 -112 -49.5 -231.5t-49.5 -231.5h-57l98 463h-45l10 56h46q4 17 8.5 36t7.5 36v-1q7 55 34 83q37 34 100 34q5 0 61 -6z" />
    <glyph glyph-name="g" unicode="g" horiz-adv-x="503" 
d="M464 31q-22 -103 -88.5 -155.5t-169.5 -52.5q-87 0 -132 41q-40 35 -40 95q0 8 2 22.5t5 30.5h56q-6 -35 -6 -48q0 -38 24 -59q30 -27 94 -27q81 0 130.5 42.5t68.5 117.5q3 16 4 21t2 8t2 8.5t4 23.5q-10 -10 -20.5 -17.5t-23.5 -15.5q-67 -40 -137 -40q-106 0 -151 79
q-24 45 -24 104q0 17 2 34.5t5 35.5q11 53 34 96.5t58 78.5q76 76 182 76q61 -2 114.5 -13t101.5 -33zM494 451q-27 13 -65 18t-87 5q-82 0 -142 -60q-55 -57 -73 -142q-4 -16 -5 -31t-1 -28q0 -46 17 -77q29 -54 105 -54q81 0 141 57q57 56 75 140z" />
    <glyph glyph-name="h" unicode="h" horiz-adv-x="443" 
d="M171 700h58l-49 -239q31 30 71.5 47t90.5 17q72 0 115 -36.5t43 -105.5q0 -28 -6 -52q-17 -78 -35 -166t-34 -165h-58l71 336q5 28 5 42q0 49 -30 70.5t-75 21.5q-37 0 -69.5 -15.5t-58 -41.5t-43 -59.5t-26.5 -68.5q-7 -33 -15 -69.5t-15.5 -73l-15 -73t-14.5 -69.5h-57
z" />
    <glyph glyph-name="i" unicode="i" horiz-adv-x="112" 
d="M196 575h-58l28 132h58zM74 0h-57l109 519h58z" />
    <glyph glyph-name="j" unicode="j" horiz-adv-x="161" 
d="M257 575h-58l28 132h58zM122 -56q-7 -31 -21 -56t-34 -36q-16 -9 -46.5 -13.5t-73.5 -5.5l11 57q70 0 82 8q17 11 28 60q14 67 29 138t30.5 143t30.5 143t29 137h58z" />
    <glyph glyph-name="k" unicode="k" horiz-adv-x="463" 
d="M471 0h-67l-159 276q-32 -23 -61 -43t-61 -43q-9 -45 -20 -95.5t-20 -94.5h-58l150 707h57l-94 -441q86 62 178 127t177 126h90l-291 -208z" />
    <glyph glyph-name="l" unicode="l" horiz-adv-x="173" 
d="M98 109q-11 -53 31 -53q7 0 22 1.5t40 3.5l-10 -57q-21 -2 -36 -3t-25 -1q-83 0 -83 78q0 9 1 17t3 16l126 596h58z" />
    <glyph glyph-name="m" unicode="m" horiz-adv-x="747" 
d="M137 514h58l-10 -52q30 29 67.5 46t75.5 17q51 1 84.5 -19t46.5 -60q30 35 74 57t91 22q39 0 65.5 -9t43 -25.5t24 -40.5t7.5 -53q0 -17 -2 -34t-5 -34l-69 -329h-58l71 336q3 17 5 32t2 27q0 35 -19 55t-69 20q-31 0 -58.5 -12.5t-49.5 -33.5t-37 -48.5t-21 -57.5
l-67 -318h-58l70 329q8 37 8 64q0 33 -17 55t-66 22q-31 0 -59.5 -15.5t-52 -41.5t-40.5 -59.5t-26 -68.5q-7 -33 -15 -69.5t-15.5 -73l-15 -73t-14.5 -69.5h-57z" />
    <glyph glyph-name="n" unicode="n" horiz-adv-x="467" 
d="M425 0h-58l72 339q2 12 3.5 22.5t1.5 19.5q0 44 -27 68.5t-78 24.5q-75 0 -130 -55q-25 -26 -42 -59.5t-25 -71.5q-14 -67 -30.5 -144t-30.5 -144h-57l109 519h57l-9 -55q32 31 74.5 48.5t87.5 17.5q75 0 116.5 -39t41.5 -107q0 -26 -6 -50z" />
    <glyph glyph-name="o" unicode="o" horiz-adv-x="520" 
d="M538 256q-24 -107 -98 -184q-81 -83 -190 -83q-54 0 -94.5 22.5t-65.5 64.5q-13 24 -20.5 53t-7.5 59q0 38 9 76q11 53 35.5 99.5t61.5 84.5q84 82 190 82q111 0 159 -87q28 -50 28 -114q0 -18 -2 -36.5t-5 -36.5zM482 264q7 32 7 61q0 24 -4.5 46t-15.5 41l1 -1
q-35 63 -116 63q-85 0 -149 -66q-60 -60 -79 -152q-3 -17 -5 -32.5t-2 -29.5q0 -23 5.5 -46t14.5 -41q36 -62 116 -62q83 0 149 66q59 62 78 153z" />
    <glyph glyph-name="p" unicode="p" horiz-adv-x="497" 
d="M532 257q-11 -53 -33.5 -98.5t-57.5 -83.5v1q-81 -87 -185 -87q-56 0 -96.5 22.5t-63.5 63.5q-13 -60 -26 -122t-25 -119h-58l141 654q99 43 202 43h16.5t17.5 -1q108 0 153 -89q11 -23 17 -50t6 -56q0 -20 -2 -39t-6 -39zM476 265q8 40 8 66q0 48 -17 81v-1
q-28 63 -110 63q-7 1 -13.5 1h-13.5q-33 0 -74 -6.5t-79 -20.5q-11 -49 -21 -95.5t-21 -95.5q-4 -20 -6 -37.5t-2 -31.5q0 -49 17 -82q30 -61 116 -61q83 0 142 68q55 63 74 152z" />
    <glyph glyph-name="q" unicode="q" horiz-adv-x="498" 
d="M415 -166h-57l49 235q-37 -36 -85.5 -58t-100.5 -22q-108 0 -154 91q-12 23 -17 50t-5 56q0 20 1.5 39.5t6.5 39.5q24 107 90 181v-1q78 85 185 85q55 0 96 -22.5t64 -64.5q4 20 8 39.5t7 36.5h58zM449 265q4 17 6 32t2 29q0 23 -5.5 45.5t-14.5 40.5q-34 62 -113 62
q-83 0 -143 -66q-51 -58 -72 -151q-9 -38 -9 -68q0 -22 4 -42.5t12 -37.5q30 -64 109 -64q86 0 149 65q55 58 75 155z" />
    <glyph glyph-name="r" unicode="r" horiz-adv-x="264" 
d="M79 0h-58l109 514h58l-12 -56q34 31 84 50t118 17l-10 -56q-48 3 -86.5 -12t-67.5 -41.5t-48 -61t-28 -69.5z" />
    <glyph glyph-name="s" unicode="s" horiz-adv-x="449" 
d="M444 136q-17 -71 -86 -113q-59 -34 -133 -34q-181 0 -181 142q0 14 2.5 32.5t6.5 38.5h58q-5 -23 -7.5 -39.5t-2.5 -25.5q0 -92 128 -92q27 0 52 5.5t47 18.5h1q48 25 60 74q10 54 -52 78h1q-20 5 -41 11.5t-42 11.5q-16 5 -33 9t-33 9q-78 31 -78 102q0 16 3 31
q14 69 82 105h-1q55 30 124 30q163 0 163 -127q0 -10 -2 -24.5t-7 -38.5h-56q5 21 7.5 36.5t2.5 21.5q0 76 -112 76q-52 0 -91 -20q-45 -24 -55 -67q-12 -52 52 -76h-1q38 -11 79.5 -22.5t78.5 -22.5q85 -34 67 -129z" />
    <glyph glyph-name="t" unicode="t" horiz-adv-x="207" 
d="M313 463h-107q-24 -112 -49.5 -231.5t-49.5 -231.5h-57l98 463h-58l10 56h59q5 26 11 51t11 50l65 36l-29 -137h107z" />
    <glyph glyph-name="u" unicode="u" horiz-adv-x="468" 
d="M423 0h-56l10 56q-33 -30 -76.5 -48.5t-88.5 -18.5q-75 0 -116 39t-41 107q0 26 6 50q8 39 17 81.5t18 86t18.5 86t17.5 80.5h57l-72 -339v1q-2 -12 -3.5 -22t-1.5 -19q0 -45 26.5 -70t77.5 -25q75 0 130 55q52 53 68 131l61 288h58z" />
    <glyph glyph-name="v" unicode="v" horiz-adv-x="459" 
d="M563 519l-305 -519h-49l-102 519h61l82 -428q62 106 125.5 214t124.5 214h63z" />
    <glyph glyph-name="w" unicode="w" horiz-adv-x="752" 
d="M825 519l-274 -519h-52l-47 420q-56 -105 -112.5 -211t-112.5 -209h-53l-51 519h56l42 -417q55 104 111.5 209t110.5 208h56l46 -419q55 106 110.5 211t109.5 208h60z" />
    <glyph glyph-name="x" unicode="x" horiz-adv-x="493" 
d="M475 0h-66l-125 225q-55 -57 -108.5 -112.5t-108.5 -112.5h-74l265 271q-15 28 -32.5 60t-34.5 64.5t-33.5 64t-31.5 59.5h65l108 -205q50 51 100 102.5t99 102.5h73l-245 -253z" />
    <glyph glyph-name="y" unicode="y" horiz-adv-x="457" 
d="M562 519l-360 -608q-30 -51 -70 -66q-31 -11 -109 -11l11 56q67 0 90 13q22 13 40 45q5 8 9.5 16t9.5 17q8 12 13 21t13 23q-25 119 -51.5 247t-51.5 247h60l85 -423q62 105 125 212.5t124 210.5h62z" />
    <glyph glyph-name="z" unicode="z" horiz-adv-x="410" 
d="M400 0h-406l9 50l402 413h-288l10 56h366l-9 -50l-403 -413h330z" />
    <glyph glyph-name="braceleft" unicode="{" horiz-adv-x="204" 
d="M174 -166h-63q-52 0 -65 46q-9 31 2 89q1 4 3 10.5t4 14.5v-1q2 8 4 17t5 20q2 5 2.5 10t2.5 10q2 11 4.5 20t4.5 21q10 44 10 79q0 62 -42 95l8 42q42 7 64 46v-1q17 32 32 102q3 18 9 48q2 7 3 12.5t1 10.5q1 7 3 13.5t4 14.5l-1 -1q8 37 18 66t21 49q16 26 37 40.5
t48 14.5h68l-10 -55h-60q-37 0 -60 -103q-1 -4 -1.5 -9.5t-1.5 -11.5q-2 -6 -3.5 -14t-3.5 -17q-3 -15 -6 -28l1 1t1 0t-1.5 -7.5t-5.5 -21.5l1 1q-15 -69 -37 -113.5t-54 -66.5q25 -31 25 -91q0 -23 -2.5 -45.5t-7.5 -46.5q-2 -6 -4 -14l-11 -45q-2 -8 -3.5 -14.5
t-3.5 -13.5q-2 -8 -2.5 -14t-2.5 -11l1 1q-8 -38 -8 -57q0 -36 17 -36h68z" />
    <glyph glyph-name="bar" unicode="|" horiz-adv-x="116" 
d="M72 -16h-57l156 738h57z" />
    <glyph glyph-name="braceright" unicode="}" horiz-adv-x="204" 
d="M257 250q-45 -9 -64 -46q-17 -32 -32 -102q0 -2 -0.5 -4t-1.5 -5l1 2q-2 -8 -4 -18t-4 -24q-2 -8 -3.5 -15.5t-3.5 -12.5l1 1q-2 -6 -1.5 -9t-3.5 -15v2q-15 -74 -38 -114q-31 -56 -86 -56h-68l11 56h60q22 0 35 25q12 21 24 79q3 12 6 26q1 9 2 14t2 11q3 15 6 27l-1 -1
t-1 0t1.5 7.5t6.5 21.5l-1 -1q29 136 92 181q-25 33 -25 90q0 22 2.5 45.5t8.5 49.5q1 4 1.5 9t2.5 11l-1 -1q1 3 3 12.5t7 24.5q3 12 5 22t4 18l-1 -2q1 4 2.5 8.5l2.5 7.5l-1 -1q3 18 5 32t2 25q0 36 -17 36h-67l10 55h62q55 0 68 -46q4 -16 3.5 -38t-8.5 -52
q-2 -9 -5.5 -24.5t-9.5 -36.5q-2 -12 -4 -20q-3 -10 -5.5 -18.5t-4.5 -23.5q-9 -44 -9 -77q0 -63 42 -94z" />
    <glyph glyph-name="asciitilde" unicode="~" horiz-adv-x="504" 
d="M543 305q-90 -109 -150 -109q-18 0 -42.5 8.5t-56.5 25.5q-53 31 -91 31q-44 0 -99 -72l-53 18q81 110 156 110q21 0 50 -9t61 -26q30 -14 50 -22t30 -8q29 0 89 70z" />
    <glyph glyph-name="Adieresis" unicode="&#xc4;" horiz-adv-x="619" 
d="M556 735h-58l25 116h58zM408 735h-58l26 116h57zM607 0h-60l-42 225h-318q-33 -54 -69 -112.5t-68 -112.5h-66l443 721h51zM495 282q-8 46 -15.5 88t-15 83.5t-15 85t-15.5 91.5q-28 -45 -53.5 -87.5t-51 -84.5t-52 -85.5t-55.5 -90.5h273z" />
    <glyph glyph-name="Aring" unicode="&#xc5;" horiz-adv-x="629" 
d="M576 804q-5 -20 -17 -38t-28 -31.5t-35.5 -21.5t-39.5 -8q-22 0 -39.5 8.5t-28.5 23t-15.5 34t0.5 41.5h-1q9 38 43 69q18 16 37.5 23t38.5 7q22 0 39.5 -8.5t29.5 -23.5t16.5 -34.5t0.5 -40.5h-1zM612 0h-60l-42 225h-318q-33 -54 -69 -112.5t-68 -112.5h-66l443 721h51
zM520 812q3 17 -6.5 30t-26.5 13q-20 0 -37 -15.5t-21 -35.5q-4 -17 5 -29.5t26 -12.5q20 0 37.5 15t22.5 35zM500 282q-8 46 -15.5 88t-15 83.5t-15 85t-15.5 91.5q-28 -45 -53.5 -87.5t-51 -84.5t-52 -85.5t-55.5 -90.5h273z" />
    <glyph glyph-name="Ccedilla" unicode="&#xc7;" horiz-adv-x="674" 
d="M717 306q-28 -78 -65.5 -137t-83.5 -98q-43 -35 -93.5 -57.5t-104.5 -27.5q53 -16 43 -76q-11 -41 -42.5 -63t-84.5 -22q-32 0 -104 24l36 53q51 -20 72 -20q58 0 66 36q2 7 -6.5 11t-19.5 4q-26 0 -55 -16l-39 30l41 41q-60 8 -100.5 37.5t-67.5 80.5q-37 67 -37 154
q0 22 2 46.5t9 52.5h-1q17 78 52 144t89 119q118 115 273 115q107 0 179 -64q66 -59 66 -142q0 -9 -1 -22.5t-4 -30.5h-57q12 101 -45 153q-57 49 -142 49q-132 0 -230 -98q-46 -45 -77 -104t-46 -127q-11 -49 -11 -86q0 -73 34 -130q54 -94 174 -94q111 0 196 71
q40 34 72.5 83.5t53.5 110.5h59z" />
    <glyph glyph-name="Eacute" unicode="&#xc9;" horiz-adv-x="506" 
d="M578 908l-214 -176h-71l197 176h88zM504 0h-492l152 721h488l-10 -57h-430q-14 -67 -28 -129t-28 -131h403l-11 -57h-405q-16 -77 -30.5 -144.5t-30.5 -145.5h434z" />
    <glyph glyph-name="Ntilde" unicode="&#xd1;" horiz-adv-x="602" 
d="M617 857q-10 -48 -38 -78.5t-66 -30.5q-33 0 -70 32q-23 23 -38 23q-13 0 -25.5 -18t-16.5 -38h-58q12 54 40 82h-1q30 31 65 31q31 0 68 -33q28 -23 40 -23q14 0 26 16.5t15 36.5h59zM567 0h-57l-305 620q-32 -154 -65.5 -311t-65.5 -309h-58l152 721h57l304 -621
q32 154 66 311.5t66 309.5h59z" />
    <glyph glyph-name="Odieresis" unicode="&#xd6;" horiz-adv-x="704" 
d="M599 735h-58l25 116h58zM451 735h-58l26 116h57zM747 357q-33 -155 -137 -259q-116 -114 -269 -114q-157 0 -226 117q-40 70 -40 159q0 26 3 52t8 53q35 156 138 259q115 113 269 113q157 0 226 -116q40 -70 40 -159q0 -51 -12 -105zM691 365q10 50 10 94q0 73 -30 129
q-26 45 -72 68.5t-110 23.5q-131 0 -228 -95q-45 -45 -74.5 -101.5t-43.5 -126.5q-6 -26 -8 -48.5t-2 -44.5q0 -75 31 -130q52 -93 181 -93q132 0 228 96q45 45 74.5 101.5t43.5 126.5z" />
    <glyph glyph-name="Udieresis" unicode="&#xdc;" horiz-adv-x="582" 
d="M540 735h-58l26 116h58zM392 735h-58l26 116h58zM607 270q-14 -66 -41.5 -118.5t-66.5 -88.5q-82 -79 -217 -79t-189 82q-15 24 -23 53.5t-8 65.5q0 41 11 93l94 443h58l-95 -451q-11 -49 -11 -82q0 -147 167 -147q103 0 169.5 63.5t94.5 173.5q11 52 23 108.5t24 113.5
t24 113t23 108h59z" />
    <glyph glyph-name="ccedilla" unicode="&#xe7;" horiz-adv-x="476" 
d="M494 201q-16 -53 -42 -93.5t-58 -65.5q-29 -21 -67.5 -35.5t-74.5 -17.5q36 -4 51.5 -24t7.5 -53q-10 -40 -41 -62t-83 -22q-15 0 -40.5 6.5t-60.5 17.5l34 52q51 -20 71 -20q57 0 65 35q2 8 -6 11.5t-19 3.5q-26 0 -54 -16l-38 30l45 46q-73 19 -107 81q-26 49 -26 108
q0 17 1.5 35t5.5 35q11 56 38 106t61 87q42 41 91.5 62.5t106.5 21.5q41 0 73.5 -13.5t54 -39t31 -61.5t4.5 -80h-54q3 65 -26.5 101.5t-86.5 36.5q-92 0 -158 -68q-58 -61 -79 -161q-7 -29 -7 -57q0 -49 21 -85q33 -58 113 -58q64 0 120 39q55 39 76 117h57z" />
    <glyph glyph-name="eacute" unicode="&#xe9;" horiz-adv-x="486" 
d="M528 702l-210 -172h-70l193 172h87zM111 238q-6 -33 -6 -59q0 -22 4 -41.5t11 -34.5q31 -58 114 -58q70 0 125.5 42t82.5 117h57q-35 -110 -108 -163q-68 -52 -158 -52q-60 0 -100.5 21.5t-62.5 63.5q-21 42 -21 101q0 43 10 89q23 106 95 181h-1q82 85 186 85
q59 0 98.5 -22t62.5 -66q22 -43 22 -104q0 -20 -2.5 -44.5t-10.5 -55.5h-398zM464 293q2 12 3 23.5t1 21.5q0 48 -19 80q-32 56 -111 56q-80 0 -142 -62q-49 -48 -73 -119h341z" />
    <glyph glyph-name="egrave" unicode="&#xe8;" horiz-adv-x="486" 
d="M433 530h-57l-129 172h75zM115 238q-6 -33 -6 -59q0 -22 4 -41.5t11 -34.5q31 -58 114 -58q70 0 125.5 42t82.5 117h57q-18 -57 -45.5 -97t-62.5 -66q-68 -52 -159 -52q-60 0 -100 21.5t-62 63.5q-21 42 -21 101q0 43 10 89q23 105 94 181h-1q82 85 187 85q59 0 98.5 -22
t62.5 -66q22 -43 22 -104q0 -41 -13 -100h-398zM468 293q2 12 3 23.5t1 21.5q0 48 -19 80q-33 56 -112 56t-141 -62q-49 -48 -73 -119h341z" />
    <glyph glyph-name="ecircumflex" unicode="&#xea;" horiz-adv-x="491" 
d="M498 535h-61l-65 104l-53 -53t-52 -51h-71l170 167h32zM116 238q-6 -33 -6 -59q0 -22 4 -41.5t11 -34.5q14 -28 43 -43t71 -15q70 0 125.5 42t82.5 117h57q-18 -57 -45.5 -97t-62.5 -66q-68 -52 -159 -52q-60 0 -100 21.5t-62 63.5q-22 44 -22 101q0 21 3 43t8 46
q23 105 94 181h-1q82 85 187 85q59 0 98.5 -22t62.5 -66q22 -43 22 -104q0 -41 -13 -100h-398zM468 293q2 12 3.5 23.5t1.5 21.5q0 48 -19 80q-33 56 -112 56t-141 -62q-49 -48 -73 -119h340z" />
    <glyph glyph-name="edieresis" unicode="&#xeb;" horiz-adv-x="493" 
d="M452 533h-57l22 113h58zM307 533h-57l23 113h57zM117 238q-6 -33 -6 -59q0 -22 4 -41.5t11 -34.5q14 -28 43 -43t71 -15q70 0 125.5 42t82.5 117h57q-18 -57 -45.5 -97t-62.5 -66q-68 -52 -159 -52q-60 0 -100 21.5t-62 63.5q-22 44 -22 101q0 21 3 43t8 46
q23 105 94 181h-1q82 85 187 85q59 0 98.5 -22t62.5 -66q22 -43 22 -104q0 -41 -13 -100h-398zM469 293q2 12 3.5 23.5t1.5 21.5q0 48 -19 80q-33 56 -112 56t-141 -62q-49 -48 -73 -119h340z" />
    <glyph glyph-name="iacute" unicode="&#xed;" horiz-adv-x="170" 
d="M358 702l-210 -172h-69l193 172h86zM91 0h-58l110 519h57z" />
    <glyph glyph-name="igrave" unicode="&#xec;" horiz-adv-x="164" 
d="M297 530h-57l-128 172h74zM128 0h-57l109 519h58z" />
    <glyph glyph-name="icircumflex" unicode="&#xee;" horiz-adv-x="253" 
d="M384 535h-62l-65 104l-53 -53l-51 -51h-72l171 167h31zM151 0h-58l110 519h57z" />
    <glyph glyph-name="idieresis" unicode="&#xef;" horiz-adv-x="192" 
d="M307 533h-56l22 113h57zM162 533h-56l22 113h58zM121 0h-57l109 519h58z" />
    <glyph glyph-name="ntilde" unicode="&#xf1;" horiz-adv-x="452" 
d="M496 653q-10 -48 -37 -78t-65 -30q-32 0 -67 32q-28 23 -39 23q-13 0 -25.5 -18t-17.5 -38h-55q12 53 40 81h-1q28 30 63 30q27 0 67 -31q14 -11 24 -17t15 -6q14 0 25.5 16t14.5 36h58zM417 0h-57l71 339q6 24 6 42q0 44 -27 68.5t-78 24.5q-75 0 -130 -55
q-26 -26 -43 -59.5t-25 -71.5q-14 -67 -30.5 -144t-29.5 -144h-58l110 519h56l-9 -55q33 31 75 48.5t87 17.5q76 0 117 -39t41 -107q0 -12 -1.5 -25t-3.5 -25z" />
    <glyph glyph-name="oacute" unicode="&#xf3;" horiz-adv-x="500" 
d="M534 702l-209 -172h-70l193 172h86zM526 256q-24 -108 -97 -184q-81 -83 -191 -83q-54 0 -94.5 22.5t-64.5 64.5q-28 50 -28 112q0 20 2 38.5t6 37.5q11 53 35.5 99.5t62.5 84.5q82 82 189 82q110 0 160 -87q28 -53 28 -114q0 -35 -8 -73zM470 264q4 17 6 32t2 29
q0 49 -21 87l1 -1q-35 63 -116 63q-85 0 -148 -66q-60 -60 -79 -152q-8 -37 -8 -62q0 -23 6 -46t15 -41q34 -62 115 -62q85 0 149 66q59 62 78 153z" />
    <glyph glyph-name="ograve" unicode="&#xf2;" horiz-adv-x="500" 
d="M439 530h-58l-128 172h75zM529 256q-24 -108 -97 -184q-81 -83 -191 -83q-54 0 -94.5 22.5t-64.5 64.5q-28 50 -28 112q0 20 1.5 38.5t6.5 37.5q11 53 35.5 99.5t61.5 84.5q84 82 190 82q110 0 160 -87q27 -51 27 -114q0 -18 -1.5 -36.5t-5.5 -36.5zM473 264q4 17 6 32
t2 29q0 49 -21 87l1 -1q-35 63 -116 63q-85 0 -148 -66q-60 -60 -79 -152q-8 -37 -8 -62q0 -23 6 -46t15 -41q34 -62 115 -62q85 0 149 66q59 62 78 153z" />
    <glyph glyph-name="ocircumflex" unicode="&#xf4;" horiz-adv-x="505" 
d="M504 535h-61l-65 104q-26 -26 -53.5 -53t-51.5 -51h-72l171 167h32zM530 256q-24 -109 -98 -184q-80 -83 -190 -83q-54 0 -94.5 22.5t-65.5 64.5q-13 24 -20 53t-7 59q0 20 1.5 38.5t6.5 37.5q11 53 35.5 99.5t61.5 84.5q84 82 190 82q110 0 160 -87q27 -51 27 -114
q0 -18 -1.5 -36.5t-5.5 -36.5zM474 264q4 17 6 32t2 29q0 49 -21 87l1 -1q-35 63 -116 63q-85 0 -148 -66q-60 -60 -79 -152q-8 -37 -8 -62q0 -23 6 -46t15 -41q34 -62 115 -62q85 0 149 66q59 62 78 153z" />
    <glyph glyph-name="odieresis" unicode="&#xf6;" horiz-adv-x="507" 
d="M458 533h-57l22 113h58zM313 533h-57l22 113h58zM531 256q-24 -109 -98 -184q-80 -83 -190 -83q-54 0 -94.5 22.5t-65.5 64.5q-13 24 -20 53t-7 59q0 20 1.5 38.5t6.5 37.5q11 53 35.5 99.5t61.5 84.5q84 82 190 82q110 0 160 -87q27 -51 27 -114q0 -18 -1.5 -36.5
t-5.5 -36.5zM475 264q4 17 6 32t2 29q0 49 -21 87l1 -1q-35 63 -116 63q-85 0 -148 -66q-60 -60 -79 -152q-8 -37 -8 -62q0 -23 6 -46t15 -41q34 -62 115 -62q85 0 149 66q59 62 78 153z" />
    <glyph glyph-name="otilde" unicode="&#xf5;" horiz-adv-x="509" 
d="M524 653q-10 -48 -37.5 -78t-65.5 -30q-31 0 -66 32q-28 23 -39 23q-13 0 -25.5 -18t-17.5 -38h-56q14 53 40 81h-1q30 30 63 30q15 0 31 -8t36 -23q14 -11 24.5 -17t15.5 -6q14 0 25 16t15 36h58zM532 256q-24 -109 -98 -184q-80 -83 -190 -83q-54 0 -94.5 22.5
t-65.5 64.5q-13 24 -20 53t-7 59q0 20 1.5 38.5t6.5 37.5q11 53 35.5 99.5t61.5 84.5q84 82 190 82q111 0 159 -87q28 -50 28 -114q0 -18 -1.5 -36.5t-5.5 -36.5zM476 264q4 17 6 32t2 29q0 49 -21 87l1 -1q-35 63 -116 63q-85 0 -148 -66q-60 -60 -79 -152q-8 -37 -8 -62
q0 -23 6 -46t15 -41q34 -62 115 -62q85 0 149 66q59 62 78 153z" />
    <glyph glyph-name="uacute" unicode="&#xfa;" horiz-adv-x="441" 
d="M504 702l-210 -172h-69l193 172h86zM409 0h-57l10 56q-32 -30 -75.5 -48.5t-88.5 -18.5q-75 0 -116 39t-41 107q0 26 6 50q8 39 17 81.5t18 86t18 86t17 80.5h58l-73 -339v1q-2 -12 -3 -22t-1 -19q0 -45 26.5 -70t77.5 -25q74 0 130 55q51 52 67 131l62 288h57z" />
    <glyph glyph-name="ugrave" unicode="&#xf9;" horiz-adv-x="440" 
d="M410 530h-58l-128 172h74zM413 0h-57l10 56q-33 -30 -76 -48.5t-88 -18.5q-75 0 -116 39t-41 107q0 12 1.5 25t3.5 25q8 39 17.5 81.5t18.5 86t18 86t17 80.5h58l-73 -339v1q-2 -12 -3 -22t-1 -19q0 -45 26 -70t77 -25q75 0 130 55q51 51 68 131l62 288h57z" />
    <glyph glyph-name="ucircumflex" unicode="&#xfb;" horiz-adv-x="447" 
d="M475 535h-62l-64 104q-26 -26 -53.5 -53t-51.5 -51h-72l171 167h32zM413 0h-56l10 56q-33 -30 -76 -48.5t-88 -18.5q-76 0 -116.5 39t-40.5 107q0 12 1.5 25t3.5 25q8 39 17.5 81.5t18.5 86t18 86t17 80.5h58l-73 -339v1q-2 -12 -3.5 -22t-1.5 -19q0 -45 26.5 -70
t77.5 -25q75 0 130 55q51 51 68 131l61 288h58z" />
    <glyph glyph-name="udieresis" unicode="&#xfc;" horiz-adv-x="451" 
d="M429 533h-56l22 113h58zM285 533h-57l22 113h58zM415 0h-56l10 56q-33 -30 -76 -48.5t-88 -18.5q-76 0 -116.5 39t-40.5 107q0 12 1.5 25t3.5 25q8 39 17.5 81.5t18.5 86t18 86t17 80.5h57l-72 -339v1q-2 -12 -3.5 -22t-1.5 -19q0 -45 26.5 -70t77.5 -25q75 0 130 55
q51 51 68 131l61 288h58z" />
    <glyph glyph-name="dagger" unicode="&#x2020;" horiz-adv-x="438" 
d="M522 423h-193q-29 -135 -59 -277.5t-58 -276.5h-58l117 554h-192l11 56h193q11 54 24.5 114.5t24.5 113.5h57l-48 -228h193z" />
    <glyph glyph-name="degree" unicode="&#xb0;" horiz-adv-x="342" 
d="M429 529q-11 -59 -65 -106q-51 -44 -115 -44q-66 0 -101 47q-13 17 -18.5 36t-5.5 40q0 8 0.5 17.5t1.5 17.5q15 61 65 105q53 44 115 44q63 0 101 -47q12 -17 19 -36.5t7 -39.5q0 -8 -1 -17t-4 -18zM373 537q9 40 -12 66q-20 27 -58 27q-39 0 -75 -30q-37 -31 -46 -71
q-8 -39 12.5 -66.5t58.5 -27.5q43 0 76 29q17 16 28.5 33.5t15.5 39.5z" />
    <glyph glyph-name="cent" unicode="&#xa2;" horiz-adv-x="465" 
d="M492 201q-30 -93 -92.5 -149.5t-143.5 -61.5q-5 -25 -11 -53t-11 -50h-56l21 104q-45 5 -76 28.5t-50 62.5q-11 23 -17 50t-6 56q0 38 9 77q21 103 89 176q35 38 77 60t87 27q5 20 9.5 43.5t8.5 40.5h58l-19 -84q67 -6 107 -46v1q50 -49 40 -147h-56q5 62 -22.5 97
t-78.5 40q-23 -107 -46 -213.5t-46 -214.5q50 6 94 40q26 20 44 49t30 67h57zM301 472q-29 -8 -60.5 -25t-54.5 -43q-53 -61 -71 -147q-9 -38 -9 -67q0 -22 4.5 -42t11.5 -37q28 -57 87 -66z" />
    <glyph glyph-name="sterling" unicode="&#xa3;" horiz-adv-x="554" 
d="M546 84q-108 -100 -197 -100q-32 0 -93 25q-50 22 -78 22t-60.5 -14t-70.5 -40l-33 49q138 101 157 192q5 17 6 32.5t1 28.5t-0.5 23t-3.5 21h-79l9 57h53l-2.5 7.5t-2.5 8.5v-1q-6 14 -13 42q-9 31 -9 58q0 11 1 20t3 17q10 46 36 82.5t65 62.5q71 45 164 45
q106 0 160 -58q39 -42 39 -106q0 -14 -2 -29t-6 -32l-12 -47h-56l11 50q7 27 7 50q0 56 -38 86.5t-106 30.5q-75 0 -131 -35q-60 -37 -75 -107q-3 -14 -3 -27q0 -14 2 -26.5t4 -24.5v1q8 -20 12.5 -34t11.5 -34h155l-10 -57h-130q3 -18 3 -40q0 -18 -2 -35.5t-6 -36.5
q-8 -30 -25.5 -64t-37.5 -61q3 1 9 1h9q18 0 41 -6.5t52 -19.5q25 -11 44.5 -16t33.5 -5q34 0 74 22q16 8 37.5 24.5t50.5 39.5z" />
    <glyph glyph-name="section" unicode="&#xa7;" horiz-adv-x="487" 
d="M501 206q-11 -50 -56 -89q-31 -28 -67 -43q34 -44 21 -99q-16 -74 -70.5 -113t-129.5 -39q-92 0 -127 60q-21 34 -21 85q0 14 2 32t8 42h56q-6 -28 -8.5 -46.5t-2.5 -29.5q0 -88 97 -88q45 0 86 25h-1q44 27 53 67h-1q7 31 -7.5 60.5t-45.5 55.5q-17 12 -35 25t-34 25
q-18 12 -35.5 24t-34.5 25q-69 61 -69 132q0 11 1 18.5t3 15.5q11 50 54 90v-1q15 15 30.5 26t32.5 20q-11 15 -15 30.5t-4 34.5q0 18 3 32q15 67 73 106q51 33 119 33q84 0 123 -58q23 -35 23 -86q0 -11 -2 -28.5t-7 -37.5h-56q4 21 6.5 37.5t2.5 25.5q0 16 -4 30.5
t-10 25.5q-25 36 -82 36q-46 0 -83 -25q-37 -23 -48 -68q-5 -23 10 -48.5t47 -50.5q35 -24 74.5 -52t74.5 -53q60 -55 60 -128q0 -8 -1 -17t-4 -20zM446 214q11 49 -25 92q-14 19 -35.5 38.5t-53.5 39.5l-91 60q-35 -14 -64 -41q-32 -29 -40 -68q-12 -53 68 -121h-1
q17 -13 34.5 -25.5t34.5 -26.5q18 -13 31.5 -23t31.5 -23q36 10 67 35q34 27 42 63h1z" />
    <glyph glyph-name="bullet" unicode="&#x2022;" horiz-adv-x="413" 
d="M457 350q-17 -77 -80 -130q-65 -53 -140 -53q-77 0 -122 57q-31 41 -31 94q0 22 4 39q8 38 28 69.5t51 58.5q65 53 140 53q77 0 122 -56q15 -20 23.5 -43t8.5 -49q0 -11 -1 -20.5t-3 -19.5z" />
    <glyph glyph-name="paragraph" unicode="&#xb6;" horiz-adv-x="477" 
d="M405 -131h-57l166 782h-112q-41 -193 -83.5 -391t-82.5 -391h-58l94 439q-71 6 -122 52v-1q-47 45 -47 108q0 11 1 21.5t3 19.5q11 47 35.5 85.5t62.5 64.5q68 49 167 49h211z" />
    <glyph glyph-name="germandbls" unicode="&#xdf;" horiz-adv-x="461" 
d="M474 212q-12 -57 -40 -100.5t-65 -68.5q-33 -20 -87 -31.5t-123 -11.5l11 56l40 -1q85 -4 136.5 39t71.5 125q3 13 4.5 25t1.5 21q0 49 -32 71q-38 27 -156 27l11 56q88 0 139.5 34t67.5 96q2 7 2 14v12q0 35 -22 57q-29 30 -85 30q-60 0 -101.5 -34t-55.5 -94
q-13 -61 -27.5 -129.5t-29 -138.5t-29 -138t-26.5 -128h-58l115 544q17 83 75 128.5t141 45.5q76 0 123 -47q37 -40 37 -92q0 -8 -1 -17t-4 -21h1q-14 -65 -55 -108q-11 -11 -23 -20t-25 -17q75 -30 75 -125q0 -14 -1.5 -29t-5.5 -30z" />
    <glyph glyph-name="registered" unicode="&#xae;" horiz-adv-x="802" 
d="M826 350q-34 -151 -161 -258q-129 -108 -279 -108q-155 0 -239 111q-61 79 -61 183q0 20 2 39.5t6 39.5q32 151 161 258t279 107q153 0 239 -110q61 -79 61 -182q0 -20 -2 -40t-6 -40zM770 357q5 20 6.5 37t1.5 32q0 42 -13 79.5t-38 71.5q-35 43 -84.5 66.5t-112.5 23.5
q-130 0 -241 -93q-57 -47 -91 -103t-48 -121q-9 -38 -9 -69q0 -41 13.5 -79t38.5 -72q35 -44 84.5 -67t111.5 -23q129 0 242 93q110 92 139 224zM608 126h-64l-79 187h-92q-9 -45 -20 -94.5t-20 -92.5h-58l94 441h147q131 0 131 -97q0 -8 -1 -16.5t-4 -18.5h1
q-11 -47 -43 -76.5t-76 -39.5zM587 443q14 68 -78 68h-95q-8 -39 -14.5 -70t-14.5 -71h73q114 0 129 73z" />
    <glyph glyph-name="copyright" unicode="&#xa9;" horiz-adv-x="802" 
d="M826 350q-34 -151 -161 -258q-129 -108 -279 -108q-155 0 -239 111q-61 79 -61 183q0 20 2 39.5t6 39.5q32 151 161 258t279 107q153 0 239 -110q61 -79 61 -182q0 -20 -2 -40t-6 -40zM770 357q5 20 6.5 37t1.5 32q0 42 -13 79.5t-38 71.5q-35 43 -84.5 66.5t-112.5 23.5
q-130 0 -241 -93q-57 -47 -91 -103t-48 -121q-9 -38 -9 -69q0 -41 13.5 -79t38.5 -72q35 -44 84.5 -67t111.5 -23q129 0 242 93q110 92 139 224zM652 296q-43 -94 -98 -137q-60 -47 -131 -47q-101 0 -151 71q-32 47 -32 109q0 16 2 30.5t4 29.5q21 98 93 163q74 65 173 65
q38 0 68.5 -12t51.5 -35.5t31 -56.5t7 -75h-56q5 58 -25.5 91t-80.5 33q-76 0 -133 -51q-26 -23 -45.5 -57t-27.5 -72q-3 -13 -4 -25t-1 -23q0 -47 22 -79q33 -50 108 -50q50 0 95 36t71 92h59z" />
    <glyph glyph-name="trademark" unicode="&#x2122;" horiz-adv-x="867" 
d="M864 283h-58l60 288q-45 -73 -90.5 -145t-90.5 -143h-44l-60 293q-15 -73 -31.5 -148t-31.5 -145h-57l90 424h63l67 -329q51 82 104 165t104 164h65zM491 651h-139q-19 -88 -40 -184t-39 -184h-57l78 368h-138l10 56h336z" />
    <glyph glyph-name="acute" unicode="&#xb4;" horiz-adv-x="168" 
d="M358 722l-208 -171h-68l192 171h84z" />
    <glyph glyph-name="dieresis" unicode="&#xa8;" horiz-adv-x="258" 
d="M342 553h-57l25 114h57zM197 553h-57l25 114h57z" />
    <glyph glyph-name="AE" unicode="&#xc6;" horiz-adv-x="868" 
d="M846 0h-430l55 262h-221q-47 -65 -96 -131t-96 -131h-68l531 721h477l-11 -57h-371q-14 -67 -28 -129t-28 -131h340l-11 -57h-341q-17 -77 -31.5 -144.5t-30.5 -145.5h371zM483 319q19 92 37 173.5t37 173.5h-11q-34 -47 -65 -89t-61 -84t-61.5 -84.5t-65.5 -89.5h190z
" />
    <glyph glyph-name="Oslash" unicode="&#xd8;" horiz-adv-x="719" 
d="M755 357q-17 -78 -51 -142t-87 -117q-114 -114 -268 -114q-139 0 -206 87q-20 -17 -42 -37.5t-39 -35.5l-38 38l90 81q-15 31 -23.5 67t-8.5 77q0 51 12 104q33 155 137 259q116 113 269 113q136 0 205 -84q17 15 34.5 31t31.5 28l40 -38l-76 -69q15 -29 23 -66.5
t8 -75.5q0 -26 -2.5 -52t-8.5 -54zM660 611q-56 69 -164 69q-131 0 -228 -95q-45 -45 -74 -101.5t-43 -126.5q-6 -26 -8.5 -48.5t-2.5 -43.5q0 -58 19 -107zM698 365q12 52 12 95q0 29 -5.5 55t-14.5 49q-128 -116 -251 -227t-252 -226q26 -38 66 -54t99 -16q132 0 228 96
q45 45 74.5 101.5t43.5 126.5z" />
    <glyph glyph-name="plusminus" unicode="&#xb1;" horiz-adv-x="506" 
d="M552 270h-226q-9 -44 -19 -93.5t-19 -92.5h-58l39 186h-223l11 56h225q9 44 19 93.5t19 92.5h58l-39 -186h225zM495 0h-506l10 56h507z" />
    <glyph glyph-name="yen" unicode="&#xa5;" horiz-adv-x="536" 
d="M684 707l-298 -365h109l-10 -56h-137q-3 -15 -5.5 -27t-7.5 -32h136l-10 -55h-138q-8 -42 -17.5 -87t-17.5 -85h-58l37 172h-136l10 55h137l5.5 27.5t7.5 31.5h-136l11 56h116q-35 88 -72.5 183.5t-69.5 181.5h61l134 -341q69 85 140.5 170.5t139.5 170.5h69z" />
    <glyph glyph-name="mu" unicode="&#xb5;" horiz-adv-x="445" 
d="M424 0h-57l9 55q-32 -31 -74.5 -48.5t-88.5 -17.5q-42 0 -73 12.5t-51 35.5q-11 -51 -22.5 -103t-21.5 -100h-58l146 685h57l-73 -339v1q-2 -12 -3 -22t-1 -19q0 -45 26.5 -70t77.5 -25q164 0 223 273q4 20 8.5 45t9.5 57t10.5 60.5t7.5 38.5h57z" />
    <glyph glyph-name="mu" unicode="&#x3bc;" horiz-adv-x="445" 
d="M424 0h-57l9 55q-32 -31 -74.5 -48.5t-88.5 -17.5q-42 0 -73 12.5t-51 35.5q-11 -51 -22.5 -103t-21.5 -100h-58l146 685h57l-73 -339v1q-2 -12 -3 -22t-1 -19q0 -45 26.5 -70t77.5 -25q164 0 223 273q4 20 8.5 45t9.5 57t10.5 60.5t7.5 38.5h57z" />
    <glyph glyph-name="ordfeminine" unicode="&#xaa;" horiz-adv-x="353" 
d="M404 352q-64 -3 -77 24q-11 -7 -28 -13h1q-44 -19 -88 -19q-48 0 -78 22q-39 28 -28 80q16 75 91 93h-1q3 1 32 4t84 8q46 3 51 26q12 53 -55 53q-79 0 -104 -79h-57q43 135 165 135q63 0 90 -28.5t19 -77.5q-9 -43 -19.5 -88.5t-19.5 -89.5q2 5 33 6zM347 502
q-10 -2 -21 -3.5t-26 -2.5q-38 -3 -60.5 -5.5t-31.5 -4.5h1q-40 -14 -47 -48q-8 -38 55 -38q44 0 81 25.5t48 69.5z" />
    <glyph glyph-name="ordmasculine" unicode="&#xba;" horiz-adv-x="359" 
d="M440 513q-13 -71 -65 -118q-53 -51 -126 -51q-72 0 -108 53q-21 36 -21 80q0 11 1 21.5t3 21.5q16 70 68 118q56 48 123 48q74 0 110 -53q20 -34 20 -76q0 -12 -1.5 -22.5t-3.5 -21.5zM386 520q1 7 1.5 14.5t0.5 15.5q0 28 -14 49q-19 31 -63 31q-45 0 -83 -35
q-38 -34 -49 -82q-1 -8 -2 -15.5t-1 -12.5q0 -29 16 -53q20 -32 63 -32q45 0 83 36q35 35 47 84h1z" />
    <glyph glyph-name="oslash" unicode="&#xf8;" horiz-adv-x="533" 
d="M547 256q-24 -108 -97 -184q-81 -83 -191 -83q-47 0 -84 17t-62 48q-15 -14 -33 -29t-31 -26l-32 42l71 61q-8 20 -12 41.5t-4 46.5q0 17 2 35.5t7 38.5h-1q23 108 97 184q84 82 190 82q96 0 144 -63q13 11 26.5 23.5t23.5 20.5l32 -43l-55 -49q9 -21 12.5 -42.5
t3.5 -47.5q0 -17 -1.5 -35t-6.5 -38h1zM465 428q-33 46 -102 46q-85 0 -149 -66q-28 -29 -48 -69t-30 -83q-8 -35 -8 -61q0 -14 2 -27.5t5 -25.5zM491 264q7 31 7 59q0 16 -1.5 30t-6.5 28q-86 -74 -166 -144.5t-166 -144.5q34 -47 106 -47q84 0 149 66q58 60 78 153z" />
    <glyph glyph-name="questiondown" unicode="&#xbf;" horiz-adv-x="433" 
d="M324 416h-58l27 129h58zM435 83q-28 -128 -95 -192q-73 -68 -177 -68q-84 0 -132 43q-40 37 -40 96q0 8 1 17.5t4 21.5h-1q16 77 79 135q27 23 54 45.5t54 45.5q26 27 45 64.5t29 83.5h57q-24 -116 -91 -183q-13 -12 -26 -23t-27 -22q-13 -11 -26 -23t-26 -23
q-56 -48 -67 -107q-3 -15 -3 -29q0 -37 25 -58q32 -29 95 -29q82 0 138 53q26 25 44 62.5t28 89.5h58z" />
    <glyph glyph-name="exclamdown" unicode="&#xa1;" horiz-adv-x="112" 
d="M161 416h-58l27 129h58zM37 -166h-57l114 541h58z" />
    <glyph glyph-name="logicalnot" unicode="&#xac;" horiz-adv-x="545" 
d="M513 87h-58l50 231h-448l9 57h508z" />
    <glyph glyph-name="florin" unicode="&#x192;" horiz-adv-x="479" 
d="M603 658q-42 9 -60 9q-51 0 -85 -42q-27 -33 -52 -101l-8 -23q-7 -18 -11.5 -29t-10.5 -31h118l-20 -56h-118q-44 -107 -87.5 -213t-87.5 -213q-51 -125 -158 -125q-32 0 -70 13l25 52q16 -5 27.5 -7t19.5 -2q66 0 103 88q42 105 83 203t84 204h-109l21 56h110
q11 27 20 54t19 55q15 40 32 69t34 49q51 54 126 54q16 0 34 -3t41 -11z" />
    <glyph glyph-name="guillemotleft" unicode="&#xab;" horiz-adv-x="249" 
d="M233 72l-96 188l5 26l171 179l-19 -99l-95 -100q13 -24 26 -49.5t26 -49.5zM147 72l-97 188l6 26l171 179l-20 -99l-94 -100q12 -24 25.5 -49.5t26.5 -49.5z" />
    <glyph glyph-name="guillemotright" unicode="&#xbb;" horiz-adv-x="249" 
d="M294 253l-170 -180l19 102l94 99q-12 24 -25.5 49.5t-26.5 48.5l18 93l97 -185zM208 253l-170 -180l18 102l95 99q-13 24 -26 49.5t-26 48.5l18 93l96 -185z" />
    <glyph glyph-name="ellipsis" unicode="&#x2026;" horiz-adv-x="766" 
d="M704 0h-58l27 129h58zM395 0h-58l27 129h58zM86 0h-58l27 129h57z" />
    <glyph glyph-name="nonbreakingspace" unicode="&#xa0;" horiz-adv-x="205" 
 />
    <glyph glyph-name="Agrave" unicode="&#xc0;" horiz-adv-x="620" 
d="M542 732h-58l-131 176h76zM609 0h-60l-42 225h-318q-33 -54 -69 -112.5t-68 -112.5h-66l443 721h51zM497 282q-8 46 -15.5 88t-15 83.5t-15 85t-15.5 91.5q-28 -45 -53.5 -87.5t-51 -84.5t-52 -85.5t-55.5 -90.5h273z" />
    <glyph glyph-name="Atilde" unicode="&#xc3;" horiz-adv-x="619" 
d="M624 857q-10 -48 -38 -78.5t-66 -30.5q-35 0 -70 32q-23 23 -38 23q-13 0 -25.5 -18t-16.5 -38h-59q14 55 41 82h-1q30 31 65 31q31 0 68 -33q28 -23 40 -23q14 0 26 16.5t15 36.5h59zM607 0h-60l-41 225h-319q-32 -54 -68.5 -112.5t-68.5 -112.5h-65l442 721h51z
M495 282q-8 46 -15.5 88t-14.5 83.5t-14.5 85t-15.5 91.5q-28 -45 -54 -87.5t-51.5 -84.5t-52 -85.5t-55.5 -90.5h273z" />
    <glyph glyph-name="Otilde" unicode="&#xd5;" horiz-adv-x="704" 
d="M667 857q-10 -48 -38 -78.5t-66 -30.5q-32 0 -69 32q-26 23 -39 23t-25.5 -18t-16.5 -38h-59q14 55 41 82h-1q30 31 64 31q14 0 31.5 -7.5t36.5 -24.5q14 -11 24.5 -17.5t15.5 -6.5q14 0 26 16.5t16 36.5h59zM747 357q-33 -155 -137 -259q-116 -114 -269 -114
q-157 0 -226 117q-40 70 -40 159q0 26 3 52t8 53q35 157 137 259q116 113 270 113q157 0 226 -116q40 -70 40 -159q0 -51 -12 -105zM691 365q10 50 10 94q0 73 -30 129q-26 45 -72 68.5t-110 23.5q-131 0 -229 -95q-44 -45 -73.5 -101.5t-43.5 -126.5q-6 -26 -8 -49t-2 -45
q0 -38 7 -69.5t23 -59.5q52 -93 182 -93q132 0 228 96q45 45 74.5 101.5t43.5 126.5z" />
    <glyph glyph-name="OE" unicode="&#x152;" horiz-adv-x="998" 
d="M972 0h-451l8 36q-80 -52 -173 -52q-76 0 -134 30.5t-93 84.5q-20 34 -30.5 75t-10.5 86q0 24 2.5 49.5t8.5 51.5q17 76 52 143t86 118q114 115 270 115q101 0 159 -55q2 10 4 21t4 18h450l-11 -57h-392q-14 -67 -28 -129t-28 -131h346l-11 -57h-347
q-17 -77 -31.5 -144.5t-30.5 -145.5h393zM650 611q-54 69 -147 69q-133 0 -229 -97q-88 -90 -118 -230q-6 -26 -8.5 -48.5t-2.5 -43.5q0 -73 32 -129q52 -91 182 -91q100 0 187 78z" />
    <glyph glyph-name="oe" unicode="&#x153;" horiz-adv-x="891" 
d="M506 238q-6 -39 -6 -70q0 -123 120 -123q129 0 191 155h58q-42 -110 -101 -159q-64 -52 -151 -52q-69 0 -112 28.5t-56 83.5q-72 -112 -206 -112q-110 0 -152 91q-18 43 -18 97q0 21 2 42.5t7 44.5q24 108 85 181q75 85 182 85q66 0 108.5 -30.5t56.5 -85.5
q70 116 210 116q115 0 154 -92q8 -20 12 -42t4 -48q0 -21 -3 -49t-11 -61h-374zM834 293q2 14 3.5 27.5t1.5 24.5q0 43 -14 74v-1q-27 56 -104 56q-148 0 -202 -181h315zM455 264q5 22 7.5 42t2.5 37q0 43 -13 69q-25 62 -106 62q-41 0 -76.5 -17.5t-64.5 -49.5
q-46 -58 -67 -151q-10 -41 -10 -75q0 -20 3.5 -38t9.5 -35l-1 1q27 -64 106 -64q88 0 142 65q46 56 67 154z" />
    <glyph glyph-name="endash" unicode="&#x2013;" horiz-adv-x="581" 
d="M581 242h-503l11 56h503z" />
    <glyph glyph-name="emdash" unicode="&#x2014;" horiz-adv-x="1080" 
d="M1054 242h-967l10 56h968z" />
    <glyph glyph-name="quotedblleft" unicode="&#x201c;" horiz-adv-x="209" 
d="M333 658q-27 -15 -39 -74q-6 -27 -13.5 -62.5t-12.5 -62.5h-58l28 132q9 44 18 64v-1q9 16 31 33t59 34zM240 658q-27 -15 -39 -74q-6 -27 -13.5 -62.5t-12.5 -62.5h-58l28 132q5 23 9.5 38.5t9.5 25.5v-1q18 33 89 67z" />
    <glyph glyph-name="quotedblright" unicode="&#x201d;" horiz-adv-x="211" 
d="M305 574q-9 -45 -18 -63v1q-8 -17 -29.5 -33.5t-57.5 -33.5l12 62q25 14 38 74q5 27 13 62.5t14 63.5h57zM212 574q-9 -45 -18 -63v1q-17 -35 -86 -67l11 62q25 14 38 74q5 27 13 62.5t14 63.5h57z" />
    <glyph glyph-name="quoteleft" unicode="&#x2018;" horiz-adv-x="86" 
d="M232 658q-26 -15 -39 -74q-5 -27 -12.5 -62.5t-13.5 -62.5h-57l27 132q11 46 19 64v-1q17 33 89 67z" />
    <glyph glyph-name="quoteright" unicode="&#x2019;" horiz-adv-x="88" 
d="M193 574q-7 -43 -20 -64q-9 -16 -30.5 -33t-54.5 -32l12 62q25 14 38 74q5 27 13 62.5t14 63.5h57z" />
    <glyph glyph-name="divide" unicode="&#xf7;" horiz-adv-x="510" 
d="M396 451q-11 -54 -65 -54q-59 0 -48 62q6 22 24 37.5t41 15.5q26 0 40 -17.5t8 -43.5zM547 227h-506l8 57h508zM312 53q-11 -53 -64 -53q-61 0 -49 60q10 54 65 54q26 0 39.5 -17.5t8.5 -43.5z" />
    <glyph glyph-name="ydieresis" unicode="&#xff;" horiz-adv-x="445" 
d="M432 553h-57l25 114h57zM287 553h-56l25 114h56zM553 519l-361 -608q-29 -51 -70 -66q-31 -11 -109 -11l11 56q32 0 55.5 3t35.5 10q20 13 39 45q5 8 9.5 16t9.5 17q8 12 13.5 21t12.5 23q-25 119 -51.5 247t-50.5 247h59l86 -423q61 105 124.5 212.5t123.5 210.5h63z
" />
    <glyph glyph-name="Ydieresis" unicode="&#x178;" horiz-adv-x="608" 
d="M554 735h-58l26 116h58zM406 735h-57l25 116h58zM771 721l-383 -422q-15 -72 -31 -149.5t-31 -149.5h-59l64 305q-23 49 -48.5 102t-51 106.5t-51 106t-48.5 101.5h66l173 -360q78 88 163 180.5t163 179.5h74z" />
    <glyph glyph-name="currency" unicode="&#xa4;" horiz-adv-x="562" 
d="M589 333q-9 -43 -31.5 -82t-56.5 -73q11 -13 23 -28.5t20 -26.5l-46 -37l-41 55q-79 -55 -166 -55q-89 0 -145 56q-16 -14 -34 -29.5t-32 -26.5l-32 43l65 55q-15 23 -21 49t-6 55q0 13 1.5 27t4.5 26q10 43 31.5 82.5t57.5 73.5q-11 13 -23 28.5t-20 25.5l45 37l41 -54
q76 55 167 55q87 0 144 -55q17 13 35 28.5t31 26.5l32 -43l-65 -55q13 -23 20 -48.5t7 -53.5q0 -31 -6 -56zM533 341q6 24 6 43q0 52 -32 93q-42 56 -120 56q-41 0 -78 -15t-74 -44q-72 -59 -89 -142q-3 -20 -3 -40q0 -53 31 -94q44 -56 122 -56q79 0 149 59q37 29 58.5 64
t29.5 76z" />
    <glyph glyph-name="guilsinglleft" unicode="&#x2039;" horiz-adv-x="145" 
d="M134 72l-97 188l6 26l171 179l-20 -99l-95 -100q13 -24 26.5 -49.5t25.5 -49.5z" />
    <glyph glyph-name="guilsinglright" unicode="&#x203a;" horiz-adv-x="144" 
d="M206 253l-170 -180l19 102l94 99q-12 24 -25.5 49.5t-26.5 48.5l18 93l97 -185z" />
    <glyph glyph-name="daggerdbl" unicode="&#x2021;" horiz-adv-x="438" 
d="M443 54h-194q-9 -45 -19 -93.5t-19 -91.5h-58l39 185h-192l10 56h194q20 91 37.5 177t37.5 179h-192l10 56h193q10 44 20.5 93t19.5 92h58l-40 -185h192l-10 -56h-194q-20 -92 -37 -177.5t-37 -178.5h192z" />
    <glyph glyph-name="periodcentered" unicode="&#xb7;" horiz-adv-x="127" 
d="M179 333q-8 -44 -53 -44q-53 0 -43 52q9 45 55 45q54 0 41 -53z" />
    <glyph glyph-name="periodcentered" unicode="&#x2219;" horiz-adv-x="127" 
d="M179 333q-8 -44 -53 -44q-53 0 -43 52q9 45 55 45q54 0 41 -53z" />
    <glyph glyph-name="quotesinglbase" unicode="&#x201a;" horiz-adv-x="82" 
d="M71 15q-20 -92 -109 -144l11 65q30 24 48 108q1 5 1.5 12t2.5 15l3 13q2 11 4.5 25.5t3.5 19.5h59z" />
    <glyph glyph-name="quotedblbase" unicode="&#x201e;" horiz-adv-x="209" 
d="M183 15q-10 -45 -37.5 -81.5t-72.5 -62.5l11 65q31 24 49 108q1 5 1.5 12t2.5 15l3 13q2 11 4.5 25.5t3.5 19.5h59zM90 15q-10 -45 -37.5 -81.5t-72.5 -62.5l11 65q33 25 49 108q2 5 2 12t2 15l3 13q2 11 5 25.5t3 19.5h59z" />
    <glyph glyph-name="perthousand" unicode="&#x2030;" horiz-adv-x="1039" 
d="M1022 163q-16 -75 -68 -122q-53 -52 -129 -52q-79 0 -111 56q-20 32 -20 76q0 11 1 23t5 27l-1 -1q17 76 64 123q53 53 130 53q80 0 114 -55q10 -17 15.5 -35.5t5.5 -41.5q0 -26 -6 -51zM455 502q-15 -72 -69 -123q-51 -50 -127 -50q-78 0 -112 54q-20 34 -20 76
q0 24 6 50q17 76 64 123q54 54 130 54q78 0 113 -57q20 -32 20 -77q0 -22 -5 -50zM757 707l-623 -739h-70l623 739h70zM688 163q-16 -73 -68 -122q-53 -52 -129 -52q-79 0 -111 56q-20 32 -20 76q0 11 1 23t5 27l-1 -1q17 76 64 123q53 53 130 53q80 0 114 -55
q20 -34 20 -77q0 -13 -1 -25.5t-4 -25.5zM966 171q5 22 5 40q0 37 -20 58.5t-62 21.5q-56 0 -90 -37q-15 -16 -26.5 -39.5t-17.5 -52.5q-5 -22 -5 -38q0 -27 11 -47q18 -32 68 -32q51 0 89 36q37 35 47 89zM399 509q6 24 6 42q0 29 -12 47q-18 32 -70 32q-55 0 -91 -36h1
q-15 -16 -26.5 -40t-18.5 -53q-2 -11 -3 -20.5t-1 -17.5q0 -29 11 -47q19 -32 68 -32q25 0 47.5 9.5t40 26.5t30 39.5t18.5 49.5zM632 171q5 22 5 40q0 37 -20 58.5t-62 21.5q-56 0 -90 -37q-31 -33 -45 -92q-2 -10 -3 -20t-1 -18q0 -29 11 -47q18 -32 68 -32q51 0 89 36
q37 35 47 89z" />
    <glyph glyph-name="Acircumflex" unicode="&#xc2;" horiz-adv-x="625" 
d="M609 737h-63l-66 106q-26 -26 -54 -53.5t-53 -52.5h-73l174 171h32zM610 0h-60l-42 225h-318q-33 -54 -69 -112.5t-68 -112.5h-66l443 721h51zM498 282q-8 46 -15.5 88t-15 83.5t-15 85t-15.5 91.5q-28 -45 -53.5 -87.5t-51 -84.5t-52 -85.5t-55.5 -90.5h273z" />
    <glyph glyph-name="Ecircumflex" unicode="&#xca;" horiz-adv-x="509" 
d="M546 737h-62l-67 106q-26 -26 -54 -53.5t-53 -52.5h-73l175 171h32zM507 0h-492l152 721h488l-10 -57h-430q-14 -67 -28 -129t-28 -131h403l-11 -57h-405q-16 -77 -30.5 -144.5t-30.5 -145.5h434z" />
    <glyph glyph-name="Aacute" unicode="&#xc1;" horiz-adv-x="621" 
d="M641 908l-214 -176h-71l197 176h88zM607 0h-59l-42 225h-318q-33 -54 -69 -112.5t-69 -112.5h-65l442 721h51zM495 282q-8 46 -15 88t-14.5 83.5t-15 85t-15.5 91.5q-28 -45 -54 -87.5t-51.5 -84.5t-52 -85.5t-54.5 -90.5h272z" />
    <glyph glyph-name="Edieresis" unicode="&#xcb;" horiz-adv-x="510" 
d="M497 735h-58l26 116h58zM349 735h-58l26 116h58zM508 0h-492l152 721h488l-10 -57h-430q-14 -67 -28 -129t-28 -131h403l-11 -57h-405q-16 -77 -30.5 -144.5t-30.5 -145.5h434z" />
    <glyph glyph-name="Egrave" unicode="&#xc8;" horiz-adv-x="508" 
d="M480 732h-59l-131 176h76zM506 0h-492l152 721h488l-10 -57h-430q-14 -67 -28 -129t-28 -131h403l-11 -57h-405q-16 -77 -30.5 -144.5t-30.5 -145.5h434z" />
    <glyph glyph-name="Iacute" unicode="&#xcd;" horiz-adv-x="170" 
d="M406 908l-214 -176h-71l197 176h88zM92 0h-59l153 721h59z" />
    <glyph glyph-name="Icircumflex" unicode="&#xce;" horiz-adv-x="252" 
d="M431 737h-63l-66 106q-26 -26 -54 -53.5t-53 -52.5h-73l174 171h32zM152 0h-59l153 721h59z" />
    <glyph glyph-name="Idieresis" unicode="&#xcf;" horiz-adv-x="184" 
d="M347 735h-58l26 116h57zM199 735h-58l26 116h58zM119 0h-59l152 721h59z" />
    <glyph glyph-name="Igrave" unicode="&#xcc;" horiz-adv-x="164" 
d="M342 732h-59l-131 176h76zM129 0h-59l153 721h58z" />
    <glyph glyph-name="Oacute" unicode="&#xd3;" horiz-adv-x="698" 
d="M680 908l-214 -176h-71l197 176h88zM744 357q-35 -156 -138 -259q-116 -114 -269 -114q-157 0 -226 117q-40 70 -40 159q0 26 3 52t8 53q17 78 51 142.5t87 116.5q115 113 269 113q157 0 226 -116q40 -70 40 -159q0 -26 -3 -52t-8 -53zM687 365q10 50 10 94q0 73 -30 129
q-26 45 -72 68.5t-110 23.5q-131 0 -228 -95q-45 -45 -74.5 -101.5t-43.5 -126.5q-6 -26 -8 -49t-2 -45q0 -38 7 -69.5t23 -59.5q52 -93 182 -93q132 0 228 96q45 45 74.5 101.5t43.5 126.5z" />
    <glyph glyph-name="Ocircumflex" unicode="&#xd4;" horiz-adv-x="700" 
d="M647 737h-63l-66 106q-26 -26 -54 -53.5t-53 -52.5h-73l174 171h33zM745 357q-33 -155 -137 -259q-116 -114 -269 -114q-157 0 -226 117q-40 70 -40 159q0 26 3 52t8 53q17 78 51 142.5t87 116.5q115 113 269 113q157 0 226 -116q40 -70 40 -159q0 -51 -12 -105zM689 365
q10 50 10 94q0 73 -30 129q-26 45 -72 68.5t-110 23.5q-131 0 -229 -95q-44 -45 -73.5 -101.5t-43.5 -126.5q-6 -26 -8 -49t-2 -45q0 -38 7 -69.5t23 -59.5q52 -93 182 -93q132 0 228 96q45 45 74.5 101.5t43.5 126.5z" />
    <glyph glyph-name="Ograve" unicode="&#xd2;" horiz-adv-x="698" 
d="M582 732h-59l-131 176h76zM745 357q-33 -155 -137 -259q-116 -114 -269 -114q-157 0 -226 117q-40 70 -40 159q0 26 3 52t8 53q35 156 138 259q115 113 269 113q157 0 226 -116q40 -70 40 -159q0 -51 -12 -105zM689 365q10 50 10 94q0 73 -30 129q-26 45 -72 68.5
t-110 23.5q-131 0 -228 -95q-45 -45 -74.5 -101.5t-43.5 -126.5q-6 -26 -8 -48.5t-2 -44.5q0 -75 31 -130q52 -93 181 -93q132 0 228 96q45 45 74.5 101.5t43.5 126.5z" />
    <glyph glyph-name="Uacute" unicode="&#xda;" horiz-adv-x="575" 
d="M620 908l-214 -176h-71l197 176h88zM602 270q-14 -66 -41.5 -118.5t-66.5 -88.5q-82 -79 -217 -79t-189 82q-30 48 -30 119q0 46 10 93l94 443h59l-96 -451q-11 -49 -11 -82q0 -147 167 -147q103 0 170 63.5t94 173.5q11 52 23 108.5t24 113.5t24 113t23 108h59z" />
    <glyph glyph-name="Ucircumflex" unicode="&#xdb;" horiz-adv-x="578" 
d="M588 737h-62l-67 106q-26 -26 -54 -53.5t-53 -52.5h-73l175 171h32zM605 270q-14 -66 -41.5 -118.5t-66.5 -88.5q-82 -79 -217 -79t-189 82q-15 24 -23 53.5t-8 65.5q0 41 11 93l94 443h58l-95 -451q-11 -49 -11 -82q0 -147 167 -147q103 0 169.5 63.5t94.5 173.5
q11 52 23 108.5t24 113.5t24 113t23 108h59z" />
    <glyph glyph-name="Ugrave" unicode="&#xd9;" horiz-adv-x="574" 
d="M522 732h-59l-131 176h76zM604 270q-14 -66 -41.5 -118.5t-66.5 -88.5q-82 -79 -217 -79t-189 82q-30 48 -30 119q0 46 10 93l94 443h58l-95 -451q-11 -49 -11 -82q0 -147 167 -147q103 0 169.5 63.5t94.5 173.5q11 52 23 108.5t24 113.5t24 113t23 108h59z" />
    <glyph glyph-name="circumflex" unicode="&#x2c6;" horiz-adv-x="274" 
d="M399 555h-61l-65 104q-26 -26 -53.5 -52.5t-51.5 -51.5h-72l170 167h32z" />
    <glyph glyph-name="tilde" unicode="&#x2dc;" horiz-adv-x="331" 
d="M444 673q-10 -47 -37 -77.5t-65 -30.5q-15 0 -31.5 8.5t-36.5 23.5q-24 23 -39 23q-6 0 -12 -5t-12 -13t-10.5 -18t-6.5 -20h-55q9 55 39 82v-1q30 31 62 31t68 -33q28 -22 38 -22q14 0 26 16t17 36h55z" />
    <glyph glyph-name="macron" unicode="&#xaf;" horiz-adv-x="313" 
d="M403 589h-253l11 55h254z" />
    <glyph glyph-name="macron" unicode="&#x2c9;" horiz-adv-x="313" 
d="M403 589h-253l11 55h254z" />
    <glyph glyph-name="cedilla" unicode="&#xb8;" horiz-adv-x="215" 
d="M179 -88q-18 -84 -124 -84q-16 0 -41 6.5t-60 17.5l34 52q48 -20 70 -20q59 0 65 35q2 8 -6 11.5t-19 3.5q-25 0 -54 -16l-38 30l88 89h70l-45 -48q77 -6 60 -77z" />
    <glyph glyph-name="Scaron" unicode="&#x160;" horiz-adv-x="568" 
d="M634 928l-174 -170h-32l-103 170h62l67 -106q26 26 54 53.5t53 52.5h73zM583 183q-10 -48 -40 -87t-75 -66q-39 -22 -86 -34t-95 -12q-131 0 -193 64q-47 50 -47 130q0 19 3 40t8 46h58q-5 -29 -8.5 -51t-3.5 -34q0 -138 187 -138q42 0 78.5 8.5t69.5 27.5v-1
q37 20 58.5 48.5t29.5 66.5q3 19 3 31q0 66 -80 94h2q-53 14 -108 28.5t-109 28.5q-102 40 -102 132q0 19 5 41q11 48 39 86.5t73 63.5q72 41 175 41q219 0 219 -175q0 -13 -2 -31t-5 -39h-58q3 23 5.5 40.5t2.5 26.5q0 121 -166 121q-83 0 -143 -32q-66 -36 -83 -110
q-2 -7 -3 -14t-1 -11q0 -61 83 -90h-2q54 -14 110 -29.5t110 -29.5q96 -39 96 -138q0 -20 -5 -43z" />
    <glyph glyph-name="scaron" unicode="&#x161;" horiz-adv-x="436" 
d="M519 722l-170 -167h-31l-102 167h62l65 -104l53 53t52 51h71zM438 136q-17 -72 -85 -113q-59 -34 -134 -34q-181 0 -181 142q0 14 2.5 32.5t6.5 38.5h58q-5 -23 -7.5 -39.5t-2.5 -25.5q0 -92 128 -92q27 0 52 5.5t47 18.5h1q48 25 60 74q10 54 -52 78h2q-21 5 -42 11.5
t-42 11.5q-16 5 -33 9t-33 9q-78 31 -78 102q0 16 3 31q14 69 82 105q54 30 123 30q163 0 163 -127q0 -10 -1.5 -24.5t-7.5 -38.5h-56q5 21 7.5 36.5t2.5 21.5q0 76 -112 76q-52 0 -91 -20q-45 -24 -54 -67q-13 -52 52 -76h-2q38 -11 79.5 -22.5t78.5 -22.5q85 -34 67 -129z
" />
    <glyph glyph-name="brokenbar" unicode="&#xa6;" horiz-adv-x="95" 
d="M164 415h-57l64 307h57zM72 -16h-57l65 308h57z" />
    <glyph glyph-name="Eth" unicode="&#xd0;" horiz-adv-x="674" 
d="M713 357q-34 -160 -139 -257q-111 -100 -270 -100h-231l73 347h-59l11 57h61q16 78 33.5 159t33.5 158h253q157 0 216 -110q15 -29 23 -63t8 -75q0 -28 -3.5 -56.5t-9.5 -59.5zM656 365q13 59 13 106q0 67 -24 112q-44 81 -175 81h-197q-14 -67 -28 -129t-28 -131h281
l-12 -57h-281q-17 -77 -31.5 -144.5t-30.5 -145.5h170q134 0 226 88q88 82 117 220z" />
    <glyph glyph-name="eth" unicode="&#xf0;" horiz-adv-x="506" 
d="M527 247q-23 -109 -97 -180q-82 -77 -189 -77q-109 0 -158 82v-1q-16 25 -23 53t-7 60q0 15 1.5 33t6.5 38l-1 -1q11 54 35.5 98.5t62.5 81.5q82 79 187 79q53 0 93 -19q-13 25 -30 49t-37 47q-29 -15 -64.5 -32.5t-63.5 -31.5l-34 44l123 60q-15 11 -35.5 24.5
t-42.5 26.5l52 37q25 -16 45 -29.5t36 -30.5q31 16 65.5 33t63.5 31l35 -44l-125 -63q54 -68 82 -139.5t28 -144.5q0 -45 -9 -84zM472 254q6 33 6 58q0 50 -21 84q-35 61 -115 61q-83 0 -147 -62q-61 -58 -79 -148q-4 -16 -5.5 -30.5t-1.5 -27.5q0 -50 22 -85
q35 -59 115 -59q83 0 148 63q59 59 78 146z" />
    <glyph glyph-name="Yacute" unicode="&#xdd;" horiz-adv-x="606" 
d="M642 928l-214 -175h-71l197 175h88zM770 721l-383 -422q-15 -72 -31 -149.5t-31 -149.5h-59l64 305q-23 49 -48.5 102t-51 106.5t-51 106t-48.5 101.5h66l173 -360q78 88 163 180.5t163 179.5h74z" />
    <glyph glyph-name="yacute" unicode="&#xfd;" horiz-adv-x="444" 
d="M512 722l-208 -171h-69l192 171h85zM552 519l-361 -608q-29 -50 -71 -66q-30 -11 -108 -11l11 56q68 0 91 13q10 6 19.5 17.5t19.5 27.5q5 8 9.5 16.5t9.5 16.5q8 12 13.5 21t12.5 23q-25 119 -51.5 247t-50.5 247h59l86 -423q61 105 124.5 212.5t124.5 210.5h62z" />
    <glyph glyph-name="Thorn" unicode="&#xde;" horiz-adv-x="547" 
d="M625 393q-26 -120 -137 -170q-81 -35 -212 -35h-29.5t-36.5 1h-26q-29 2 -40 2.5t-22 0.5q-9 -45 -20 -96.5t-20 -95.5h-59l153 721h58l-25 -118q12 0 27.5 0.5t35.5 1.5q32 2 58.5 3t43.5 1q131 0 190 -37q66 -41 66 -125q0 -14 -1.5 -27t-3.5 -27zM568 401q3 14 4 25
t1 20q0 100 -137 100h-240q-8 -40 -15.5 -76.5t-14.5 -72t-14.5 -72t-16.5 -76.5h230q73 0 131 40q57 38 72 112z" />
    <glyph glyph-name="thorn" unicode="&#xfe;" horiz-adv-x="489" 
d="M532 257q-24 -110 -89 -184q-78 -84 -187 -84q-56 0 -97 22.5t-63 64.5q-13 -61 -25.5 -122.5t-25.5 -119.5h-57l185 873h58l-52 -254q74 77 184 77q114 0 157 -87q10 -23 15.5 -48.5t5.5 -54.5q0 -20 -2.5 -40.5t-6.5 -42.5zM476 265q4 21 6.5 39.5t2.5 34.5
q0 22 -3.5 40.5t-11.5 34.5v-1q-28 61 -111 61q-85 0 -148 -65q-55 -58 -76 -152q-4 -20 -6 -36.5t-2 -31.5q0 -23 4 -44t14 -38q31 -62 115 -62t145 66q50 59 71 154z" />
    <glyph glyph-name="minus" unicode="&#xad;" horiz-adv-x="585" 
d="M581 226h-506l10 55h507z" />
    <glyph glyph-name="minus" unicode="&#x2212;" horiz-adv-x="585" 
d="M581 226h-506l10 55h507z" />
    <glyph glyph-name="multiply" unicode="&#xd7;" horiz-adv-x="476" 
d="M458 77l-43 -41l-140 180q-53 -44 -108.5 -90t-106.5 -90l-30 47l214 176q-33 43 -70.5 90t-69.5 87l44 37l138 -179q53 45 107 89.5t106 88.5l37 -39l-216 -180z" />
    <glyph glyph-name="onesuperior" unicode="&#xb9;" horiz-adv-x="181" 
d="M207 260h-58l70 332q-23 -14 -51.5 -24.5t-66.5 -20.5l10 56q38 11 70.5 30.5t64.5 46.5h50z" />
    <glyph glyph-name="twosuperior" unicode="&#xb2;" horiz-adv-x="340" 
d="M385 260h-316q10 42 34 77t65 61q17 10 34 19.5t34 20.5q17 10 34.5 20t34.5 21h-1q34 23 53.5 46t25.5 49q5 28 -14 42q-22 14 -59 14q-98 0 -121 -113h-58q39 169 183 169q59 0 93 -25q45 -33 31 -95q-14 -66 -97 -127q-2 0 -5.5 -2t-11.5 -6h1q-15 -10 -43 -27
t-70 -42q-20 -13 -35.5 -24t-25.5 -22h245z" />
    <glyph glyph-name="threesuperior" unicode="&#xb3;" horiz-adv-x="366" 
d="M417 381q-14 -62 -71 -97q-50 -31 -109 -31q-78 0 -115 39q-30 30 -30 79q0 11 2 25t5 30h58q-5 -22 -7 -34t-2 -19q0 -64 91 -64q42 0 77 20q36 20 45 59q5 20 -0.5 34.5t-19.5 21.5q-26 12 -105 12l8 57q72 0 101 10q18 8 31 22t18 32q11 53 -77 53q-105 0 -127 -105
h-57q9 44 27 76t46 51h-1q49 34 117 34q151 0 127 -116q-13 -60 -67 -88q4 -3 8.5 -6.5t8.5 -7.5q29 -33 18 -87z" />
    <glyph glyph-name="onehalf" unicode="&#xbd;" horiz-adv-x="742" 
d="M706 0h-315q17 86 98 139l137 81h-1q68 47 78 94q7 28 -14 43q-19 13 -58 13q-98 0 -122 -113h-57q39 169 184 169q58 0 92 -25q23 -17 30 -41t1 -54q-14 -65 -95 -125q-4 -2 -30 -17.5t-77 -46.5q-7 -4 -13 -7t-12 -8q-22 -14 -36.5 -24.5t-24.5 -21.5h246zM711 707
l-623 -739h-70l623 739h70zM235 260h-57l70 332q-45 -26 -118 -45l10 56q71 22 134 77h51z" />
    <glyph glyph-name="onequarter" unicode="&#xbc;" horiz-adv-x="668" 
d="M652 96h-72q-5 -23 -9.5 -49.5t-8.5 -46.5h-58l19 96h-205l12 51l266 273h54l-57 -269h71zM717 707l-623 -739h-70l623 739h70zM232 260h-58l70 332q-23 -14 -51.5 -24.5t-66.5 -20.5l10 56q38 11 70.5 30.5t64.5 46.5h50zM536 151q5 26 8.5 44.5t7.5 36t8 37t10 48.5
q-24 -25 -42 -44t-35.5 -37t-37 -38t-45.5 -47h126z" />
    <glyph glyph-name="threequarters" unicode="&#xbe;" horiz-adv-x="766" 
d="M743 96h-72q-5 -23 -9.5 -49.5t-8.5 -46.5h-58l20 96h-205l12 51l265 273h54l-57 -269h71zM813 707l-623 -739h-69l623 739h69zM420 381q-14 -62 -71 -97q-50 -31 -109 -31q-77 0 -116 39q-29 29 -29 78q0 11 2 25t5 31h58q-5 -22 -7 -34t-2 -19q0 -64 91 -64q41 0 78 20
q37 22 44 59q6 37 -14 53q-23 17 -65 17q-4 0 -18 -1.5t-29 -3.5l9 60q72 0 101 10q18 8 31.5 22t18.5 32q9 53 -78 53q-105 0 -127 -105h-57q9 44 27 76t46 51h-1q49 34 117 34q151 0 127 -116q-13 -60 -67 -88q5 -4 8.5 -6.5t7.5 -7.5q31 -33 19 -87zM627 151q5 26 9 44.5
t7.5 36t7.5 37t10 48.5q-24 -25 -42 -44t-35.5 -37t-37 -38t-45.5 -47h126z" />
    <glyph glyph-name="Lslash" unicode="&#x141;" horiz-adv-x="534" 
d="M530 0h-454l49 235q-20 -12 -41.5 -25.5t-33.5 -20.5l10 70l82 49q20 99 42.5 204t42.5 202h59l-78 -365q32 19 66.5 40l69 42t67.5 41.5t63 38.5l-10 -70l-270 -165q-12 -59 -24 -109.5t-24 -109.5h395z" />
    <glyph glyph-name="lslash" unicode="&#x142;" horiz-adv-x="172" 
d="M268 430l-78 -58q-19 -90 -39.5 -185.5t-39.5 -186.5h-57l67 322q-21 -15 -41.5 -30t-33.5 -25l11 75l82 59q15 72 31 149.5t31 149.5h58l-53 -251q23 17 45.5 33.5t36.5 26.5z" />
    <glyph glyph-name="Zcaron" unicode="&#x17d;" horiz-adv-x="542" 
d="M624 920l-173 -170h-33l-103 170h63l66 -105q26 26 53.5 52.5t53.5 52.5h73zM537 0h-536l7 53l582 605h-425l10 56h502l-7 -53l-582 -604h460z" />
    <glyph glyph-name="zcaron" unicode="&#x17e;" horiz-adv-x="419" 
d="M513 716l-171 -166h-32l-100 166h61l65 -103q26 26 53 51.5t52 51.5h72zM411 0h-406l8 50l401 409h-287l10 55h367l-12 -51l-398 -407h328z" />
    <glyph glyph-name="fraction" unicode="&#x2044;" horiz-adv-x="501" 
d="M656 700l-621 -732h-69l620 732h70z" />
    <glyph glyph-name="fi" unicode="&#xf001;" horiz-adv-x="327" 
d="M333 459h-104q-24 -112 -48.5 -230t-48.5 -229h-57l96 459h-80l11 55h81q2 6 2.5 13.5t2.5 15.5q3 15 4.5 25.5t3.5 17.5q5 26 15 47t22 34q33 33 99 33q4 0 60 -6l-9 -56q-42 6 -59 6q-31 0 -46 -11t-21 -42l-17 -77h160l-109 -514h-58z" />
    <glyph glyph-name="dotlessi" unicode="&#x131;" horiz-adv-x="116" 
d="M75 0h-57l108 514h58z" />
    <glyph glyph-name="breve" unicode="&#x2d8;" horiz-adv-x="298" 
d="M433 716q-21 -65 -65.5 -101t-98.5 -36t-83.5 37.5t-24.5 99.5h57q-3 -36 12.5 -58.5t42.5 -22.5q76 0 103 81h57z" />
    <glyph glyph-name="dotaccent" unicode="&#x2d9;" horiz-adv-x="116" 
d="M194 548h-57l23 112h57z" />
    <glyph glyph-name="ring" unicode="&#x2da;" horiz-adv-x="230" 
d="M348 641q-5 -20 -16.5 -37.5t-27 -31t-35 -21t-38.5 -7.5q-21 0 -38.5 8.5t-28.5 23t-15.5 33.5t0.5 40l-1 -1q5 19 15.5 36.5t27.5 31.5v-1q34 30 74 30q21 0 38 -8.5t28.5 -23t16.5 -33t1 -39.5h-1zM293 648q4 17 -5 29t-26 12q-19 0 -36 -14t-22 -34q-3 -17 5.5 -29
t25.5 -12q20 0 37 14t21 34z" />
    <glyph glyph-name="hungarumlaut" unicode="&#x2dd;" horiz-adv-x="342" 
d="M513 716l-210 -171h-70l193 171h87zM373 716l-210 -171h-69l193 171h86z" />
    <glyph glyph-name="ogonek" unicode="&#x2db;" horiz-adv-x="204" 
d="M180 -120q-64 -55 -125 -55q-37 0 -60 20.5t-14 58.5h-1q12 59 128 133h96q-82 -53 -123.5 -88t-45.5 -52q-2 -8 6 -12.5t19 -4.5q40 0 76 35z" />
    <glyph glyph-name="caron" unicode="&#x2c7;" horiz-adv-x="270" 
d="M438 716l-171 -166h-32l-100 166h61l65 -103q26 26 53 51.5t52 51.5h72z" />
    <glyph glyph-name="glyph224" horiz-adv-x="205" 
 />
    <glyph glyph-name="ae" unicode="&#xe6;" horiz-adv-x="971" 
d="M533 445q-3 5 -2 -5l1 -1q0 4 1 6zM587 431q3 3 6 6.5t7 7.5q40 42 87 63.5t98 21.5q59 0 98.5 -22t62.5 -66q22 -43 22 -104q0 -20 -2.5 -44.5t-10.5 -55.5h-398q-6 -33 -6 -59q0 -22 4 -41.5t11 -34.5q31 -58 114 -58q70 0 125.5 42t82.5 117h57q-18 -57 -45 -97
t-62 -66q-68 -52 -159 -52q-117 0 -163 85q0 1 -1 2.5t-2 3.5q-4 -20 -8.5 -41.5t-7.5 -38.5h-58l16 74l-2 -2q-81 -83 -190 -83q-54 0 -95 22.5t-65 64.5q-28 50 -28 112q0 20 2 38.5t6 37.5q11 53 36 99.5t62 84.5q84 82 189 82q112 0 160 -87q0 -1 0.5 -1.5t0.5 -1.5
l1 -1q3 -4 3 -0.5t-2 6.5q3 19 7.5 38t8.5 36h57zM910 293q2 12 3 23.5t1 21.5q0 48 -19 80q-32 56 -112 56q-79 0 -141 -62q-24 -24 -42.5 -53.5t-30.5 -65.5h341zM495 264q3 17 5 32t2 29q0 24 -4.5 46t-15.5 41l1 -1q-36 63 -116 63q-85 0 -149 -66q-60 -60 -79 -152
q-4 -17 -5.5 -32.5t-1.5 -29.5q0 -23 5.5 -46t14.5 -41q34 -62 115 -62q84 0 150 66q59 62 78 153z" />
    <glyph glyph-name="aring" unicode="&#xe5;" 
d="M443 74l-2 -2q-81 -83 -190 -83q-54 0 -95 22.5t-65 64.5q-28 50 -28 112q0 20 2 38.5t6 37.5q11 53 36 99.5t62 84.5q84 82 189 82q60 0 104.5 -14t87.5 -31q5 -2 17 -6.5t18 -6.5l-100 -472h-58zM520 434q-35 17 -75 29t-90 11q-85 0 -149 -66q-60 -60 -79 -152
q-3 -17 -5 -32.5t-2 -29.5q0 -23 5.5 -46t14.5 -41q34 -62 115 -62q84 0 150 66q59 62 78 153zM499 641q-5 -20 -16.5 -37.5t-27 -31t-35 -21t-38.5 -7.5q-21 0 -38.5 8.5t-28.5 23t-15.5 33.5t0.5 40l-1 -1q5 19 15.5 36.5t27.5 31.5v-1q34 30 74 30q21 0 38 -8.5t28.5 -23
t16.5 -33t1 -39.5h-1zM444 648q4 17 -5 29t-26 12q-19 0 -36 -14t-22 -34q-3 -17 5.5 -29t25.5 -12q20 0 37 14t21 34z" />
    <glyph glyph-name="adieresis" unicode="&#xe4;" 
d="M443 74l-2 -2q-81 -83 -190 -83q-54 0 -95 22.5t-65 64.5q-28 50 -28 112q0 20 2 38.5t6 37.5q11 53 36 99.5t62 84.5q84 82 189 82q60 0 104.5 -14t87.5 -31q5 -2 17 -6.5t18 -6.5l-100 -472h-58zM520 434q-35 17 -75 29t-90 11q-85 0 -149 -66q-60 -60 -79 -152
q-3 -17 -5 -32.5t-2 -29.5q0 -23 5.5 -46t14.5 -41q34 -62 115 -62q84 0 150 66q59 62 78 153zM480 553h-57l25 114h57zM335 553h-57l25 114h57z" />
    <glyph glyph-name="atilde" unicode="&#xe3;" 
d="M443 74l-2 -2q-81 -83 -190 -83q-54 0 -95 22.5t-65 64.5q-28 50 -28 112q0 20 2 38.5t6 37.5q11 53 36 99.5t62 84.5q84 82 189 82q60 0 104.5 -14t87.5 -31q5 -2 17 -6.5t18 -6.5l-100 -472h-58zM520 434q-35 17 -75 29t-90 11q-85 0 -149 -66q-60 -60 -79 -152
q-3 -17 -5 -32.5t-2 -29.5q0 -23 5.5 -46t14.5 -41q34 -62 115 -62q84 0 150 66q59 62 78 153zM545 673q-10 -47 -37 -77.5t-65 -30.5q-15 0 -31.5 8.5t-36.5 23.5q-24 23 -39 23q-6 0 -12 -5t-12 -13t-10.5 -18t-6.5 -20h-55q9 55 39 82v-1q30 31 62 31t68 -33
q28 -22 38 -22q14 0 26 16t17 36h55z" />
    <glyph glyph-name="acircumflex" unicode="&#xe2;" 
d="M443 74l-2 -2q-81 -83 -190 -83q-54 0 -95 22.5t-65 64.5q-28 50 -28 112q0 20 2 38.5t6 37.5q11 53 36 99.5t62 84.5q84 82 189 82q60 0 104.5 -14t87.5 -31q5 -2 17 -6.5t18 -6.5l-100 -472h-58zM520 434q-35 17 -75 29t-90 11q-85 0 -149 -66q-60 -60 -79 -152
q-3 -17 -5 -32.5t-2 -29.5q0 -23 5.5 -46t14.5 -41q34 -62 115 -62q84 0 150 66q59 62 78 153zM528 555h-61l-65 104q-26 -26 -53.5 -52.5t-51.5 -51.5h-72l170 167h32z" />
    <glyph glyph-name="aacute" unicode="&#xe1;" 
d="M443 74l-2 -2q-81 -83 -190 -83q-54 0 -95 22.5t-65 64.5q-28 50 -28 112q0 20 2 38.5t6 37.5q11 53 36 99.5t62 84.5q84 82 189 82q60 0 104.5 -14t87.5 -31q5 -2 17 -6.5t18 -6.5l-100 -472h-58zM520 434q-35 17 -75 29t-90 11q-85 0 -149 -66q-60 -60 -79 -152
q-3 -17 -5 -32.5t-2 -29.5q0 -23 5.5 -46t14.5 -41q34 -62 115 -62q84 0 150 66q59 62 78 153zM538 722l-208 -171h-68l192 171h84z" />
    <glyph glyph-name="agrave" unicode="&#xe0;" 
d="M443 74l-2 -2q-81 -83 -190 -83q-54 0 -95 22.5t-65 64.5q-28 50 -28 112q0 20 2 38.5t6 37.5q11 53 36 99.5t62 84.5q84 82 189 82q60 0 104.5 -14t87.5 -31q5 -2 17 -6.5t18 -6.5l-100 -472h-58zM520 434q-35 17 -75 29t-90 11q-85 0 -149 -66q-60 -60 -79 -152
q-3 -17 -5 -32.5t-2 -29.5q0 -23 5.5 -46t14.5 -41q34 -62 115 -62q84 0 150 66q59 62 78 153zM491 551h-58l-129 171h75z" />
    </font>
</defs>
</svg>
