<?xml version="1.0" standalone="no"?>
<!DOCTYPE svg PUBLIC "-//W3C//DTD SVG 1.1//EN" "http://www.w3.org/Graphics/SVG/1.1/DTD/svg11.dtd" >
<svg>
<metadata>
Created by FontForge 20110222 at Mon Jan 20 11:16:08 2014
 By Orthosie Webhosting
Copyright (c) 2012 by Alvaro Thomaz. All rights reserved.
</metadata>
<defs>
<font id="Aliquam-UltralightItalic" horiz-adv-x="532" >
  <font-face 
    font-family="Aliquam"
    font-weight="200"
    font-style="italic"
    font-stretch="normal"
    units-per-em="1000"
    panose-1="2 0 5 6 0 0 0 9 0 4"
    ascent="800"
    descent="-200"
    x-height="519"
    cap-height="721"
    bbox="-38 -191 1145 940"
    underline-thickness="50"
    underline-position="-75"
    slope="-12"
    unicode-range="U+0020-F001"
  />
<missing-glyph horiz-adv-x="454" 
d="M39 0l170 804h375l-170 -804h-375zM114 63h250l144 679h-250z" />
    <glyph glyph-name=".notdef" horiz-adv-x="454" 
d="M39 0l170 804h375l-170 -804h-375zM114 63h250l144 679h-250z" />
    <glyph glyph-name="NULL" horiz-adv-x="0" 
 />
    <glyph glyph-name="nonmarkingreturn" horiz-adv-x="205" 
 />
    <glyph glyph-name="space" unicode=" " horiz-adv-x="205" 
 />
    <glyph glyph-name="exclam" unicode="!" horiz-adv-x="110" 
d="M96 184h-20l114 537h20zM57 0h-20l21 99h20z" />
    <glyph glyph-name="quotedbl" unicode="&#x22;" horiz-adv-x="212" 
d="M276 494h-20l48 227h20zM164 494h-20l48 227h20z" />
    <glyph glyph-name="numbersign" unicode="#" horiz-adv-x="507" 
d="M587 430h-121l-62 -179h117l-4 -20h-121l-80 -231h-20l80 231h-172l-80 -231h-20l80 231h-125l4 20h130l62 179h-126l4 20h131l82 237h20l-82 -237h171l82 237h20l-82 -237h116zM446 430h-171l-62 -179h171z" />
    <glyph glyph-name="dollar" unicode="$" horiz-adv-x="568" 
d="M586 177q-20 -96 -113 -149q-79 -45 -180 -45l-19 -89h-20l19 90q-121 5 -174 68q-56 66 -31 187h20q-48 -227 189 -235l77 360q-113 26 -150 50q-68 45 -48 138q20 95 105 144q71 41 172 42l10 44h20l-10 -45q228 -5 192 -218h-20q35 193 -176 198l-72 -337
q131 -35 161 -54q70 -46 48 -149zM358 385l71 333q-90 -1 -156 -37q-79 -44 -97 -129q-18 -82 47 -122q33 -22 135 -45zM566 178q19 90 -48 132q-31 20 -145 49l-76 -356q93 0 166 40q85 48 103 135z" />
    <glyph glyph-name="percent" unicode="%" horiz-adv-x="692" 
d="M443 525q-15 -73 -67.5 -122t-123.5 -49q-73 0 -104 50q-28 46 -12 120q16 75 63 123q52 52 126 52t105 -51q29 -47 13 -123zM744 721l-637 -755h-23l637 755h23zM702 160q-16 -73 -67 -121q-54 -51 -125 -51q-73 0 -103 50q-28 47 -13 121q16 75 63 123q52 51 126 51
t106 -50q29 -47 13 -123zM423 524q15 70 -9 110q-26 45 -93 45t-111 -45q-39 -41 -54 -110q-14 -65 10 -106q26 -44 90 -44q63 0 108 43t59 107zM681 159q15 69 -10 111.5t-92 42.5t-111 -45q-39 -40 -54 -109q-14 -65 11 -106q25 -45 89 -45q63 0 110 45q44 42 57 106z" />
    <glyph glyph-name="ampersand" unicode="&#x26;" horiz-adv-x="567" 
d="M552 0h-26l-65 114q-99 -131 -237 -131q-80 0 -130 49q-53 52 -36 130q16 76 94 141q44 37 148 95q-25 44 -48 88q-27 57 -18 101q13 61 63 97.5t112 36.5t96 -36.5t21 -97.5t-77 -114q-19 -16 -121 -80l137 -240q35 54 67 178h20q-32 -128 -77 -197zM506 587
q11 51 -18.5 82.5t-81.5 31.5q-53 0 -96.5 -30t-54.5 -82q-8 -38 18 -96q4 -10 46 -85q83 49 113 74q63 51 74 105zM452 133l-143 249q-106 -59 -141 -88q-75 -59 -90 -132q-15 -72 32 -117q44 -42 118 -42q132 0 224 130z" />
    <glyph glyph-name="quotesingle" unicode="'" horiz-adv-x="114" 
d="M164 494h-20l48 227h20z" />
    <glyph glyph-name="parenleft" unicode="(" horiz-adv-x="160" 
d="M109 -179h-20q-68 229 -18 464q50 237 212 453h20q-162 -216 -212 -453q-53 -248 18 -464z" />
    <glyph glyph-name="parenright" unicode=")" horiz-adv-x="161" 
d="M208 275q-50 -236 -212 -454h-20q162 218 212 454q53 249 -19 463h20q69 -228 19 -463z" />
    <glyph glyph-name="asterisk" unicode="*" horiz-adv-x="306" 
d="M425 604l-139 -43l59 -111l-18 -12l-60 109l-107 -105l-13 14l111 105l-121 43l10 19l117 -43l30 141h20l-30 -141l141 43v-19z" />
    <glyph glyph-name="plus" unicode="+" horiz-adv-x="506" 
d="M557 245h-242l-52 -245h-20l52 245h-242l4 21h242l52 245h20l-52 -245h242z" />
    <glyph glyph-name="comma" unicode="," horiz-adv-x="80" 
d="M54 0q-19 -89 -69 -120l4 20q31 26 51 123q4 18 8.5 44t6.5 32h20z" />
    <glyph glyph-name="hyphen" unicode="-" horiz-adv-x="255" 
d="M269 261h-175l4 20h175z" />
    <glyph glyph-name="hyphen" unicode="&#x2010;" horiz-adv-x="255" 
d="M269 261h-175l4 20h175z" />
    <glyph glyph-name="period" unicode="." horiz-adv-x="114" 
d="M59 0h-20l21 99h20z" />
    <glyph glyph-name="slash" unicode="/" horiz-adv-x="349" 
d="M504 738l-487 -755h-19l486 755h20z" />
    <glyph glyph-name="zero" unicode="0" horiz-adv-x="572" 
d="M615 343q-31 -146 -105 -239q-92 -116 -227 -116q-136 0 -178 116q-35 93 -4 239t105 240q92 116 228 116q135 0 177 -116q35 -94 4 -240zM595 343q30 137 -1 225q-38 111 -164 111q-127 0 -212 -111q-67 -88 -97 -225q-29 -137 2 -225q37 -110 164 -110q126 0 211 110
q68 88 97 225z" />
    <glyph glyph-name="one" unicode="1" horiz-adv-x="243" 
d="M203 0h-20l140 661h-2l-207 -122l5 21l208 127h22z" />
    <glyph glyph-name="two" unicode="2" horiz-adv-x="495" 
d="M487 0h-458q19 93 147 183l234 148q128 90 148 183q17 79 -30 124q-43 41 -124 41q-100 0 -164 -60q-60 -56 -81 -157h-20q23 110 91.5 173.5t177.5 63.5q90 0 137 -46q52 -50 33 -139q-21 -98 -146 -190q-113 -72 -227 -145q-128 -84 -152 -159h438z" />
    <glyph glyph-name="three" unicode="3" horiz-adv-x="536" 
d="M547 190q-20 -92 -103 -149q-76 -53 -170 -53q-111 0 -168 56q-61 61 -32 168l5 20h20l-6 -22q-26 -98 31 -152q52 -50 154 -50q86 0 155 47q76 51 94 135q22 104 -47 143q-48 27 -161 27l4 20q105 0 160 23q83 34 103 127q16 75 -37 115q-45 34 -124 34
q-100 0 -167.5 -53t-88.5 -152h-20q23 108 97 166.5t183 58.5q89 0 138 -39q57 -45 39 -130q-14 -67 -63 -110t-117 -49v-2q71 -7 104 -55.5t17 -123.5z" />
    <glyph glyph-name="four" unicode="4" horiz-adv-x="502" 
d="M528 179h-123l-38 -179h-20l38 179h-345l5 24l443 484h25l-104 -488h123zM389 199l98 460h-2l-421 -460h325z" />
    <glyph glyph-name="five" unicode="5" horiz-adv-x="510" 
d="M544 228q-23 -107 -101.5 -173.5t-184.5 -66.5q-108 0 -158.5 62.5t-28.5 169.5h20q-21 -99 25.5 -155.5t145.5 -56.5q98 0 169.5 60.5t92.5 159.5q20 96 -26.5 156.5t-142.5 60.5q-60 0 -115 -26q-60 -29 -97 -79h-25l147 347h349l-5 -20h-333l-124 -294h2q77 93 206 93
q104 0 155 -67t29 -171z" />
    <glyph glyph-name="six" unicode="6" horiz-adv-x="534" 
d="M554 225q-21 -98 -104.5 -167.5t-180.5 -69.5q-243 0 -172 336q32 150 105 249q94 126 231 126q80 0 129 -47.5t44 -126.5h-20q0 73 -42 113.5t-116 40.5q-136 0 -223 -136q-63 -97 -96 -253h2q31 75 106 124t153 49q97 0 151 -70.5t33 -167.5zM534 225q19 89 -30.5 153
t-138.5 64q-90 0 -166 -64t-95 -153t30 -153t139 -64q89 0 165.5 64t95.5 153z" />
    <glyph glyph-name="seven" unicode="7" horiz-adv-x="516" 
d="M652 660q-182 -150 -287 -299q-120 -169 -160 -361h-20q76 361 446 667h-412l5 20h434z" />
    <glyph glyph-name="eight" unicode="8" horiz-adv-x="548" 
d="M561 192q-21 -102 -108 -156q-76 -48 -182 -48t-163 48q-62 54 -41 156q17 79 74.5 128.5t139.5 56.5v2q-57 8 -89 48t-20 98q19 89 93 134q64 40 157 40q92 0 140 -40q55 -45 36 -134q-12 -58 -61 -98t-110 -48v-2q77 -7 114 -56.5t20 -128.5zM578 525q17 80 -33 120
q-44 34 -127 34q-84 0 -142 -34q-67 -40 -84 -120q-15 -69 41 -107q48 -32 123 -32q74 0 134 32q73 38 88 107zM541 192q20 92 -42 137q-50 37 -148 37t-165 -37q-79 -45 -99 -137q-19 -93 39 -142q52 -42 149 -42t166 42q81 49 100 142z" />
    <glyph glyph-name="nine" unicode="9" horiz-adv-x="535" 
d="M583 363q-32 -150 -106 -249q-94 -126 -231 -126q-81 0 -130 47.5t-43 126.5h20q0 -73 41.5 -113.5t116.5 -40.5q135 0 223 136q63 97 96 253h-2q-32 -75 -106.5 -124t-152.5 -49q-97 0 -151 70.5t-33 167.5q21 98 104 167.5t181 69.5q244 0 173 -336zM575 462
q19 89 -30.5 153t-138.5 64t-165.5 -64t-95.5 -153q-19 -90 30 -154t138 -64q90 0 166.5 64t95.5 154z" />
    <glyph glyph-name="colon" unicode=":" horiz-adv-x="69" 
d="M148 420h-20l21 99h20zM59 0h-20l21 99h20z" />
    <glyph glyph-name="semicolon" unicode=";" horiz-adv-x="77" 
d="M136 420h-20l21 99h20zM47 0q-19 -89 -69 -120l4 20q31 26 51 123q4 18 8.5 44t6.5 32h20z" />
    <glyph glyph-name="less" unicode="&#x3c;" horiz-adv-x="537" 
d="M507 -8l-455 251l5 25l562 251l-5 -21l-541 -242l438 -243z" />
    <glyph glyph-name="equal" unicode="=" horiz-adv-x="525" 
d="M586 343h-504l5 21h504zM545 147h-504l4 21h504z" />
    <glyph glyph-name="greater" unicode="&#x3e;" horiz-adv-x="537" 
d="M587 243l-561 -251l4 21l542 243l-439 242l5 21l454 -251z" />
    <glyph glyph-name="question" unicode="?" horiz-adv-x="432" 
d="M542 571q-16 -76 -80 -134q-58 -49 -115 -97q-65 -64 -84 -156h-20q20 95 85 162q57 49 116 98q63 57 78 127q15 72 -30 112q-41 35 -116 35q-97 0 -162 -63q-61 -58 -55 -157h-20q-4 107 64 171q73 69 177 69q82 0 129 -41q50 -46 33 -126zM224 0h-20l21 99h20z" />
    <glyph glyph-name="at" unicode="@" horiz-adv-x="741" 
d="M801 415q-20 -94 -98 -183q-88 -99 -178 -99q-28 0 -40 18t-6 46h-2q-58 -64 -149 -64q-59 0 -89 45q-29 42 -16 102q22 104 107 194q92 98 192 98q45 0 80 -22.5t39 -63.5h2l38 66h21l-112 -182q-85 -143 -92 -177q-9 -39 33 -39q81 0 161 93q71 83 89 168
q27 127 -45 207q-70 77 -199 77q-143 0 -263.5 -99.5t-151.5 -242.5q-33 -155 40.5 -252t227.5 -97q86 0 174 45q85 42 150 115h23q-66 -81 -161.5 -130.5t-189.5 -49.5q-163 0 -240.5 102.5t-43.5 266.5q33 152 160 257t279 105q138 0 212 -82q77 -86 48 -222zM626 461
q-4 90 -112 90q-89 0 -174 -93q-77 -85 -97 -178q-11 -53 15 -89.5t78 -36.5q68 0 128 56q45 42 92 124q36 63 70 127z" />
    <glyph glyph-name="A" unicode="A" horiz-adv-x="625" 
d="M611 0h-22l-44 237h-364l-145 -237h-23l443 721h26zM541 258l-75 443h-2l-271 -443h348z" />
    <glyph glyph-name="B" unicode="B" horiz-adv-x="600" 
d="M611 196q-20 -97 -103 -150q-72 -46 -173 -46h-295l153 721h307q89 0 133 -45q48 -49 29 -135q-13 -65 -66.5 -112.5t-118.5 -51.5l-1 -2q76 -2 113.5 -52.5t21.5 -126.5zM642 541q17 78 -26 121q-40 39 -120 39h-287l-67 -315h287q76 0 134 39q64 43 79 116zM591 195
q18 85 -33 130q-46 41 -134 41h-287l-73 -346h284q89 0 154 42q71 47 89 133z" />
    <glyph glyph-name="C" unicode="C" horiz-adv-x="688" 
d="M725 283q-47 -134 -143 -214q-103 -86 -235 -86q-149 0 -215 114q-62 104 -29 258q34 161 143 268q117 115 274 115q105 0 176 -63q77 -69 60 -170h-20q12 95 -57 156q-65 57 -163 57q-147 0 -257 -110q-104 -102 -136 -253q-31 -144 27 -243q62 -109 201 -109
q124 0 220 80q90 75 134 200h20z" />
    <glyph glyph-name="D" unicode="D" horiz-adv-x="622" 
d="M670 361q-34 -163 -140 -260q-111 -101 -271 -101h-219l153 721h250q154 0 210 -105q51 -95 17 -255zM650 361q33 156 -14 243q-53 97 -202 97h-225l-145 -681h204q148 0 253 98q97 92 129 243z" />
    <glyph glyph-name="E" unicode="E" horiz-adv-x="517" 
d="M517 0h-478l153 721h474l-4 -20h-454l-67 -315h427l-5 -20h-427l-73 -346h458z" />
    <glyph glyph-name="F" unicode="F" horiz-adv-x="479" 
d="M628 701h-420l-67 -315h380l-5 -20h-380l-77 -366h-20l153 721h440z" />
    <glyph glyph-name="G" unicode="G" horiz-adv-x="697" 
d="M738 317q-14 -63 -34.5 -108t-44.5 -78t-52 -56.5t-55 -41.5q-92 -50 -193 -50q-159 0 -226 112q-63 103 -29 266q34 159 143 264q116 113 272 113q116 0 184 -64.5t61 -177.5h-20q3 104 -59.5 163t-169.5 59q-146 0 -256 -107q-103 -100 -135 -250q-33 -154 28 -252
q63 -106 214 -106q138 0 233 91q88 84 118 223h-277l4 20h297z" />
    <glyph glyph-name="H" unicode="H" horiz-adv-x="619" 
d="M579 0h-20l77 366h-500l-77 -366h-20l153 721h20l-71 -335h500l71 335h20z" />
    <glyph glyph-name="I" unicode="I" horiz-adv-x="114" 
d="M67 0h-20l153 721h20z" />
    <glyph glyph-name="J" unicode="J" horiz-adv-x="424" 
d="M516 701h-303l4 20h323l-114 -533q-43 -205 -239 -205q-111 0 -140 69q-24 54 9 171h17q-28 -109 -9 -157q24 -63 127 -63q97 0 149 52q48 48 70 148z" />
    <glyph glyph-name="K" unicode="K" horiz-adv-x="629" 
d="M604 0h-27l-269 402l-195 -146l-54 -256h-20l153 721h20l-93 -438l588 438h30l-411 -307z" />
    <glyph glyph-name="L" unicode="L" horiz-adv-x="476" 
d="M476 0h-437l153 721h20l-149 -701h417z" />
    <glyph glyph-name="M" unicode="M" horiz-adv-x="750" 
d="M711 0h-20l147 696h-2l-450 -696h-22l-156 696h-2l-147 -696h-20l153 721h33l154 -695h2l450 695h33z" />
    <glyph glyph-name="N" unicode="N" horiz-adv-x="619" 
d="M579 0h-30l-341 696h-2l-147 -696h-20l153 721h30l340 -696h2l148 696h20z" />
    <glyph glyph-name="O" unicode="O" horiz-adv-x="714" 
d="M762 361q-34 -159 -139 -264q-115 -114 -270 -114t-222 114q-61 105 -27 264t139 264q115 113 270 113t222 -113q61 -105 27 -264zM742 361q32 151 -24 250q-62 107 -209 107t-255 -107q-98 -99 -130 -250t24 -250q62 -108 209 -108t255 108q98 99 130 250z" />
    <glyph glyph-name="P" unicode="P" horiz-adv-x="548" 
d="M656 524q-25 -118 -132 -166q-64 -31 -130 -30h-266l-69 -328h-20l153 721h289q100 0 147 -48q49 -51 28 -149zM636 524q38 177 -159 177h-269l-76 -353h269q85 0 149 45q68 48 86 131z" />
    <glyph glyph-name="Q" unicode="Q" horiz-adv-x="702" 
d="M339 -16h-17q-136 8 -197 113q-62 105 -28 264t140 264q114 113 269 113q156 0 222 -113q61 -105 27 -264q-39 -184 -167 -289l-16 -13q-99 -76 -213 -75q-20 -96 159 -83l-10 -20q-194 -13 -169 103zM735 361q32 151 -24 250q-62 107 -209 107t-254 -107
q-99 -99 -131 -250t25 -250q61 -108 208 -108q115 0 207 68l16 13q124 98 162 277z" />
    <glyph glyph-name="R" unicode="R" horiz-adv-x="580" 
d="M510 0l-75 338h-305l-71 -338h-20l153 721h292q218 0 178 -185q-32 -151 -203 -194l76 -342h-25zM643 538q35 163 -158 163h-277l-73 -342h267q88 0 152 44q71 49 89 135z" />
    <glyph glyph-name="S" unicode="S" horiz-adv-x="584" 
d="M594 177q-20 -96 -112 -148q-80 -46 -181 -46q-129 0 -189 62q-63 66 -36 194h20q-50 -236 209 -236q92 0 166 40q85 48 103 135q24 111 -94 155q-111 30 -223 59q-118 45 -93 160q20 97 108 146q72 40 175 40q243 0 206 -219h-20q36 199 -190 199q-93 0 -160 -36
q-81 -43 -99 -130q-22 -104 96 -145q112 -30 223 -60q117 -48 91 -170z" />
    <glyph glyph-name="T" unicode="T" horiz-adv-x="538" 
d="M685 701h-257l-149 -701h-20l149 701h-257l4 20h534z" />
    <glyph glyph-name="U" unicode="U" horiz-adv-x="595" 
d="M616 269q-29 -135 -108 -208q-83 -78 -215 -78t-183 78q-47 73 -18 208l96 452h20l-96 -452q-57 -266 185 -266t299 266l96 452h20z" />
    <glyph glyph-name="V" unicode="V" horiz-adv-x="600" 
d="M740 721l-425 -721h-22l-127 721h20l122 -695h2l410 695h20z" />
    <glyph glyph-name="W" unicode="W" horiz-adv-x="940" 
d="M1068 721l-360 -721h-27l-63 696h-2l-353 -696h-27l-58 721h21l54 -696h2l354 696h29l61 -696h2l347 696h20z" />
    <glyph glyph-name="X" unicode="X" horiz-adv-x="631" 
d="M602 0h-25l-186 355l-338 -355h-25l353 371l-185 350h26l176 -334l320 334h25l-335 -350z" />
    <glyph glyph-name="Y" unicode="Y" horiz-adv-x="618" 
d="M761 721l-378 -417l-64 -304h-20l64 304l-200 417h25l190 -396l359 396h24z" />
    <glyph glyph-name="Z" unicode="Z" horiz-adv-x="536" 
d="M532 0h-527l5 27l643 674h-471l4 20h491l-6 -27l-642 -674h507z" />
    <glyph glyph-name="bracketleft" unicode="[" horiz-adv-x="153" 
d="M114 -179h-113l195 917h113l-4 -20h-93l-186 -877h93z" />
    <glyph glyph-name="backslash" unicode="\" horiz-adv-x="349" 
d="M344 -17h-20l-167 755h20z" />
    <glyph glyph-name="bracketright" unicode="]" horiz-adv-x="156" 
d="M74 -179h-112l5 20h92l186 877h-93l4 20h113z" />
    <glyph glyph-name="asciicircum" unicode="^" horiz-adv-x="510" 
d="M544 229h-20l-128 438l-314 -438h-20l329 458h20z" />
    <glyph glyph-name="underscore" unicode="_" horiz-adv-x="581" 
d="M513 -126h-500l10 50h500z" />
    <glyph glyph-name="grave" unicode="`" horiz-adv-x="161" 
d="M282 593h-15l-109 145h29z" />
    <glyph glyph-name="a" unicode="a" 
d="M502 142q-15 -28 -54 -70q-82 -84 -191 -84q-108 0 -155 84q-42 76 -18 188q23 111 99 188q82 83 190 83q34 0 63.5 -4.5t56 -12.5t51 -18.5t49.5 -20.5l-101 -475h-20zM527 260l43 198q-46 24 -91.5 39t-109.5 14q-99 0 -174 -78q-69 -70 -91 -173q-22 -104 16 -174
q42 -78 142 -78t175 78q68 71 90 174z" />
    <glyph glyph-name="b" unicode="b" horiz-adv-x="496" 
d="M542 259q-24 -111 -93 -186q-77 -85 -184 -85q-159 -2 -215 58l143 675h20l-74 -347h2q35 74 99 115.5t140 41.5q105 0 147 -86q38 -77 15 -186zM522 259q21 102 -11 172q-38 80 -135 80q-103 0 -175 -77q-64 -68 -86 -175l-44 -202q19 -17 42 -27t48 -15.5t52 -6.5t56 0
q98 0 169 79q62 69 84 172z" />
    <glyph glyph-name="c" unicode="c" horiz-adv-x="491" 
d="M503 177q-26 -86 -94.5 -137.5t-155.5 -51.5q-106 0 -152 78q-44 73 -21 182q26 121 101 198q82 85 199 85q78 0 122 -46t36 -123h-20q4 69 -34 109t-108 40q-108 0 -184 -80q-68 -71 -92 -183q-21 -100 18 -167q42 -73 139 -73q77 0 141 46.5t85 122.5h20z" />
    <glyph glyph-name="d" unicode="d" horiz-adv-x="497" 
d="M456 0h-20l30 145h-2q-35 -71 -100 -114t-139 -43q-106 0 -148 85q-37 75 -13 186q23 109 93 186q78 86 183 86q77 0 123.5 -41.5t49.5 -115.5h2l74 347h20zM491 259q23 108 -12 175q-39 77 -143 77q-97 0 -168 -80q-63 -70 -84 -172q-22 -103 10 -172q37 -79 135 -79
t173 79q67 70 89 172z" />
    <glyph glyph-name="e" unicode="e" horiz-adv-x="505" 
d="M533 256h-430q-22 -110 9 -174q36 -74 141 -74q82 0 145.5 45.5t92.5 126.5h20q-29 -88 -100 -140t-160 -52q-115 0 -157 81q-36 71 -10 191q23 108 96 185q82 86 186 86q112 0 155 -84q37 -74 12 -191zM517 276q21 99 -16 164q-41 71 -137 71q-93 0 -166 -73
q-65 -65 -91 -162h410z" />
    <glyph glyph-name="f" unicode="f" horiz-adv-x="206" 
d="M354 697q-24 4 -46 4q-43 0 -63.5 -16t-29.5 -58l-23 -108h111l-4 -20h-111l-106 -499h-20l106 499h-50l4 20h50l20 94q8 54 31 78q31 30 93 30q2 0 42 -4z" />
    <glyph glyph-name="g" unicode="g" horiz-adv-x="503" 
d="M468 17q-22 -102 -88.5 -155t-169.5 -53q-84 0 -128 39q-48 44 -33 125h20q-13 -72 30 -110q39 -34 114 -34q195 0 235 188l33 157h-2q-29 -66 -96 -106t-137 -40q-103 0 -145 75q-38 68 -16 174q23 108 93 178q77 76 182 76q127 -4 209 -41zM502 277l41 199
q-33 19 -79 26.5t-108 8.5q-96 0 -166 -71q-64 -64 -85 -163q-20 -97 14 -159q38 -70 131 -70q95 0 166 68q66 64 86 161z" />
    <glyph glyph-name="h" unicode="h" horiz-adv-x="443" 
d="M191 714h20l-69 -327h2q13 30 34 55t48.5 44t60.5 29.5t71 10.5q40 0 71 -12t50.5 -35.5t26 -58t-3.5 -79.5l-72 -341h-20l71 338q10 45 3.5 76.5t-24.5 52t-45.5 30t-60.5 9.5q-46 0 -84.5 -17.5t-68.5 -47t-50.5 -68.5t-29.5 -82l-61 -291h-20z" />
    <glyph glyph-name="i" unicode="i" horiz-adv-x="112" 
d="M189 619h-20l22 102h20zM58 0h-20l110 519h20z" />
    <glyph glyph-name="j" unicode="j" horiz-adv-x="161" 
d="M255 619h-20l22 102h20zM107 -76q-13 -65 -49 -86q-27 -16 -96 -17l5 20q62 0 82 13q27 17 40 77l125 588h20z" />
    <glyph glyph-name="k" unicode="k" horiz-adv-x="463" 
d="M461 0h-27l-176 307l-157 -111l-41 -196h-20l153 721h20l-107 -500l419 298h29l-278 -198z" />
    <glyph glyph-name="l" unicode="l" horiz-adv-x="173" 
d="M80 101q-16 -81 54 -81q16 0 43 3l-4 -20q-34 -3 -49 -3q-84 0 -65 97l133 624h20z" />
    <glyph glyph-name="m" unicode="m" horiz-adv-x="747" 
d="M149 514h20l-27 -127h2q13 30 34 55t46.5 44t54 29.5t58.5 10.5q61 2 94.5 -30.5t34.5 -89.5h2q26 54 77.5 87t110.5 33q46 0 74.5 -14t42.5 -38.5t14.5 -59t-8.5 -76.5l-71 -338h-20l71 338q8 38 8.5 69t-11.5 53t-37 34t-67 12q-38 0 -70.5 -14.5t-59 -39.5
t-44.5 -57.5t-25 -68.5l-69 -326h-20l70 330q7 36 8.5 68t-8.5 56t-34 38t-67 14q-38 0 -72.5 -17.5t-62.5 -47t-48 -68.5t-29 -82l-61 -291h-20z" />
    <glyph glyph-name="n" unicode="n" horiz-adv-x="467" 
d="M430 0h-20l72 341q17 78 -16.5 124t-110.5 46q-88 0 -154 -66q-60 -60 -79 -151l-62 -294h-20l110 519h20l-27 -128h2q29 65 87.5 102.5t126.5 37.5q85 0 123.5 -51t20.5 -136z" />
    <glyph glyph-name="o" unicode="o" horiz-adv-x="520" 
d="M547 260q-24 -112 -99 -188q-82 -84 -191 -84q-108 0 -155 84q-42 76 -18 188q23 111 99 188q82 83 190 83t155 -84q42 -76 19 -187zM527 260q21 102 -16 173q-43 78 -142 78t-174 -78q-69 -70 -91 -173q-22 -104 16 -174q42 -78 142 -78t175 78q68 71 90 174z" />
    <glyph glyph-name="p" unicode="p" horiz-adv-x="497" 
d="M542 261q-23 -110 -93 -186q-79 -87 -184 -87q-76 0 -122.5 42t-50.5 115h-2l-69 -324h-20l144 671q109 46 235 39q106 0 148 -85q38 -74 14 -185zM522 261q22 102 -11 171q-37 79 -135 79q-44 2 -100 -3.5t-114 -30.5l-47 -216q-23 -108 12 -176q38 -77 142 -77
q98 0 169 81q62 70 84 172z" />
    <glyph glyph-name="q" unicode="q" horiz-adv-x="498" 
d="M418 -179h-20l69 324h-2q-34 -73 -98.5 -115t-140.5 -42q-105 0 -148 87q-36 76 -13 186q24 111 92 185q78 85 184 85q74 0 121 -43t52 -114h2l31 145h20zM492 261q21 101 -15 172q-42 78 -140 78t-169 -79q-61 -69 -83 -171t10 -172q37 -81 135 -81q104 0 176 77
q63 68 86 176z" />
    <glyph glyph-name="r" unicode="r" horiz-adv-x="264" 
d="M60 0h-20l109 514h20l-27 -127h2q13 28 33.5 54t49.5 45.5t66 30t82 9.5l-4 -20q-52 3 -94.5 -14.5t-74 -48t-52 -70.5t-29.5 -82z" />
    <glyph glyph-name="s" unicode="s" horiz-adv-x="449" 
d="M449 132q-16 -71 -84 -110q-58 -34 -133 -34q-208 0 -168 190h20q-36 -170 152 -170q65 0 117 28q62 33 75 94q16 76 -69 107q-80 22 -161 44q-84 35 -66 120q14 65 78 100q54 30 123 30q186 0 151 -165h-20q31 145 -135 145q-60 0 -107 -24q-58 -30 -70 -86
q-16 -74 69 -105q81 -22 161 -45q84 -35 67 -119z" />
    <glyph glyph-name="t" unicode="t" horiz-adv-x="207" 
d="M313 499h-116l-106 -499h-20l106 499h-64l4 20h64l26 123l29 41l-35 -164h116z" />
    <glyph glyph-name="u" unicode="u" horiz-adv-x="468" 
d="M427 0h-20l27 128h-2q-30 -65 -88.5 -102.5t-126.5 -37.5q-85 0 -123 51t-20 136l73 344h20l-73 -341q-16 -78 17 -124t110 -46q88 0 154 66q60 60 79 151l63 294h20z" />
    <glyph glyph-name="v" unicode="v" horiz-adv-x="459" 
d="M558 519l-304 -519h-25l-102 519h24l93 -499h2l290 499h22z" />
    <glyph glyph-name="w" unicode="w" horiz-adv-x="752" 
d="M837 519l-274 -519h-26l-54 499h-2l-267 -499h-28l-50 519h20l47 -499h2l265 499h31l52 -499h2l262 499h20z" />
    <glyph glyph-name="x" unicode="x" horiz-adv-x="493" 
d="M465 0h-25l-141 254l-246 -254h-25l263 269l-134 250h26l123 -235l227 235h24l-241 -250z" />
    <glyph glyph-name="y" unicode="y" horiz-adv-x="457" 
d="M559 519l-370 -625q-28 -47 -66 -62q-29 -11 -86 -11l5 20q59 0 90 18q27 15 50 55q26 45 52 91l-106 514h22l99 -492l289 492h21z" />
    <glyph glyph-name="z" unicode="z" horiz-adv-x="410" 
d="M404 0h-397l5 25l461 474h-333l4 20h354l-5 -25l-461 -474h376z" />
    <glyph glyph-name="braceleft" unicode="{" horiz-adv-x="204" 
d="M162 -179h-50q-43 0 -52 35q-8 27 4 87l16 64t16 68q32 149 -32 198l4 20q42 7 69 57q20 38 36 115q4 17 10.5 53t10.5 53q17 80 39 117q28 50 74 50h50l-4 -20h-48q-57 0 -84 -127q-3 -17 -10.5 -56t-11.5 -59q-35 -164 -114 -195q66 -35 31 -199q-4 -20 -13.5 -59
t-13.5 -57q-26 -125 30 -125h48z" />
    <glyph glyph-name="bar" unicode="|" horiz-adv-x="116" 
d="M56 -17h-20l160 755h20z" />
    <glyph glyph-name="braceright" unicode="}" horiz-adv-x="204" 
d="M254 267q-42 -7 -68 -58q-20 -38 -37 -115q-3 -17 -10 -53q-7 -35 -11 -53q-17 -80 -38 -117q-29 -50 -76 -50h-49l5 20h47q34 0 55 37q16 28 29 91q4 17 11 55.5t11 58.5q35 165 114 196q-65 35 -30 198q4 20 13.5 59.5t13.5 57.5q26 124 -31 124h-48l4 20h50
q44 0 54 -35q8 -28 -5 -88q-4 -19 -15.5 -63.5t-16.5 -68.5q-31 -148 33 -196z" />
    <glyph glyph-name="asciitilde" unicode="~" horiz-adv-x="504" 
d="M539 298q-72 -87 -128 -87q-32 0 -95.5 35t-108.5 35q-55 0 -114 -74l-18 6q64 88 136 88q42 0 111.5 -35t94.5 -35q41 0 103 73z" />
    <glyph glyph-name="Adieresis" unicode="&#xc4;" horiz-adv-x="619" 
d="M562 776h-20l18 82h20zM406 776h-20l18 82h20zM608 0h-22l-44 237h-364l-145 -237h-23l443 721h26zM538 258l-75 443h-2l-271 -443h348z" />
    <glyph glyph-name="Aring" unicode="&#xc5;" horiz-adv-x="629" 
d="M580 833q-8 -36 -39.5 -62.5t-67.5 -26.5t-56.5 26.5t-12.5 62.5q7 35 39 62t67 27t56 -27t14 -62zM613 0h-22l-44 237h-364l-145 -237h-23l443 721h26zM560 833q6 28 -10 48.5t-44 20.5t-52 -20.5t-30 -48.5t9.5 -48.5t43.5 -20.5t52.5 20.5t30.5 48.5zM543 258l-75 443
h-2l-271 -443h348z" />
    <glyph glyph-name="Ccedilla" unicode="&#xc7;" horiz-adv-x="674" 
d="M717 283q-47 -133 -142 -213q-100 -85 -230 -87l-38 -40q5 1 18 4q10 2 17 2q75 0 62 -60q-16 -74 -114 -74q-28 0 -78 17l13 20q40 -17 69 -17q78 0 90 54q4 18 -11.5 29t-35.5 11q-32 0 -56 -13l-13 10l57 57q-143 6 -204 119q-58 104 -26 253q34 161 143 268
q117 115 274 115q105 0 176 -63q77 -69 60 -170h-20q12 95 -57 156q-65 57 -163 57q-147 0 -257 -110q-104 -102 -136 -253q-31 -144 27 -243q62 -109 201 -109q124 0 220 80q90 75 134 200h20z" />
    <glyph glyph-name="Eacute" unicode="&#xc9;" horiz-adv-x="506" 
d="M544 918l-177 -145h-15l163 145h29zM506 0h-478l153 721h474l-4 -20h-454l-67 -315h427l-5 -20h-427l-73 -346h458z" />
    <glyph glyph-name="Ntilde" unicode="&#xd1;" horiz-adv-x="602" 
d="M616 865q-7 -33 -30 -54.5t-55 -21.5q-27 0 -59.5 29.5t-54.5 29.5q-20 0 -38.5 -19.5t-22.5 -40.5h-20q6 27 32 53.5t53 26.5q24 0 59 -29.5t55 -29.5q22 0 39.5 17t21.5 39h20zM571 0h-30l-341 696h-2l-147 -696h-20l153 721h30l340 -696h2l148 696h20z" />
    <glyph glyph-name="Odieresis" unicode="&#xd6;" horiz-adv-x="704" 
d="M604 776h-20l18 82h20zM448 776h-20l18 82h20zM757 361q-34 -159 -139 -264q-115 -114 -270 -114t-222 114q-61 105 -27 264t140 264q114 113 269 113t222 -113q61 -105 27 -264zM737 361q32 151 -24 250q-62 107 -209 107t-254 -107q-99 -99 -131 -250t25 -250
q61 -108 208 -108t255 108q98 99 130 250z" />
    <glyph glyph-name="Udieresis" unicode="&#xdc;" horiz-adv-x="582" 
d="M543 776h-20l18 82h20zM387 776h-20l18 82h20zM610 269q-29 -135 -108 -208q-83 -78 -215 -78t-183 78q-47 73 -18 208l96 452h20l-96 -452q-57 -266 185 -266t299 266l96 452h20z" />
    <glyph glyph-name="ccedilla" unicode="&#xe7;" horiz-adv-x="476" 
d="M494 177q-26 -85 -92.5 -136t-151.5 -53l-43 -45q5 1 18 4q10 2 17 2q75 0 62 -60q-16 -74 -114 -74q-28 0 -78 17l13 20q40 -17 69 -17q78 0 90 54q4 18 -11.5 29t-35.5 11q-32 0 -56 -13l-13 10l61 62q-98 6 -140 83q-40 72 -18 177q26 121 101 198q82 85 199 85
q78 0 122 -46t36 -123h-20q4 69 -34 109t-108 40q-108 0 -184 -80q-68 -71 -92 -183q-21 -100 18 -167q42 -73 139 -73q77 0 141 46.5t85 122.5h20z" />
    <glyph glyph-name="eacute" unicode="&#xe9;" horiz-adv-x="486" 
d="M500 716l-177 -145h-15l163 145h29zM521 256h-430q-22 -110 9 -174q36 -74 141 -74q82 0 145.5 45.5t92.5 126.5h20q-29 -88 -100.5 -140t-159.5 -52q-116 0 -157 81q-36 71 -10 191q23 108 96 185q81 86 186 86q112 0 155 -84q37 -74 12 -191zM505 276q21 99 -16 164
q-41 71 -137 71q-93 0 -166 -73q-66 -65 -91 -162h410z" />
    <glyph glyph-name="egrave" unicode="&#xe8;" horiz-adv-x="486" 
d="M418 571h-15l-108 145h29zM525 256h-430q-22 -110 9 -174q36 -74 141 -74q82 0 145.5 45.5t92.5 126.5h20q-29 -88 -100.5 -140t-159.5 -52q-116 0 -157 81q-36 71 -10 191q23 108 96 185q81 86 186 86q112 0 155 -84q37 -74 12 -191zM509 276q21 99 -16 164
q-41 71 -137 71q-93 0 -166 -73q-66 -65 -91 -162h410z" />
    <glyph glyph-name="ecircumflex" unicode="&#xea;" horiz-adv-x="491" 
d="M490 576h-20l-77 124l-125 -124h-20l143 140h15zM526 256h-430q-22 -110 9 -174q36 -74 141 -74q82 0 145.5 45.5t92.5 126.5h20q-29 -88 -100.5 -140t-159.5 -52q-116 0 -157 81q-36 71 -10 191q23 108 96 185q81 86 186 86q112 0 155 -84q37 -74 12 -191zM510 276
q21 99 -16 164q-41 71 -137 71q-93 0 -166 -73q-66 -65 -91 -162h410z" />
    <glyph glyph-name="edieresis" unicode="&#xeb;" horiz-adv-x="493" 
d="M458 574h-20l17 82h20zM302 574h-20l17 82h20zM527 256h-430q-22 -110 9 -174q36 -74 141 -74q82 0 145.5 45.5t92.5 126.5h20q-29 -88 -100.5 -140t-159.5 -52q-116 0 -157 81q-36 71 -10 191q23 108 96 185q81 86 186 86q112 0 155 -84q37 -74 12 -191zM511 276
q21 99 -16 164q-41 71 -137 71q-93 0 -166 -73q-66 -65 -91 -162h410z" />
    <glyph glyph-name="iacute" unicode="&#xed;" horiz-adv-x="170" 
d="M321 716l-177 -145h-15l163 145h29zM73 0h-20l110 519h20z" />
    <glyph glyph-name="igrave" unicode="&#xec;" horiz-adv-x="164" 
d="M276 571h-15l-108 145h29zM114 0h-20l110 519h20z" />
    <glyph glyph-name="icircumflex" unicode="&#xee;" horiz-adv-x="253" 
d="M369 576h-20l-77 124l-125 -124h-20l143 140h15zM136 0h-20l110 519h20z" />
    <glyph glyph-name="idieresis" unicode="&#xef;" horiz-adv-x="192" 
d="M306 574h-20l17 82h20zM150 574h-20l17 82h20zM106 0h-20l110 519h20z" />
    <glyph glyph-name="ntilde" unicode="&#xf1;" horiz-adv-x="452" 
d="M499 663q-7 -33 -30 -54.5t-55 -21.5q-26 0 -59 29.5t-55 29.5q-20 0 -38 -19.5t-23 -40.5h-20q6 27 32 53.5t53 26.5q24 0 60 -29.5t55 -29.5q22 0 39 17t21 39h20zM422 0h-20l72 341q17 78 -16.5 124t-110.5 46q-88 0 -154 -66q-60 -60 -79 -151l-62 -294h-20l110 519
h20l-27 -128h2q29 65 87.5 102.5t126.5 37.5q85 0 123.5 -51t20.5 -136z" />
    <glyph glyph-name="oacute" unicode="&#xf3;" horiz-adv-x="500" 
d="M507 716l-177 -145h-15l163 145h29zM535 260q-24 -112 -99 -188q-82 -84 -191 -84q-108 0 -155 84q-42 76 -18 188q23 111 99 188q82 83 190 83t155 -84q42 -76 19 -187zM515 260q21 102 -16 173q-43 78 -142 78t-174 -78q-69 -70 -91 -173q-22 -104 16 -174
q42 -78 142 -78t175 78q68 71 90 174z" />
    <glyph glyph-name="ograve" unicode="&#xf2;" horiz-adv-x="500" 
d="M424 571h-15l-108 145h29zM538 260q-24 -112 -99 -188q-82 -84 -191 -84q-108 0 -155 84q-42 76 -18 188q23 111 99 188q82 83 190 83t155 -84q42 -76 19 -187zM518 260q21 102 -16 173q-43 78 -142 78t-174 -78q-69 -70 -91 -173q-22 -104 16 -174q42 -78 142 -78
t175 78q68 71 90 174z" />
    <glyph glyph-name="ocircumflex" unicode="&#xf4;" horiz-adv-x="505" 
d="M496 576h-20l-77 124l-125 -124h-20l143 140h15zM539 260q-24 -112 -99 -188q-82 -84 -191 -84q-108 0 -155 84q-42 76 -18 188q23 111 99 188q82 83 190 83t155 -84q42 -76 19 -187zM519 260q21 102 -16 173q-43 78 -142 78t-174 -78q-69 -70 -91 -173q-22 -104 16 -174
q42 -78 142 -78t175 78q68 71 90 174z" />
    <glyph glyph-name="odieresis" unicode="&#xf6;" horiz-adv-x="507" 
d="M464 574h-20l17 82h20zM308 574h-20l17 82h20zM540 260q-24 -112 -99 -188q-82 -84 -191 -84q-108 0 -155 84q-42 76 -18 188q23 111 99 188q82 83 190 83t155 -84q42 -76 19 -187zM520 260q21 102 -16 173q-43 78 -142 78t-174 -78q-69 -70 -91 -173q-22 -104 16 -174
q42 -78 142 -78t175 78q68 71 90 174z" />
    <glyph glyph-name="otilde" unicode="&#xf5;" horiz-adv-x="509" 
d="M527 663q-7 -33 -30 -54.5t-55 -21.5q-26 0 -59 29.5t-55 29.5q-20 0 -38 -19.5t-23 -40.5h-20q6 27 32 53.5t53 26.5q24 0 60 -29.5t55 -29.5q22 0 39 17t21 39h20zM541 260q-24 -112 -99 -188q-82 -84 -191 -84q-108 0 -155 84q-42 76 -18 188q23 111 99 188
q82 83 190 83t155 -84q42 -76 19 -187zM521 260q21 102 -16 173q-43 78 -142 78t-174 -78q-69 -70 -91 -173q-22 -104 16 -174q42 -78 142 -78t175 78q68 71 90 174z" />
    <glyph glyph-name="uacute" unicode="&#xfa;" horiz-adv-x="441" 
d="M475 716l-177 -145h-15l163 145h29zM412 0h-20l27 128h-2q-30 -65 -88.5 -102.5t-126.5 -37.5q-85 0 -123 51t-20 136l73 344h20l-73 -341q-16 -78 17 -124t110 -46q88 0 154 66q60 60 79 151l63 294h20z" />
    <glyph glyph-name="ugrave" unicode="&#xf9;" horiz-adv-x="440" 
d="M393 571h-15l-108 145h29zM416 0h-20l27 128h-2q-30 -65 -88.5 -102.5t-126.5 -37.5q-85 0 -123 51t-20 136l73 344h20l-73 -341q-16 -78 17 -124t110 -46q88 0 154 66q60 60 79 151l63 294h20z" />
    <glyph glyph-name="ucircumflex" unicode="&#xfb;" horiz-adv-x="447" 
d="M465 576h-20l-77 124l-125 -124h-20l143 140h15zM417 0h-20l27 128h-2q-30 -65 -88.5 -102.5t-126.5 -37.5q-85 0 -123 51t-20 136l73 344h20l-73 -341q-16 -78 17 -124t110 -46q88 0 154 66q60 60 79 151l63 294h20z" />
    <glyph glyph-name="udieresis" unicode="&#xfc;" horiz-adv-x="451" 
d="M434 574h-20l17 82h20zM278 574h-20l17 82h20zM419 0h-20l27 128h-2q-30 -65 -88.5 -102.5t-126.5 -37.5q-85 0 -123 51t-20 136l73 344h20l-73 -341q-16 -78 17 -124t110 -46q88 0 154 66q60 60 79 151l63 294h20z" />
    <glyph glyph-name="dagger" unicode="&#x2020;" horiz-adv-x="438" 
d="M533 456h-208l-126 -597h-20l126 597h-208l5 20h208l52 245h20l-52 -245h208z" />
    <glyph glyph-name="degree" unicode="&#xb0;" horiz-adv-x="342" 
d="M431 554q-12 -60 -63 -103t-111 -43q-61 0 -92.5 43t-19.5 103q13 59 63.5 102t110.5 43q59 0 92 -43t20 -102zM411 554q11 52 -17 88.5t-79 36.5q-49 0 -94 -38t-56 -87q-11 -52 16.5 -89t79.5 -37t95.5 37t54.5 89z" />
    <glyph glyph-name="cent" unicode="&#xa2;" horiz-adv-x="465" 
d="M492 177q-28 -85 -94 -136.5t-151 -52.5l-23 -110h-20l23 110q-102 4 -142 89q-36 76 -13 184q22 105 91 181q77 84 179 88l19 89h20l-19 -89q81 -2 125 -45q48 -45 39 -123h-20q5 70 -35.5 108.5t-112.5 39.5l-107 -502h5q73 0 133.5 48t82.5 121h20zM231 8l107 502
q-94 -3 -164 -82q-61 -69 -82 -167q-21 -100 10 -169q36 -81 129 -84z" />
    <glyph glyph-name="sterling" unicode="&#xa3;" horiz-adv-x="554" 
d="M549 73q-97 -90 -185 -90q-35 0 -93 25t-91 25q-64 0 -136 -50l-14 20q140 102 162 208q18 82 -3 137h-76l5 21h66q-14 44 -28 87q-13 52 -4 94q20 91 100 142q71 46 166 46q105 0 157 -57q55 -60 29 -161l-9 -35h-20l7 30q23 95 -24 149t-144 54q-87 0 -151 -40
q-73 -45 -91 -128q-8 -41 5 -94q15 -43 30 -87h158l-5 -21h-149q19 -54 1 -137q-22 -107 -140 -193l2 -2q58 38 110 38q34 0 92.5 -25.5t91.5 -25.5q44 0 90 26q31 17 81 58z" />
    <glyph glyph-name="section" unicode="&#xa7;" horiz-adv-x="487" 
d="M508 206q-9 -46 -52.5 -84.5t-93.5 -52.5q50 -50 36 -112q-15 -71 -68.5 -109.5t-126.5 -38.5q-87 0 -120 55q-32 52 -13 141h20q-38 -176 117 -176q56 0 103 29q53 33 65 86q16 78 -64 144l-152 108q-80 70 -61 158q9 45 52 86q39 38 87 54q-44 44 -30 110q14 65 69 101
q51 33 117 33q80 0 116 -54q33 -52 16 -133h-20q14 77 -13 120q-30 47 -105 47q-57 0 -100 -29q-49 -32 -61 -87q-13 -65 69 -126q76 -54 154 -108q78 -72 59 -162zM488 207q13 59 -30 115q-31 42 -101 89q-53 35 -105 69q-48 -14 -87 -51.5t-49 -83.5q-15 -69 80 -150
l150 -112q48 10 90.5 45t51.5 79z" />
    <glyph glyph-name="bullet" unicode="&#x2022;" horiz-adv-x="413" 
d="M461 361q-15 -74 -79 -127.5t-138 -53.5q-75 0 -115 53.5t-25 127.5q16 74 78.5 126.5t137.5 52.5q74 0 115.5 -52.5t25.5 -126.5z" />
    <glyph glyph-name="paragraph" unicode="&#xb6;" horiz-adv-x="477" 
d="M406 -141h-20l179 842h-163l-179 -842h-20l100 472q-88 0 -141 51q-59 55 -40 141q20 98 96 150q69 48 169 48h202z" />
    <glyph glyph-name="germandbls" unicode="&#xdf;" horiz-adv-x="461" 
d="M480 212q-26 -119 -104 -169q-68 -43 -191 -43l4 20l26 -1q202 -8 245 193q22 104 -36 146q-45 33 -156 33l4 20q193 0 226 156q14 67 -27 108q-38 38 -106 38q-74 0 -123.5 -39.5t-65.5 -114.5l-118 -559h-20l119 562q17 81 74 126t138 45q75 0 119 -44q46 -48 30 -122
q-14 -64 -55 -107q-44 -46 -107 -56v-2q161 -14 124 -190z" />
    <glyph glyph-name="registered" unicode="&#xae;" horiz-adv-x="802" 
d="M851 361q-33 -155 -166 -266.5t-288 -111.5t-241 111.5t-53 266.5t166 266t288 111t241 -111t53 -266zM831 361q31 147 -50 252t-228 105t-273 -105t-157 -252t50 -252.5t228 -105.5t273 105.5t157 252.5zM606 136h-25l-86 202q-11 -1 -129 -1l-43 -201h-20l93 435h141
q142 0 117 -118q-11 -50 -48 -79.5t-88 -33.5zM634 453q20 97 -104 97h-119l-40 -192h104q139 0 159 95z" />
    <glyph glyph-name="copyright" unicode="&#xa9;" horiz-adv-x="802" 
d="M851 361q-33 -155 -166 -266.5t-288 -111.5t-241 111.5t-53 266.5t166 266t288 111t241 -111t53 -266zM831 361q31 147 -50 252t-228 105t-273 -105t-157 -252t50 -252.5t228 -105.5t273 105.5t157 252.5zM653 279q-31 -69 -87 -112q-61 -46 -129 -46q-99 0 -145 67
t-25 167q21 101 93.5 165.5t172.5 64.5q73 0 115.5 -41t36.5 -112h-20q5 62 -34 97.5t-102 35.5q-91 0 -156.5 -58.5t-85.5 -150.5q-19 -92 21 -152q42 -63 133 -63q60 0 112.5 39t79.5 99h20z" />
    <glyph glyph-name="trademark" unicode="&#x2122;" horiz-adv-x="867" 
d="M891 305h-20l85 396h-2l-249 -396h-20l-79 396h-2l-85 -396h-20l89 416h34l79 -388l245 388h34zM490 701h-150l-85 -396h-20l85 396h-150l4 20h320z" />
    <glyph glyph-name="acute" unicode="&#xb4;" horiz-adv-x="168" 
d="M322 738l-176 -145h-15l162 145h29z" />
    <glyph glyph-name="dieresis" unicode="&#xa8;" horiz-adv-x="258" 
d="M342 596h-20l18 82h20zM186 596h-20l18 82h20z" />
    <glyph glyph-name="AE" unicode="&#xc6;" horiz-adv-x="868" 
d="M862 0h-412l58 277h-268l-203 -277h-22l531 721h469l-4 -20h-392l-67 -315h360l-5 -20h-360l-73 -346h392zM513 297l86 406h-47l-297 -406h258z" />
    <glyph glyph-name="Oslash" unicode="&#xd8;" horiz-adv-x="719" 
d="M765 361q-34 -159 -140 -264q-114 -114 -269 -114q-148 0 -213 102l-88 -80l-13 12l91 82q-59 104 -26 262q34 159 139 264q115 113 270 113q145 0 213 -100l73 66l13 -12l-76 -69q60 -102 26 -262zM712 623q-64 95 -200 95q-147 0 -255 -107q-98 -99 -130 -250
q-31 -149 23 -246zM745 361q32 150 -23 246l-562 -507q60 -97 200 -97q147 0 254 108q99 99 131 250z" />
    <glyph glyph-name="plusminus" unicode="&#xb1;" horiz-adv-x="506" 
d="M566 291h-242l-42 -200h-20l42 200h-242l5 20h242l42 200h20l-42 -200h242zM505 0h-504l4 20h504z" />
    <glyph glyph-name="yen" unicode="&#xa5;" horiz-adv-x="536" 
d="M678 721l-321 -393h136l-4 -20h-147l-22 -103h147l-4 -20h-147l-39 -185h-20l39 185h-147l4 20h147l22 103h-147l4 20h138l-153 393h22l151 -387h2l317 387h22z" />
    <glyph glyph-name="mu" unicode="&#xb5;" horiz-adv-x="445" 
d="M429 0h-20l27 128h-2q-29 -65 -87.5 -102.5t-127.5 -37.5q-119 0 -140 94h-2l-56 -261h-20l149 698h19l-73 -341q-16 -78 17 -124t110 -46q194 0 260 311q9 42 20 110.5t16 89.5h20z" />
    <glyph glyph-name="mu" unicode="&#x3bc;" horiz-adv-x="445" 
d="M429 0h-20l27 128h-2q-29 -65 -87.5 -102.5t-127.5 -37.5q-119 0 -140 94h-2l-56 -261h-20l149 698h19l-73 -341q-16 -78 17 -124t110 -46q194 0 260 311q9 42 20 110.5t16 89.5h20z" />
    <glyph glyph-name="ordfeminine" unicode="&#xaa;" horiz-adv-x="353" 
d="M408 378q-42 -1 -47 16q-2 7 8 56h-2q-1 -36 -62 -60q-48 -19 -87 -19q-46 0 -72 19q-31 22 -22 66q15 69 83 86q4 2 120 11q65 6 73 44q18 82 -79 82t-126 -85h-20q33 105 150 105t98 -90l-41 -192q-4 -20 30 -19zM382 509l10 49h-2q-17 -20 -78 -24q-81 -6 -103 -12
q-54 -16 -65 -66q-13 -65 79 -65q57 0 102 31t57 87z" />
    <glyph glyph-name="ordmasculine" unicode="&#xba;" horiz-adv-x="359" 
d="M443 536q-14 -70 -64 -116q-53 -49 -122 -49q-68 0 -98.5 48t-16.5 117q15 69 66.5 116t119.5 47q69 0 101 -48q29 -46 14 -115zM423 536q13 58 -14 100.5t-85 42.5q-57 0 -103 -42.5t-59 -100.5q-12 -59 16 -102t85 -43q58 0 104 45q44 42 56 100z" />
    <glyph glyph-name="oslash" unicode="&#xf8;" horiz-adv-x="533" 
d="M557 260q-24 -112 -99 -188q-82 -84 -191 -84q-107 0 -153 80l-70 -60l-11 14l74 63q-35 71 -13 175q23 111 99 188q82 83 190 83q105 0 151 -78l55 48l11 -14l-58 -50q37 -72 15 -177zM516 438q-40 73 -137 73q-100 0 -175 -78q-68 -70 -90 -173q-20 -93 10 -160z
M537 260q20 94 -13 162l-392 -338q39 -76 140 -76q99 0 175 78q68 71 90 174z" />
    <glyph glyph-name="questiondown" unicode="&#xbf;" horiz-adv-x="433" 
d="M323 448h-20l21 99h20zM435 49q-23 -107 -91 -171q-73 -69 -177 -69q-83 0 -128 42q-49 46 -33 126q16 77 79 135q58 48 115 97q65 64 84 155h20q-21 -96 -86 -162l-114 -98q-64 -57 -78 -127q-16 -72 30 -112q40 -36 115 -36q97 0 163 63q60 58 81 157h20z" />
    <glyph glyph-name="exclamdown" unicode="&#xa1;" horiz-adv-x="112" 
d="M153 448h-20l21 99h20zM19 -179h-19l115 543h20z" />
    <glyph glyph-name="logicalnot" unicode="&#xac;" horiz-adv-x="545" 
d="M523 94h-20l53 249h-484l5 21h504z" />
    <glyph glyph-name="florin" unicode="&#x192;" horiz-adv-x="479" 
d="M633 731l-8 -19q-30 6 -52 6q-62 0 -106 -52q-32 -38 -60 -115q-21 -58 -41 -116h127l-8 -20h-127l-192 -471q-51 -123 -153 -123q-29 0 -47 6l9 20q20 -6 40 -6q87 0 130 107l191 467h-119l8 20h119q24 65 47 130q31 81 67 120q49 53 121 53q31 0 54 -7z" />
    <glyph glyph-name="guillemotleft" unicode="&#xab;" horiz-adv-x="249" 
d="M234 122l-73 141l4 16l133 140l-8 -35l-107 -113l59 -113zM141 122l-73 141l4 16l133 140l-8 -35l-107 -113l59 -113z" />
    <glyph glyph-name="guillemotright" unicode="&#xbb;" horiz-adv-x="249" 
d="M291 263l-133 -141l8 36l107 113l-59 113l8 35l73 -140zM198 263l-133 -141l8 36l107 113l-59 113l8 35l73 -140z" />
    <glyph glyph-name="ellipsis" unicode="&#x2026;" horiz-adv-x="766" 
d="M726 0h-20l21 99h20zM393 0h-20l21 99h20zM60 0h-20l21 99h20z" />
    <glyph glyph-name="nonbreakingspace" unicode="&#xa0;" horiz-adv-x="205" 
 />
    <glyph glyph-name="Agrave" unicode="&#xc0;" horiz-adv-x="620" 
d="M527 773h-15l-108 145h29zM610 0h-22l-44 237h-364l-145 -237h-23l443 721h26zM540 258l-75 443h-2l-271 -443h348z" />
    <glyph glyph-name="Atilde" unicode="&#xc3;" horiz-adv-x="619" 
d="M625 865q-7 -33 -30 -54.5t-55 -21.5q-27 0 -59.5 29.5t-54.5 29.5q-20 0 -38.5 -19.5t-22.5 -40.5h-20q6 27 32 53.5t53 26.5q24 0 59 -29.5t55 -29.5q22 0 39.5 17t21.5 39h20zM608 0h-22l-44 237h-364l-145 -237h-23l443 721h26zM538 258l-75 443h-2l-271 -443h348z
" />
    <glyph glyph-name="Otilde" unicode="&#xd5;" horiz-adv-x="704" 
d="M667 865q-7 -33 -30 -54.5t-55 -21.5q-26 0 -59 29.5t-55 29.5q-20 0 -38.5 -19.5t-22.5 -40.5h-20q6 27 32 53.5t53 26.5q24 0 59.5 -29.5t54.5 -29.5q22 0 39.5 17t21.5 39h20zM757 361q-34 -159 -139 -264q-115 -114 -270 -114t-222 114q-61 105 -27 264t139 264
q115 113 270 113t222 -113q61 -105 27 -264zM737 361q32 151 -24 250q-62 107 -209 107t-255 -107q-98 -99 -130 -250t24 -250q62 -108 209 -108t255 108q98 99 130 250z" />
    <glyph glyph-name="OE" unicode="&#x152;" horiz-adv-x="998" 
d="M992 0h-434l14 66q-97 -83 -214 -83q-155 0 -222 112q-62 104 -29 262q34 160 140 266q114 115 271 115q124 0 179 -83l14 66h434l-4 -20h-414l-67 -315h366l-5 -20h-366l-73 -346h414zM578 95l113 534q-65 89 -177 89q-149 0 -256 -109q-98 -99 -131 -252
q-32 -150 26 -248q62 -106 209 -106q117 0 216 92z" />
    <glyph glyph-name="oe" unicode="&#x153;" horiz-adv-x="891" 
d="M912 256h-402q-53 -248 139 -248q153 0 219 167h20q-33 -86 -93 -135q-65 -52 -150 -52q-84 0 -127 44.5t-38 126.5h-2q-72 -171 -236 -171q-106 0 -145 86q-32 74 -8 186q24 113 87 186q74 85 181 85q80 0 124 -48.5t38 -128.5h2q33 84 94 130.5t145 46.5q112 0 148 -86
q29 -71 4 -189zM896 276q20 102 -9 163q-34 72 -130 72q-185 0 -243 -235h382zM491 260q23 107 -5 172q-33 79 -133 79q-98 0 -166 -80q-56 -67 -78 -171t5 -171q34 -81 132 -81q103 0 168 78q54 65 77 174z" />
    <glyph glyph-name="endash" unicode="&#x2013;" horiz-adv-x="581" 
d="M595 261h-500l4 20h500z" />
    <glyph glyph-name="emdash" unicode="&#x2014;" horiz-adv-x="1080" 
d="M1095 261h-1000l4 20h1000z" />
    <glyph glyph-name="quotedblleft" unicode="&#x201c;" horiz-adv-x="209" 
d="M331 701q-29 -16 -44 -88l-25 -119h-20l25 119q9 45 18 62q15 29 50 46zM231 701q-29 -16 -44 -88l-25 -119h-20l25 119q9 45 18 62q15 29 50 46z" />
    <glyph glyph-name="quotedblright" unicode="&#x201d;" horiz-adv-x="211" 
d="M300 602q-9 -45 -18 -62q-15 -29 -49 -46l4 20q28 16 43 88l26 119h20zM200 602q-9 -45 -18 -62q-15 -29 -49 -46l4 20q28 16 43 88l26 119h20z" />
    <glyph glyph-name="quoteleft" unicode="&#x2018;" horiz-adv-x="86" 
d="M225 701q-29 -16 -44 -88l-25 -119h-20l25 119q9 45 18 62q15 29 50 46z" />
    <glyph glyph-name="quoteright" unicode="&#x2019;" horiz-adv-x="88" 
d="M182 602q-9 -45 -19 -62q-14 -29 -48 -46l4 20q28 16 43 88l26 119h20z" />
    <glyph glyph-name="divide" unicode="&#xf7;" horiz-adv-x="510" 
d="M395 470q-9 -42 -50 -42t-32 42q4 18 18 29.5t32 11.5q17 0 26.5 -12t5.5 -29zM559 245h-504l4 21h504zM304 41q-8 -41 -49 -41t-33 41q9 42 50 42q17 0 26.5 -12t5.5 -30z" />
    <glyph glyph-name="ydieresis" unicode="&#xff;" horiz-adv-x="445" 
d="M438 596h-20l18 82h20zM282 596h-20l18 82h20zM549 519l-370 -625q-27 -47 -66 -62q-29 -11 -86 -11l5 20q59 0 91 18q26 15 49 55q26 45 52 91l-106 514h22l99 -492l289 492h21z" />
    <glyph glyph-name="Ydieresis" unicode="&#x178;" horiz-adv-x="608" 
d="M556 776h-20l18 82h20zM400 776h-20l18 82h20zM756 721l-378 -417l-64 -304h-20l64 304l-200 417h25l190 -396l359 396h24z" />
    <glyph glyph-name="currency" unicode="&#xa4;" horiz-adv-x="562" 
d="M601 343q-20 -97 -102 -169l45 -58l-17 -14l-44 58q-87 -67 -183 -67q-97 0 -153 67l-70 -58l-11 14l69 58q-50 72 -30 169q21 98 103 170l-45 58l17 14l45 -58q85 67 182 67q98 0 154 -67l69 58l11 -14l-69 -58q50 -71 29 -170zM581 343q21 95 -31.5 163t-146.5 68
t-176 -68.5t-102 -162.5t33 -162t147 -68q93 0 174.5 68t101.5 162z" />
    <glyph glyph-name="guilsinglleft" unicode="&#x2039;" horiz-adv-x="145" 
d="M129 122l-73 141l4 16l133 140l-8 -35l-107 -113l59 -113z" />
    <glyph glyph-name="guilsinglright" unicode="&#x203a;" horiz-adv-x="144" 
d="M198 263l-133 -141l8 36l107 113l-59 113l8 35l73 -140z" />
    <glyph glyph-name="daggerdbl" unicode="&#x2021;" horiz-adv-x="438" 
d="M449 58h-208l-42 -199h-20l42 199h-208l4 20h208l90 424h-208l4 20h208l43 199h20l-43 -199h208l-4 -20h-208l-90 -424h208z" />
    <glyph glyph-name="periodcentered" unicode="&#xb7;" horiz-adv-x="127" 
d="M168 343q-6 -32 -38 -32t-26 32q7 33 39 33t25 -33z" />
    <glyph glyph-name="periodcentered" unicode="&#x2219;" horiz-adv-x="127" 
d="M168 343q-6 -32 -38 -32t-26 32q7 33 39 33t25 -33z" />
    <glyph glyph-name="quotesinglbase" unicode="&#x201a;" horiz-adv-x="82" 
d="M55 0q-20 -90 -70 -120l4 20q32 25 52 123q4 18 8.5 44t6.5 32h20z" />
    <glyph glyph-name="quotedblbase" unicode="&#x201e;" horiz-adv-x="209" 
d="M173 0q-20 -90 -71 -120l4 20q33 25 53 123q4 18 8.5 44t6.5 32h20zM73 0q-20 -90 -71 -120l4 20q33 25 53 123q4 18 8.5 44t6.5 32h20z" />
    <glyph glyph-name="perthousand" unicode="&#x2030;" horiz-adv-x="1039" 
d="M1059 160q-16 -73 -67 -121q-54 -51 -125 -51q-73 0 -103 50q-28 47 -13 121q16 75 63 123q52 51 126 51t106 -50q29 -47 13 -123zM448 525q-15 -73 -67.5 -122t-123.5 -49q-73 0 -104 50q-28 46 -12 120q16 75 63 123q52 52 126 52t105 -51q29 -47 13 -123zM750 721
l-637 -755h-23l637 755h23zM699 160q-16 -73 -67 -121q-54 -51 -125 -51q-73 0 -103 50q-28 47 -13 121q16 75 63 123q52 51 126 51t106 -50q29 -47 13 -123zM1038 159q15 69 -10 111.5t-92 42.5t-111 -45q-39 -40 -54 -109q-14 -65 10 -106q26 -45 90 -45q63 0 110 45
q44 42 57 106zM428 524q15 70 -9 110q-26 45 -93 45t-112 -45q-38 -41 -53 -110q-14 -65 10 -106q26 -44 90 -44q63 0 108 43t59 107zM678 159q15 69 -10 111.5t-92 42.5t-111 -45q-39 -40 -54 -109q-14 -65 10 -106q26 -45 90 -45q63 0 110 45q44 42 57 106z" />
    <glyph glyph-name="Acircumflex" unicode="&#xc2;" horiz-adv-x="625" 
d="M599 778h-20l-77 124l-125 -124h-20l143 140h15zM611 0h-22l-44 237h-364l-145 -237h-23l443 721h26zM541 258l-75 443h-2l-271 -443h348z" />
    <glyph glyph-name="Ecircumflex" unicode="&#xca;" horiz-adv-x="509" 
d="M532 778h-20l-77 124l-125 -124h-20l143 140h15zM509 0h-478l153 721h474l-4 -20h-454l-67 -315h427l-5 -20h-427l-73 -346h458z" />
    <glyph glyph-name="Aacute" unicode="&#xc1;" horiz-adv-x="621" 
d="M611 918l-177 -145h-15l163 145h29zM608 0h-22l-44 237h-364l-145 -237h-23l443 721h26zM538 258l-75 443h-2l-271 -443h348z" />
    <glyph glyph-name="Edieresis" unicode="&#xcb;" horiz-adv-x="510" 
d="M499 776h-20l18 82h20zM343 776h-20l18 82h20zM510 0h-478l153 721h474l-4 -20h-454l-67 -315h427l-5 -20h-427l-73 -346h458z" />
    <glyph glyph-name="Egrave" unicode="&#xc8;" horiz-adv-x="508" 
d="M460 773h-15l-108 145h29zM508 0h-478l153 721h474l-4 -20h-454l-67 -315h427l-5 -20h-427l-73 -346h458z" />
    <glyph glyph-name="Iacute" unicode="&#xcd;" horiz-adv-x="170" 
d="M365 918l-177 -145h-15l163 145h29zM74 0h-20l153 721h20z" />
    <glyph glyph-name="Icircumflex" unicode="&#xce;" horiz-adv-x="252" 
d="M412 778h-20l-77 124l-125 -124h-20l143 140h15zM136 0h-20l153 721h20z" />
    <glyph glyph-name="Idieresis" unicode="&#xcf;" horiz-adv-x="184" 
d="M344 776h-20l18 82h20zM188 776h-20l18 82h20zM102 0h-20l153 721h20z" />
    <glyph glyph-name="Igrave" unicode="&#xcc;" horiz-adv-x="164" 
d="M318 773h-15l-108 145h29zM113 0h-20l153 721h20z" />
    <glyph glyph-name="Oacute" unicode="&#xd3;" horiz-adv-x="698" 
d="M649 918l-177 -145h-15l163 145h29zM753 361q-34 -159 -139 -264q-115 -114 -270 -114t-222 114q-61 105 -27 264t139 264q115 113 270 113t222 -113q61 -105 27 -264zM733 361q32 151 -24 250q-62 107 -209 107t-255 -107q-98 -99 -130 -250t24 -250q62 -108 209 -108
t255 108q98 99 130 250z" />
    <glyph glyph-name="Ocircumflex" unicode="&#xd4;" horiz-adv-x="700" 
d="M636 778h-20l-77 124l-125 -124h-20l143 140h15zM755 361q-34 -159 -139 -264q-115 -114 -270 -114t-222 114q-61 105 -27 264t139 264q115 113 270 113t222 -113q61 -105 27 -264zM735 361q32 151 -24 250q-62 107 -209 107t-255 -107q-98 -99 -130 -250t24 -250
q62 -108 209 -108t255 108q98 99 130 250z" />
    <glyph glyph-name="Ograve" unicode="&#xd2;" horiz-adv-x="698" 
d="M565 773h-15l-108 145h29zM755 361q-34 -159 -139 -264q-115 -114 -270 -114t-222 114q-61 105 -27 264t140 264q114 113 269 113t222 -113q61 -105 27 -264zM735 361q32 151 -24 250q-62 107 -209 107t-254 -107q-99 -99 -131 -250t25 -250q61 -108 208 -108t255 108
q98 99 130 250z" />
    <glyph glyph-name="Uacute" unicode="&#xda;" horiz-adv-x="575" 
d="M587 918l-177 -145h-15l163 145h29zM605 269q-29 -135 -108 -208q-83 -78 -215 -78t-183 78q-47 73 -18 208l96 452h20l-96 -452q-57 -266 185 -266t299 266l96 452h20z" />
    <glyph glyph-name="Ucircumflex" unicode="&#xdb;" horiz-adv-x="578" 
d="M575 778h-20l-77 124l-125 -124h-20l143 140h15zM608 269q-29 -135 -108 -208q-83 -78 -215 -78t-183 78q-47 73 -18 208l96 452h20l-96 -452q-57 -266 185 -266t299 266l96 452h20z" />
    <glyph glyph-name="Ugrave" unicode="&#xd9;" horiz-adv-x="574" 
d="M503 773h-15l-108 145h29zM607 269q-29 -135 -108 -208q-83 -78 -215 -78t-183 78q-47 73 -18 208l96 452h20l-96 -452q-57 -266 185 -266t299 266l96 452h20z" />
    <glyph glyph-name="circumflex" unicode="&#x2c6;" horiz-adv-x="274" 
d="M385 598h-20l-77 124l-125 -124h-20l142 140h15z" />
    <glyph glyph-name="tilde" unicode="&#x2dc;" horiz-adv-x="331" 
d="M442 685q-7 -33 -29.5 -54.5t-55.5 -21.5q-26 0 -59.5 29.5t-55.5 29.5q-19 0 -37 -19.5t-23 -40.5h-20q5 27 32 53.5t53 26.5q25 0 60 -29.5t54 -29.5q22 0 39 17t22 39h20z" />
    <glyph glyph-name="macron" unicode="&#xaf;" horiz-adv-x="313" 
d="M406 634h-232l5 20h232z" />
    <glyph glyph-name="macron" unicode="&#x2c9;" horiz-adv-x="313" 
d="M406 634h-232l5 20h232z" />
    <glyph glyph-name="cedilla" unicode="&#xb8;" horiz-adv-x="215" 
d="M170 -111q-16 -74 -114 -74q-28 0 -77 17l13 20q39 -17 68 -17q78 0 90 54q4 18 -11.5 29t-35.5 11q-32 0 -56 -13l-13 10l73 74h20l-54 -57q5 1 18 4q10 2 17 2q75 0 62 -60z" />
    <glyph glyph-name="Scaron" unicode="&#x160;" horiz-adv-x="568" 
d="M610 940l-142 -140h-15l-85 140h20l77 -124l125 124h20zM586 177q-20 -96 -112 -148q-80 -46 -181 -46q-129 0 -189 62q-63 66 -36 194h20q-50 -236 209 -236q93 0 166 40q85 48 103 135q24 111 -94 155q-111 30 -223 59q-118 45 -93 160q20 97 108 146q73 40 175 40
q243 0 206 -219h-20q36 199 -190 199q-92 0 -160 -36q-81 -43 -99 -130q-22 -104 96 -145q112 -30 223 -60q117 -48 91 -170z" />
    <glyph glyph-name="scaron" unicode="&#x161;" horiz-adv-x="436" 
d="M499 738l-142 -140h-15l-85 140h20l77 -124l125 124h20zM442 132q-16 -71 -83 -110q-58 -34 -134 -34q-208 0 -168 190h20q-36 -170 152 -170q65 0 117 28q62 33 75 94q16 76 -69 107q-80 22 -161 44q-84 35 -66 120q14 65 78 100q54 30 123 30q186 0 151 -165h-20
q31 145 -135 145q-60 0 -107 -24q-58 -30 -70 -86q-16 -74 69 -105q81 -22 161 -45q84 -35 67 -119z" />
    <glyph glyph-name="brokenbar" unicode="&#xa6;" horiz-adv-x="95" 
d="M155 447h-20l61 291h20zM56 -17h-20l62 291h20z" />
    <glyph glyph-name="Eth" unicode="&#xd0;" horiz-adv-x="674" 
d="M721 361q-34 -163 -140 -260q-111 -101 -271 -101h-219l77 366h-64l5 20h64l71 335h250q154 0 210 -105q51 -95 17 -255zM701 361q33 156 -14 243q-52 97 -202 97h-225l-67 -315h297l-5 -20h-297l-73 -346h204q149 0 253 98q97 92 129 243z" />
    <glyph glyph-name="eth" unicode="&#xf0;" horiz-adv-x="506" 
d="M536 250q-24 -109 -99 -183q-82 -78 -189 -78q-106 0 -154 79q-45 73 -21 182q23 109 99 183q81 79 188 79q109 0 147 -73h4q-32 110 -118 201l-137 -68l-12 15l136 67q-34 34 -81 61l19 14q48 -28 83 -64l137 68l12 -16l-135 -68q165 -190 121 -399zM516 250
q21 100 -19 168q-43 74 -141 74t-172 -73q-70 -68 -91 -169q-22 -101 19 -168q43 -73 141 -73t173 73q68 68 90 168z" />
    <glyph glyph-name="Yacute" unicode="&#xdd;" horiz-adv-x="606" 
d="M608 940l-177 -145h-15l163 145h29zM755 721l-378 -417l-64 -304h-20l64 304l-200 417h25l190 -396l359 396h24z" />
    <glyph glyph-name="yacute" unicode="&#xfd;" horiz-adv-x="444" 
d="M485 738l-176 -145h-15l162 145h29zM548 519l-370 -625q-28 -47 -67 -62q-28 -11 -85 -11l5 20q58 0 90 18q26 15 50 55q26 45 52 91l-106 514h22l99 -492l289 492h21z" />
    <glyph glyph-name="Thorn" unicode="&#xde;" horiz-adv-x="547" 
d="M630 399q-25 -118 -132 -166q-79 -35 -216 -35q-35 0 -96 2.5t-83 2.5l-43 -203h-20l153 721h20l-27 -125q25 0 93.5 3.5t105.5 3.5q132 0 191 -36q80 -49 54 -168zM610 399q38 177 -159 177h-269l-75 -353h269q84 0 150.5 46.5t83.5 129.5z" />
    <glyph glyph-name="thorn" unicode="&#xfe;" horiz-adv-x="489" 
d="M542 261q-24 -115 -90 -189q-77 -84 -187 -84q-75 0 -122 42.5t-51 114.5h-2l-69 -324h-20l192 900h20l-74 -347h2q37 74 99.5 115.5t139.5 41.5q110 0 151 -83q35 -73 11 -187zM522 261q23 106 -8 173q-37 77 -138 77t-173 -77q-66 -68 -88 -173q-23 -106 13 -175
q39 -78 141 -78t172 79q58 67 81 174z" />
    <glyph glyph-name="minus" unicode="&#xad;" horiz-adv-x="585" 
d="M595 243h-504l4 20h504z" />
    <glyph glyph-name="minus" unicode="&#x2212;" horiz-adv-x="585" 
d="M595 243h-504l4 20h504z" />
    <glyph glyph-name="multiply" unicode="&#xd7;" horiz-adv-x="476" 
d="M455 64l-17 -15l-150 193l-230 -193l-11 15l231 192l-149 191l16 14l148 -193l232 193l12 -14l-232 -191z" />
    <glyph glyph-name="onesuperior" unicode="&#xb9;" horiz-adv-x="181" 
d="M198 280h-20l83 389h-2q-45 -50 -133 -73l4 19q70 21 134 77h22z" />
    <glyph glyph-name="twosuperior" unicode="&#xb2;" horiz-adv-x="340" 
d="M387 280h-298q13 59 93 112q73 44 146 87q81 54 94 115q9 44 -24 67q-27 18 -74 18q-122 0 -148 -122h-20q33 142 172 142q57 0 88 -23q37 -28 26 -82q-14 -64 -92 -121q-3 -2 -142 -86q-79 -48 -92 -87h275z" />
    <glyph glyph-name="threesuperior" unicode="&#xb3;" horiz-adv-x="366" 
d="M418 394q-12 -57 -67 -91q-48 -30 -107 -30q-74 0 -109 35q-38 39 -22 111h20q-27 -126 114 -126q51 0 93 24q48 28 58 77q13 60 -33 82q-31 15 -99 15l4 21q64 0 98 12q54 20 66 74q17 81 -103 81q-130 0 -154 -114h-20q13 65 65 101q47 33 114 33q139 0 118 -101
q-10 -43 -45 -69.5t-78 -26.5v-2q48 -3 73 -29q24 -29 14 -77z" />
    <glyph glyph-name="onehalf" unicode="&#xbd;" horiz-adv-x="742" 
d="M728 0h-298q12 60 92 113q74 44 147 87q80 54 93 114q10 45 -24 67q-27 18 -74 18q-123 0 -148 -122h-20q33 142 173 142q57 0 88 -23q37 -28 25 -82q-13 -64 -91 -121q-4 -2 -144 -86q-78 -48 -90 -87h275zM707 721l-637 -755h-23l637 755h23zM221 280h-20l83 389h-2
q-46 -50 -133 -73l4 19q70 21 134 77h22z" />
    <glyph glyph-name="onequarter" unicode="&#xbc;" horiz-adv-x="668" 
d="M670 103h-76l-21 -103h-20l21 103h-221l6 25l276 284h25l-61 -289h76zM714 721l-637 -755h-23l637 755h23zM218 280h-20l83 389h-2q-45 -50 -133 -73l4 19q70 21 134 77h22zM579 123l53 260l-253 -260h200z" />
    <glyph glyph-name="threequarters" unicode="&#xbe;" horiz-adv-x="766" 
d="M765 103h-76l-21 -103h-20l21 103h-221l6 25l276 284h25l-61 -289h76zM815 721l-637 -755h-23l637 755h23zM414 394q-12 -57 -67 -91q-48 -30 -107 -30q-74 0 -110 35q-37 39 -21 111h20q-27 -126 114 -126q51 0 93 24q48 28 58 77q11 51 -23 77q-30 22 -82 22
q-14 0 -27 -2l4 21q64 0 98 12q54 20 66 74q17 81 -103 81q-130 0 -154 -114h-20q13 65 65 101q47 33 114 33q139 0 118 -101q-10 -43 -45 -69.5t-78 -26.5v-2q48 -3 72 -29q25 -29 15 -77zM674 123l53 260l-253 -260h200z" />
    <glyph glyph-name="Lslash" unicode="&#x141;" horiz-adv-x="534" 
d="M534 0h-437l57 269l-85 -52l5 24l85 52l89 421h20l-86 -407l285 174l-5 -24l-285 -174l-56 -263h417z" />
    <glyph glyph-name="lslash" unicode="&#x142;" horiz-adv-x="172" 
d="M265 455l-86 -63l-83 -392h-20l79 375l-86 -63l5 25l87 63l66 314h20l-63 -297l87 63z" />
    <glyph glyph-name="Zcaron" unicode="&#x17d;" horiz-adv-x="542" 
d="M600 931l-142 -139h-15l-85 139h20l77 -123l125 123h20zM540 0h-527l5 27l641 667h-471l4 20h491l-5 -27l-641 -667h507z" />
    <glyph glyph-name="zcaron" unicode="&#x17e;" horiz-adv-x="419" 
d="M493 731l-143 -139h-15l-84 139h20l77 -123l125 123h20zM415 0h-397l5 25l460 469h-333l4 20h354l-6 -25l-459 -469h376z" />
    <glyph glyph-name="fraction" unicode="&#x2044;" horiz-adv-x="501" 
d="M651 714l-635 -748h-22l634 748h23z" />
    <glyph glyph-name="fi" unicode="&#xf001;" horiz-adv-x="327" 
d="M375 494h-154l-105 -494h-20l105 494h-88l4 20h88q3 17 8.5 48.5t8.5 44.5q11 54 34 77q29 30 92 30q2 0 42 -4l-4 -20q-25 4 -46 4q-43 0 -63.5 -15.5t-29.5 -57.5l-22 -107h111h60l-109 -514h-20z" />
    <glyph glyph-name="dotlessi" unicode="&#x131;" horiz-adv-x="116" 
d="M60 0h-20l109 514h20z" />
    <glyph glyph-name="breve" unicode="&#x2d8;" horiz-adv-x="298" 
d="M427 731q-17 -50 -57.5 -78.5t-91.5 -28.5q-48 0 -74.5 29.5t-22.5 77.5h20q-3 -39 19.5 -63t61.5 -24q97 0 125 87h20z" />
    <glyph glyph-name="dotaccent" unicode="&#x2d9;" horiz-adv-x="116" 
d="M185 590h-20l17 81h20z" />
    <glyph glyph-name="ring" unicode="&#x2da;" horiz-adv-x="230" 
d="M346 674q-8 -36 -39.5 -62t-67.5 -26q-35 0 -56 26.5t-13 61.5q7 35 39 61.5t67 26.5t56 -26.5t14 -61.5zM326 674q6 28 -10 48t-44 20q-27 0 -51.5 -20t-30.5 -48t10 -48t43 -20q28 0 52.5 20t30.5 48z" />
    <glyph glyph-name="hungarumlaut" unicode="&#x2dd;" horiz-adv-x="342" 
d="M483 731l-177 -144h-15l163 144h29zM333 731l-177 -144h-15l163 144h29z" />
    <glyph glyph-name="ogonek" unicode="&#x2db;" horiz-adv-x="204" 
d="M159 -150q-45 -39 -103 -39q-30 0 -49 16.5t-12 45.5q10 54 124 127h29q-124 -81 -133 -126q-5 -21 9.5 -32t36.5 -11q50 0 83 31z" />
    <glyph glyph-name="caron" unicode="&#x2c7;" horiz-adv-x="270" 
d="M411 731l-143 -139h-15l-84 139h20l77 -123l125 123h20z" />
    <glyph glyph-name="glyph224" horiz-adv-x="205" 
 />
    <glyph glyph-name="ae" unicode="&#xe6;" horiz-adv-x="971" 
d="M570 348q17 27 34 52.5t35 44.5q82 86 186 86q112 0 155 -84q37 -74 12 -191h-430q-22 -110 9 -174q36 -74 141 -74q82 0 145.5 45.5t92.5 126.5h20q-29 -88 -100 -140t-160 -52q-115 0 -157 81q-20 41 -21 97l-35 -166h-20l30 142q-15 -28 -54 -70q-82 -84 -191 -84
q-108 0 -155 84q-42 76 -18 188q23 111 99 188q82 83 190 83t155 -84q18 -32 24 -69l30 141h20zM976 276q21 99 -16 164q-41 71 -137 71q-93 0 -166 -73q-65 -65 -91 -162h410zM532 260q21 102 -16 173q-43 78 -142 78t-174 -78q-69 -70 -91 -173q-22 -104 16 -174
q42 -78 142 -78t175 78q68 71 90 174z" />
    <glyph glyph-name="aring" unicode="&#xe5;" 
d="M502 142q-15 -28 -54 -70q-82 -84 -191 -84q-108 0 -155 84q-42 76 -18 188q23 111 99 188q82 83 190 83q34 0 63.5 -4.5t56 -12.5t51 -18.5t49.5 -20.5l-101 -475h-20zM527 260l43 198q-46 24 -91.5 39t-109.5 14q-99 0 -174 -78q-69 -70 -91 -173q-22 -104 16 -174
q42 -78 142 -78t175 78q68 71 90 174zM497 674q-8 -36 -39.5 -62t-67.5 -26q-35 0 -56 26.5t-13 61.5q7 35 39 61.5t67 26.5t56 -26.5t14 -61.5zM477 674q6 28 -10 48t-44 20q-27 0 -51.5 -20t-30.5 -48t10 -48t43 -20q28 0 52.5 20t30.5 48z" />
    <glyph glyph-name="adieresis" unicode="&#xe4;" 
d="M502 142q-15 -28 -54 -70q-82 -84 -191 -84q-108 0 -155 84q-42 76 -18 188q23 111 99 188q82 83 190 83q34 0 63.5 -4.5t56 -12.5t51 -18.5t49.5 -20.5l-101 -475h-20zM527 260l43 198q-46 24 -91.5 39t-109.5 14q-99 0 -174 -78q-69 -70 -91 -173q-22 -104 16 -174
q42 -78 142 -78t175 78q68 71 90 174zM480 596h-20l18 82h20zM324 596h-20l18 82h20z" />
    <glyph glyph-name="atilde" unicode="&#xe3;" 
d="M502 142q-15 -28 -54 -70q-82 -84 -191 -84q-108 0 -155 84q-42 76 -18 188q23 111 99 188q82 83 190 83q34 0 63.5 -4.5t56 -12.5t51 -18.5t49.5 -20.5l-101 -475h-20zM527 260l43 198q-46 24 -91.5 39t-109.5 14q-99 0 -174 -78q-69 -70 -91 -173q-22 -104 16 -174
q42 -78 142 -78t175 78q68 71 90 174zM543 685q-7 -33 -29.5 -54.5t-55.5 -21.5q-26 0 -59.5 29.5t-55.5 29.5q-19 0 -37 -19.5t-23 -40.5h-20q5 27 32 53.5t53 26.5q25 0 60 -29.5t54 -29.5q22 0 39 17t22 39h20z" />
    <glyph glyph-name="acircumflex" unicode="&#xe2;" 
d="M502 142q-15 -28 -54 -70q-82 -84 -191 -84q-108 0 -155 84q-42 76 -18 188q23 111 99 188q82 83 190 83q34 0 63.5 -4.5t56 -12.5t51 -18.5t49.5 -20.5l-101 -475h-20zM527 260l43 198q-46 24 -91.5 39t-109.5 14q-99 0 -174 -78q-69 -70 -91 -173q-22 -104 16 -174
q42 -78 142 -78t175 78q68 71 90 174zM514 598h-20l-77 124l-125 -124h-20l142 140h15z" />
    <glyph glyph-name="aacute" unicode="&#xe1;" 
d="M502 142q-15 -28 -54 -70q-82 -84 -191 -84q-108 0 -155 84q-42 76 -18 188q23 111 99 188q82 83 190 83q34 0 63.5 -4.5t56 -12.5t51 -18.5t49.5 -20.5l-101 -475h-20zM527 260l43 198q-46 24 -91.5 39t-109.5 14q-99 0 -174 -78q-69 -70 -91 -173q-22 -104 16 -174
q42 -78 142 -78t175 78q68 71 90 174zM502 738l-176 -145h-15l162 145h29z" />
    <glyph glyph-name="agrave" unicode="&#xe0;" 
d="M502 142q-15 -28 -54 -70q-82 -84 -191 -84q-108 0 -155 84q-42 76 -18 188q23 111 99 188q82 83 190 83q34 0 63.5 -4.5t56 -12.5t51 -18.5t49.5 -20.5l-101 -475h-20zM527 260l43 198q-46 24 -91.5 39t-109.5 14q-99 0 -174 -78q-69 -70 -91 -173q-22 -104 16 -174
q42 -78 142 -78t175 78q68 71 90 174zM469 593h-15l-109 145h29z" />
    </font>
</defs>
</svg>
